<mxfile host="Electron" agent="Mozilla/5.0 (X11; Linux x86_64) AppleWebKit/537.36 (KHTML, like Gecko) draw.io/24.7.8 Chrome/128.0.6613.36 Electron/32.0.1 Safari/537.36" version="24.7.8">
  <diagram name="Page-1" id="e7e014a7-5840-1c2e-5031-d8a46d1fe8dd">
    <mxGraphModel dx="989" dy="548" grid="1" gridSize="10" guides="1" tooltips="1" connect="1" arrows="1" fold="1" page="1" pageScale="1" pageWidth="1169" pageHeight="826" background="none" math="0" shadow="0">
      <root>
        <mxCell id="0" />
        <mxCell id="1" parent="0" />
        <mxCell id="8" value="User Actions" style="verticalAlign=top;fontColor=#FFFFFF;" parent="1" vertex="1">
          <mxGeometry x="121" y="302.5" width="90" height="107.5" as="geometry" />
        </mxCell>
        <mxCell id="K6xSPXkN4X1ELBGIaNk9-41" value="" style="group" parent="1" vertex="1" connectable="0">
          <mxGeometry x="220" y="180" width="738" height="549" as="geometry" />
        </mxCell>
        <mxCell id="2" value="SDK App" style="swimlane;whiteSpace=wrap;startSize=63;" parent="K6xSPXkN4X1ELBGIaNk9-41" vertex="1">
          <mxGeometry width="239.74576271186444" height="549" as="geometry">
            <mxRectangle width="100" height="30" as="alternateBounds" />
          </mxGeometry>
        </mxCell>
        <mxCell id="5" value="" style="ellipse;shape=startState;fillColor=#000000;strokeColor=#ff0000;" parent="2" vertex="1">
          <mxGeometry x="107.13309927360775" y="69.99631578947367" width="25.48229418886199" height="28.894736842105264" as="geometry" />
        </mxCell>
        <mxCell id="6" value="" style="edgeStyle=elbowEdgeStyle;elbow=horizontal;verticalAlign=bottom;endArrow=open;endSize=8;strokeColor=#FF0000;endFill=1;rounded=0;exitX=0.5;exitY=1;exitDx=0;exitDy=0;entryX=0.5;entryY=0;entryDx=0;entryDy=0;" parent="2" source="5" target="7" edge="1">
          <mxGeometry x="84.94098062953996" y="38.52631578947368" as="geometry">
            <mxPoint x="159.32669491525425" y="185.55736842105267" as="targetPoint" />
            <mxPoint x="30.07717312348643" y="140.0036842105264" as="sourcePoint" />
            <Array as="points">
              <mxPoint x="119.87288135593222" y="160" />
            </Array>
          </mxGeometry>
        </mxCell>
        <mxCell id="K6xSPXkN4X1ELBGIaNk9-66" value="App is run" style="edgeLabel;html=1;align=center;verticalAlign=middle;resizable=0;points=[];" parent="6" vertex="1" connectable="0">
          <mxGeometry relative="1" as="geometry">
            <mxPoint y="-9" as="offset" />
          </mxGeometry>
        </mxCell>
        <mxCell id="7" value="GUI" style="" parent="2" vertex="1">
          <mxGeometry x="40.600423728813574" y="210" width="158.5449152542373" height="110" as="geometry" />
        </mxCell>
        <mxCell id="K6xSPXkN4X1ELBGIaNk9-57" value="" style="image;points=[];aspect=fixed;html=1;align=center;shadow=0;dashed=0;image=img/lib/allied_telesis/computer_and_terminals/Personal_Computer_Wireless.svg;" parent="2" vertex="1">
          <mxGeometry x="4.169491525423729" y="520" width="24.859403148742857" height="25.330931307276575" as="geometry" />
        </mxCell>
        <mxCell id="K6xSPXkN4X1ELBGIaNk9-59" value="&lt;font style=&quot;&quot; color=&quot;#ff0000&quot;&gt;Type: Desktop App (Linux / Win)&lt;/font&gt;" style="text;html=1;align=left;verticalAlign=middle;whiteSpace=wrap;rounded=0;" parent="2" vertex="1">
          <mxGeometry x="35.440677966101696" y="518.67" width="204.30508474576274" height="28" as="geometry" />
        </mxCell>
        <mxCell id="K6xSPXkN4X1ELBGIaNk9-62" value="" style="line;strokeWidth=1;fillColor=none;align=left;verticalAlign=middle;spacingTop=-1;spacingLeft=3;spacingRight=3;rotatable=0;labelPosition=right;points=[];portConstraint=eastwest;strokeColor=inherit;" parent="2" vertex="1">
          <mxGeometry x="35.440677966101696" y="509.34000000000003" width="178.39169491525425" height="9.33" as="geometry" />
        </mxCell>
        <mxCell id="K6xSPXkN4X1ELBGIaNk9-63" value="" style="shape=image;html=1;verticalLabelPosition=bottom;verticalAlign=top;imageAspect=1;aspect=fixed;image=img/clipart/Gear_128x128.png" parent="2" vertex="1">
          <mxGeometry x="102.82" y="275" width="34.11" height="40" as="geometry" />
        </mxCell>
        <mxCell id="K6xSPXkN4X1ELBGIaNk9-79" style="edgeStyle=orthogonalEdgeStyle;rounded=0;orthogonalLoop=1;jettySize=auto;html=1;entryX=0.437;entryY=0;entryDx=0;entryDy=0;entryPerimeter=0;strokeColor=#FFFF00;exitX=0.256;exitY=-0.004;exitDx=0;exitDy=0;exitPerimeter=0;" parent="2" edge="1">
          <mxGeometry relative="1" as="geometry">
            <mxPoint x="-55.539999999999964" y="122.89999999999998" as="sourcePoint" />
            <mxPoint x="85.31792203389841" y="209.96000000000004" as="targetPoint" />
            <Array as="points">
              <mxPoint x="-55" y="100" />
              <mxPoint x="85" y="100" />
            </Array>
          </mxGeometry>
        </mxCell>
        <mxCell id="r-kqNFqlSCn_OBZ2Qqly-40" value="GET HTTP&lt;div&gt;REQUIST&lt;/div&gt;" style="shape=hexagon;perimeter=hexagonPerimeter2;whiteSpace=wrap;html=1;fixedSize=1;" vertex="1" parent="2">
          <mxGeometry x="60" y="390" width="120" height="80" as="geometry" />
        </mxCell>
        <mxCell id="3" value="Google Cloud Platform" style="swimlane;whiteSpace=wrap;startSize=63;fontStyle=1" parent="K6xSPXkN4X1ELBGIaNk9-41" vertex="1">
          <mxGeometry x="237.83474576271192" width="237.83474576271192" height="549" as="geometry">
            <mxRectangle x="228.16666666666669" width="90" height="30" as="alternateBounds" />
          </mxGeometry>
        </mxCell>
        <mxCell id="13" value="" style="ellipse;shape=startState;fillColor=#000000;strokeColor=#ff0000;" parent="3" vertex="1">
          <mxGeometry x="106.17458837772399" y="69.99631578947367" width="25.48229418886199" height="28.894736842105264" as="geometry" />
        </mxCell>
        <mxCell id="14" value="" style="edgeStyle=elbowEdgeStyle;elbow=horizontal;verticalAlign=bottom;endArrow=open;endSize=8;strokeColor=#FF0000;endFill=1;rounded=0;exitX=0.5;exitY=1;exitDx=0;exitDy=0;" parent="3" source="13" edge="1">
          <mxGeometry x="33.976392251815994" y="19.26315789473684" as="geometry">
            <mxPoint x="118.75192090395471" y="209.99736842105267" as="targetPoint" />
            <mxPoint x="119.16525423728808" y="110" as="sourcePoint" />
          </mxGeometry>
        </mxCell>
        <mxCell id="pl2eVLVRURTBmRYClIb3-43" value="Google Server is run" style="edgeLabel;html=1;align=center;verticalAlign=middle;resizable=0;points=[];" parent="14" vertex="1" connectable="0">
          <mxGeometry relative="1" as="geometry">
            <mxPoint x="1" y="-14" as="offset" />
          </mxGeometry>
        </mxCell>
        <mxCell id="pl2eVLVRURTBmRYClIb3-46" value="" style="shape=image;verticalLabelPosition=bottom;labelBackgroundColor=default;verticalAlign=top;aspect=fixed;imageAspect=0;image=data:image/png,iVBORw0KGgoAAAANSUhEUgAAAPoAAADJCAYAAAAKAi8+AAAgAElEQVR4Xuy9B7xc1X0uumbv6e30o94FomNsqi0DAiHRRIdnh5e83DjvJU5iEucmNjhgMLYB2yk2jv3uJU6cd3+xnYdML6IIBLYDGAub3iUkUDtHOmX6zJ69Z+73/dfeMyMhIem0OZJm8xOnzW5rrW/9+/f3qdZxQI9Aavlpnf07cnP9Znm2aZqd/qB/qlE1pjm+Sq9P+TqUozqU6Yv7lGqvVqudPtNX9eEwKoZRNc20Ua6mlPJlfKq6o1KxB4xKebtS5a2+irOtapkDVZ/aWGqvbpz5xJsDB/RAHeIPj/lvHQfCCKxZtuyIoC91dKLiPz5UsE4Kle1Ty6VCuxk0lc9XVYZhKABdvgLHtVfi94ZSVf5Cfm+43wPu/MFX0Z+18Y2v6ihVcVS1YivDqSpftaLKZVuVnIoqmX5lBQOD5WTi+WzQ/5u8qV7K5u3Xrnjs2TcPhPE71J+xBfRJuAIevfTS3g4ns7gynD0h6fdfmu7bdnR7PKIi4YCyywWVSMRUyS4pv8+vqjZArgh2PZWNIN/1Z0j0D71tRUGW41xIbvyr4AIVVQXgfQC6iY+HjKBy8L3y4R6BkBouWsoJ+FUeG0LRKuH+lorGY69lq9Wf+4KRl4YT0V+dv3IVtILWMZlGoAX0STAbz119dbLU/96p7WbgAn+x/Ed2NhNPGn6VDAYAOFvZAFS8LaIcowrpaqli1VLheEwVCiUVNqKQvJDZOHYHZO/1dvc3+Z1hKsBbVYyKqpg+VSHYceBWyqhAqluOCvtDisK+WLBUItmh8iVLlSHtg0FsNFYGmkRVFSD5LXw+Vy4rKxRM56Pxfy/Hkg+GnfBzi++/PzMJhvmQfoQW0Js0/Y9euqw3WcxeHLNLn6uk86f4IVL9ULvb43F8VcoBmIA7kdDRWFil02kF+1vlAfoAJDvV9CKka8gMA6V6GncH5l0lfOPrcnuA1i+HjR/4z8E/DXUq9koFcG1Kdl+5qkKBMDaXggqHInIvAw+IrQfPkVOBSAjf2aoaMJUZCKrccEbli7bKY4MId/auylr+uzIdHQ8sv+ee/iYN+SF92xbQJ3D6qZL3mpnfM7OpP1Wp9KI2AIIgigM4tm1DQgZVpUK7uCwA95kG1GZHcFyyoCIn4gIwqtnZbFYlk0lIVCjfuMZHSfPGV2wEPoFsQvXnQYCXcSEH1+b33hHxQ3XHpsP7xMIRlc/nVSQSUZYNyY1nioTwDn6fKpaL2BUMVargKyR7ZyCiKlYZm4Yfzx9U2ZKjNucKKjRv3trNVeuOior+58UtST9hq68F9AkY6heXfPyqeMT/twP9/SdGYOd2JJLKAB6AToC5IsDJpjMCdB/VaQAl5EpNhza4H0422MWpXFYZVJexCTj4XNDvVwY2CBNq9J6Oj5Ly3GRMbCRU0wluuOEASnjrxN7XaOcGFPIHlB8g5gZk4J5FBxuRqVTQxAaVxQYF1R4XwvlQ38t58SEMD27XGxEceblCUfn4GfyrmCGVtWw1BNA7Ef8qJxj47hmPP/PYBEzDIX2LFtDHafrpJe8spT+fLKavCcKu9kMfT7a3QfW2FcxZFQzEREV2FKRexQLIw7DFy6K+Q1mGPQzpFwI4YH8TrGXY6v5wSNn43oHU90PS2nCE+WFT0zvOg9J6V2Dvqro3/l0kOsBNoLvaP39yrwXnG1V22VRgv8MTXzFgw+OJK9ghROpD14+oBPwIBiBehqlBjz3eAe9aAfDL2BD8eJtAIACbHpoIbuKU4NGvBlQIm1uumFc5Gyp+JFAaDLd/KTi188eL/61lz4/HkmwBfYxH9ddLP708Xi3ebA0PndwVD8OuhT0NHCK2DecW0UFVluEsGuCEFVAv/xr05YbvPUebZ0sTlAJqquu8Di6+Z3m+95cTT7sc2GDogMNzclHo7+vn00nHx+dXxOjlez6b6YRcZ2BFInf6HP7dderhizynnKuvrz9BzYF35deqGs6lAHroBLHEHdX2tu+eds/qN/b+9K1P7OsItIC+ryO1l889ccbJV86KRL7nGxqcFsWCT3bEoLLmoOoGBEQmkEFgcKEL0BncBmDMKkFOULgA2GVGPGCIdHXBJ4q1K4XFgTbCWSTQHACSX318PrkunxU/N4BdS3v9Of35xs0F5oML3sbn23W4+Iw83/Pq1zQH3o8efGg1dO4Nw/fQX4JpMHPuoxsD5hcvawF+TFboCJfImNz7oLjI2nM+cWXYLv7YsFWsLdqufLCpafs60M/D8ERTvRYgi+TcVfbq7BUNpEaJrofGk47eQHkAbxw4SsaRHgJcF4CexiCbkQty/VS7PnP9Pai+c6ORz7laC218bmp+OQ36ivt37Ueo4GfXzHCvy5Ack3z8VVNUfDofVcCnBtPDqgBnZCESW1Xo7PjrJT97rJWYM9KJ5nyO4txD+tTnLjz7imQq9a+h8nCyKxkTr3IVySXwmsHuNRF7DqgSnFABLFagH2BG6MlDExY5NwP8H0CHKr8nsNbU6vpQN6rT/G3tkiOYDQKdh2ef62s3bhx1kNdMBxeg/JnS3caL8DTDuwjehxJeA72ubfB9tVbAsdDynB/hMzAcV0QozgfQB5CB51jw7CNMZ8Pmz9oVtRWbZrqja1VfaNof/kErPDeCmW4Bfb8H7TdnffrkaDn7Y7NcOCoRh5IOkUVHmoNFaVMNh5fZwEIOI+HFYjgJnnQeXOei8soib4hUV+Bw429c0NUlvAeMnR+xEdha8o7GQgfIXLXbe0ZqHh4A+UyCT244ru3OzUBUdPexqIo3aiXeZqGNETgNxQzge+v3YeSdX70QXkV2G3wCDkaCPIaoRCGbg+e+TQ0OI3cgGkZsPqRycGK+PzSsfF09/7i1vffGq1auzO735B3CJ7Qk+j5OPmPg04eH/83YvuWCqW1h5UOeCmQQBHgSMW54zpE6FgxCVUWKahDhsCqkUBRx5xJi0OI5F/t0V3Wcdru/9neBQiO4XKnX+IhiD7vA49fRAF0cby6ABeiueSHPip81GLVtznfgIckz4mvYeeAo3WVPkM9RRdd/DwLA3BgaVXi5nHt6ACDOFvJQ23Uar10sISIRRvQBGhHDE3RawmMfRljOxqaWx4l9pZKq9PT+8UkPPPKv+zh9h/zHWkDfhyWw9vxPX+ffkbqlE7HsZAyxYISa6CVOtLWpbCqrOto6VQXxZrtURGjJj7h4SA2lIH3wecMM1G3wmv1bV4/pdW8Eq6dO78461o/qKb3e1314gT1+hNeog5aS1/MjaO1Dn6gltv5cHeQ7Ow8NT7NwzQ29UVDa603Oix6IUxJ/83seROwCFkKHwQiShfDpfCmvw4rQjCjhxd8Bu71cdpAZiLAjEnUCCDOm82mVDUTf6vN3XrL8sZb9vrdV0AL6R4zQ6rOPPqmjaDzabQQ7wljlTEm1sTBNyU01sRbLyAyLqnwmq8KwMz0pxyQTA3nqkm0GADR6mLWHWg871VgvvEYgEFz66+4eavdOt9Ep7hIQqzlqBKwuULn5eFqIBrsOv9U3hp2B7iXt1MN1DMNRkmuzpKY94KL06tNk0HF6JOlg4JisY6FQJhCCyWNhw0SKbxWgBtQlgciP8aSZwL+FsIFWIdWdYES9U3BUOpK48fwnfnnz3hb7ofz3FtD3MPvPn3LcPyVK1l91dXYIALXqCSkDpzAXNaWfVHyJJao91bsenq3b+HtPstV/p8Glw27u1wldkbt3vu1dX9j5jT2/w64bz84miz7nwzF6/cJ6g9udA7Dhtw1FN9QYSviXgelkmMnMNtN38pJW2exuV08L6LsMy/1nn3HSPFVaPb1qJI1iQdRvC0KlTO855RnWYQBONz9sTx4isUYR4ppQTB9sN4MHP+iHuo/8+2ikS73dP6Ry7Z3XLnnqmW8dbK862vdpAb1hBF9Ydu5NRv/mG3uTERWKaRUyiPiuZKEBzJIP7kqdEGxI7U1uAX20i3Ck59N+N8o6PJdjOS9yk1JWSlXbk8+mfFOXt8pj6yPbAjrG4mHUg8/q3/HrYP/2I6bEAioYNdVgOS12dhDoNirwjLshMEp3qvIBOORoa1YF6K2jGSNAOz/ii0rRjB/1+nmAPBKuINkmpYZRVjuYbF+67PHfPdGMZ5ts9zzkgb7m1FOXxuzy4zPaEipUQa03ijMcsrfAe46AOJiVKLeZn66dSp5E13b16BJWJttiONCeR+oHVBB17zkUxvlUCLUFjHZEYlFk2ym1oX87HHXtXzrnly9+50B7t7F+3kMa6GuXfOq69kz+lk7UVFeY18LsDqSsxhG+SW0fUPFYEjXa8IuDsqnMlUO5Ts9zQzrraDLTxnoyD73roXS2WFYdHW1IqMlKmM5nIMGBU+kDzRXCctliUQ0GQqtOevrl8w+98Wmp7uqZ0z/+SFeltLxHhVQMQE+RKaVaRmYWDD1kYSURuimAOslCKqsFkNPpRlAHXa+7F4Zqqe3Ngw+NpgjCcAWw7hRBiUU/SsQfA8CRaFMtwBPPTJ2qykLy91cDH2yftfCY83/yk3Tznrh5dz7kJDr52dq3bXg9apRnBKGiR+FsY/plCRKdddYVVE4FAXY6ecCWAI87VfZ6CI3edgmvualdXhZZ86bw0L2zeEdgbjGnwUKGnQ/Zcz5szky2YQJOycohFRmbNOwtyxdRrxUr6Xfnzz3hz3760/WH2qgdUkBfddGSRbMz2Vc7qmVY4Cg9QeILSk1qSSKedNaMqFDVvRRRN+WTg+UllXjZbC1nXBMhw+w9JC2R1NI2wc6DdNkgkmw4bzYLjHBUS8ibBw+fbQXUZqNdPe10qNS0hZ+6/j+uf6aJTz7htz5kgH7fmcecOL1o/6YnbKgYVLxkrFsNI6OtEtQcbPSg6zxzHUbz0jb9rJpE2qawokKSe/XYQq4gSdv0yLeOpoyAFOAgpw4A10QYoKfGfHEOLakkhIMOE5hBZWHKjqvtiYXqnc5jB98Ndnemo+Zn/+X2z/xnU567CTc9JIC+evmpS3tKmcd7gmBaRb50qYBSybwPYG+HlocCCeLV9ag7DU43JscE8Y9gp7nHsJqkdWJXKHsMKgB6yyHXhJXr3pIlwSDawk9FqYMP22GAHjnxAW7KtirkwTTdu0C9bE9X6YVnqN8G5qtNwQ6VdkrYBwY/99At5/xb855+4u580AP9qXPPutTc/O7dc3tj8MSCvBA2eSScRIk4ctHBXwYCU5f1xK0wqxVhaHB7NrnH6EKJTkledjNAdQ73xE1Y6071EaDZVIUfxYdMxZCdd+cqKpmKZb+l8lDpnXiXeq3crtbPOEO9FT9CbYzPVplop3DrFYc/UFPN/i/ffeu53z7Yx/WgBvqvLrrostDmN++a2xVXjkmqIoC7SL0cFjp50eGtZbxcq3yaQomHcJvLBqDVdV3V5dWT68801l0f7Itksr6fjZr/AouJUAzTUSrAxHLQOkp3nTHheR/2d6jX/TPV4KJl6pngkWpjbKaqxNDlBhsE2anjKJIr9L2rwpW+Lz3yT+cd1LH2gxboT5177qWhLRvvXtAZVmGo7Fk4bQoIm0XNOOrEwQgDlY7lkKyYouSWYhUhb2xU43XZZr0iy1vy5DnTNmHL6968bYBAzyP8yQ2aQAcnDX5GrzjUsju+pNoSmaM2zjpTveCfr95OLlS5RI8ql7KgnzdVuRIAY5WBBClLVQqbAfZt1z5wy5KDNkf+oAT6vcuXLu0Y3PT4orZ2FQEYS3l0F2mLI3kCpAbhsCqCwSQZiEr5o+2D17aWw75LdZVrk3uEhp4k1xVo2kHX+LfmLflD9c4IsEE7Y7EtutKx0BVhtKIaCnWpTYmj1TvJE9TL8ePUpthsVe3oQNuoMmx4lMSCnspIdMBJh9p2qXkH7XTfO2p6tPClu25ZfFBK9oMO6A8uWfyJ9nxq7byOqAqhkwj37BImNIQEGBOVaJliGhI+pIwSLTnRzV3nmttmFL+VxgYukYJQGzeMUt0m98o0xyllZjd8cR7LSyOs66Wdu69X/yj/gY4seOWhe98sxsMX4bHiMia+u03T8400lgM3ss1WGPqEdx1N4lQRY5aDt31zfK56vXuxeqfjBLUxcYRKgQXIcdA2iixAsMtojDERyoFGUEJOPBOmVCGtqvmtKlze8N8e/sfz/n3vo3FgfeKgAvqqJUsWtaUG3jysPYGkF0eqz2wSGAh4PRpjl664Vtesk2EayR52XdAf9bfRTrfE6+XwNgz3a40AovEOmi5a2xe6fr0e7qtrIzud0cAJp39f3xB4p1rdeW1j2dPG5THR7HqffdvodrsNiSMT84MBB/TwSuj24q5IdHEXjakK0wqt3PGeYPYBMEkgyUzlEDq8cgO2QEGF6gSEQjKqEGpTm2OHqQ1dJ6jftp+o3o/OU5lgAn9FpxlkPfIZyr6AMOb4oMnpccT9ZcdDkhR+V871qWB23dlPfvfsJ0c7t5Pp/IMG6OR0ax/Y1nckeNqq2WEAHKocmhEW5A3BSoqdHBEXca4JkQQ6iYizrcIy1N1Lw4mYqF3ZZDzHnwf8Ojeb94w6kUe2BknsIatqHWy1jcB9+D2/m0fx5HHFNW42u3/zxmvtrz6z6wh7bDWaT4/kG7ZsWt7hcctLZxlmvgHkDr5yPAJsWQX1m4kyedSjC0skOt9sC0xRG3tPVm9Ej1Tvdhyn+gIdku0oqj32Ah62j2Sc5N8tYXNBBSIctAWLJlxQut9U7KIqDLyj5nSkPnbPVz/90kSsgYm4x0ED9GfPXrypI1OYMTcRgbPFUX3ZIRVIRAF0yWfDwtAUxDoxhkAn/bLLZdZkoGtmGU0w1VgR1zg5mo6qbl7UKJp34ZzbddHscYJdyqqdVfedtYkPXWuXcfL44PZNpuurfRjwmhEWjHDiKxF+eI89lqKXbZ0BdlJ4yflg2wWRFOZSN4TMw8maiwHg/gVqW+/H1e8iC9T2rkVqq4oqKwg/jJynn5BjG7SxseN8bi6y4SM0Z4bCaJPlky6xhTwy6aDJ25k+1Wm+3/Ozm5bsmAggjvc9Dgqgr12yeO00w/+JTtSK2+khTByI/yGxmadusxsglkbQAzr7iAnQNU1xM6X57iaXQNiT6eAx2Xiefn5W6JRrcfydIbeztrBnldx7jro24f3GCyvu5kndjWJ/2XV2Bjofnuo64t0oNwUbH8CoG2B4oU6mtXKmqrCvOW8+oJVaGQJkcLyZKuOPqy3h2eqDKWeqVwMLAfaj1fvViPJFwlLNBs1cgO5lNkZILMtaF9EQmEWHHvNR1LKDV76ESrgYesIVcuCVhx8namzfft9X5k7BMxzwmRIHPNBfO//s77YPpf8yiW6fBpsOostHHuqXE8a+D051C7acD8QRfogLTUo4eYAuoBZSi/rhsa82hu288F61QbUlBBkODDqBhs3KpWbm0sbalNXpsbLuYoN7RJTMKai1VNqDn6CxBdPOm4fXamqE8kikKgBMXabK3HTtCDVwE28DYXsLUkcKFzzj3widVXBOsJJWGYRKNzEJpvN49VL0WDXYdazaZEcQICcFNzvPMuCmge3HRkGyEFj7YpejsY7W6Mw8fDngIfCDYhr/ymgPHUE/+mzegrqfUZHs+/c/+O2PXzzCN5w0px3QQH/qrMWXJrZtvXtuPIbCBYTNEEtl894ASP/zUMm4MMD+7/YTc1lHMfS0a2utgZqotntA5yR4IsNLxdX2t5ZG+qD003F9OejAgn/BxEZhsAKvQeiIstows415ALXkn9oS1CYBi3Q8absrV7xH8Nj4jO4j1PIJRrKitW1OEPNlmbjEd9EPLm+Jd6oXEdG+RstmNsagcw4pjdvDU9W7naeqt6KL1Oauo9XmapsyIklVgGSOIHfZBrhtOtloCsAZR7edgXVRIb9AFS2dGZMxQVoB4ZDLFFQ01oYuttAUYBaAhhbsNVUVBdts1Prg2jtvO+6AjrEfsEB/9NJlvR0bPuib39UOFQtMoPms7MQ+qOvDmbRKJNtBGlhAimvEpRrWcNKLtu74aXYKa02VbXCwcY17krPGmEq1tSFLT4edYLtyL5MNoAZTdytwNQWXS77eaUVPubbNkSUuvgpddlv3EzSm9dadf7pves3i1ee50nZXoO/JWberOSGyW5KP2MhCO9xE1QZxBL9auCfVd8lpx8nsZJcKtKttiXnqveRR6tWOT6gt8XlqGF55FYyrYtmSfu4+8MAb2BQQKdfsuj4QfbK1M2Q5rfwSEmoY8fBZGfldEHkVeZCBUgsIQe3HHqGqcNIFbCTl7NigEsb7pz78vbN+PZINbTKcc8AC/ZWlizf2WtZsExUn/M8fRDokVDA27OM/B3HyMGLnJB7QXmoN9Fo3UICdh8c33pTJcB1CtXsz3CQo1zDR9noddF6TBE8qS949Q1KeSi8hN0G+e3Y9JOY1XvAEP8NXBLqN1GABgvsQ9c/Vedy9TYRBMHk899Pi7ReJ/GH7f1+BrqmztQnDPnQCdFzTQJEK360MkHM+TagoRaj3WTOm+iKzIclPVOvgWX8HFWnbAXyeRl4BEzF1gz3caBI5DN0xNAf13yjgugA6TTf63A2sDWws/irMPdyfXPzReAQ99DKSBy+aEvvIGXDoMVXa7leJaesSK/98yQHZCuqABPpTyz75vRnZ/DXdSHQowummpZqWUqKIinddd/nwQM5F7YWj6mpwc73uYvsiZVMkMhan11bZiyHzZwc+hgBqrdmthLn6XPQFdISJwGnETq2s3HIL7mRP84M0I5fLqWgCdirUTtn4XJ3b2yDEMeXa8AxRFZFYFEE6MO/BezGTMAj/BseT92fzBAuf4Y1YI8AEpDAyDG3EuD2QExziOEOPc9YPsC98oYC0VHyeh7cVeBK9VkcArzmZ31BQin+U2tojLpoGgG6iAo1EEk65orKhHiTDHK4+6Pi4eiWBZBgkxgyFE3C8womHkdBlxmwQAQA79MtwfglymGomMiCxucsGVNsQcR45xGTDQhUjN383DMHSZG5/Nrz+PCRik9300mO3Hv6xpgiFUd70gAP6vcsXL52+Y/DxhV0dqox8dSfCvOZ62x/tcNOOKi29tOTSIPdsXM0SIwvQJZgY5TiO6HTdGKKuOvN5qaLKU7uIiLITTB4VGFyfeAkfRBd7kAUQ83XgXAox0gDAMx7MJFBKJmYAViHZBHiQcrUOLPzehZ0XVqvieqYLSlGRYb8SnPxHcFMNziDk1JZECilIGAP+EEJRdF6hTgAkDwQm2x17QOeGJS2UsMnEQfggbZA/AujUkeWdpa6fgNdhLykDxmQaKCMu4R7lQCfKS2er93oXqzciR6hNbUer/kAbqtR0pxduJZofgJ57zdyrMxwJXmo9epy9ERAHJF3y0BJEMxGJj80U4+6ZMbxeEfc2WDiD+LuRG1LJ4rZr7zsA7fUDCuh3Xnll/MjBLZl5UNPT+WEVgNRhH4VapxRX9dU2n6tmNoBcx6t1y2JPDW42L3tVx3/ccji9WOsbErkq0ZYIEjIKCVpGw0YbpbXJeEJ6kXl/I+DYrJDtnwhs+qnLkJQEWQU2q97u3IaMkMLap42Bo8YAQAfDUXwWDivch9ehJPZDslOSV/F7Fv9ksygD9UOZxQZjI+MwjA2I96BGQJCXkUcuySzIHSfA81kUj2AD4MazO6DrTZaPIE4TUbe5SVPTkGaLwCElbKWcVwWQhGwMzFPvTzlF/TpyosTJ09A0quT3czMEyw3DuGsDSO0H0GNL7j+ewygMge5gY2OyDiU6x4TagGgy2BgcXCgIe30onUZpc0xVikiz3b5Dzeupzl95wxHvjWh3b9JJBxTQn12+9CdTU4O/l8AklEkgglgn50jsbBF5jVFazybXwPGyxyjJdUxVj7gGenMOg55mVFFJIow8o+6hXnGlj2RwUbKWYSNyQQLE7CpKNZZqeSgWVwNQ4x0s+CxaNNsASKyjfUc0HF3Tt2PHO9H2zvXoNb6xFPIPB0w7HSyXq06id4hva2b6O6xCwFcOVZNgS20Pm0YbupcuCin/wvZk4tObP9i0sB3RjArsUxIwJpFxyLGT+nw68VAgxI22KAa2Xkbk2sulM1JLQAZWglwaJoq8rR819Z3BLqYoUyvA58XZCA1DfAAYjxKuW4SmsjU8U22Ytli9GDxCwL7ZIaEnmGUQRjURVanRcGP8Atz5OYZcDtxD2PGWjyjzjfu5GhwjFbXNRpyRjN/z/fRcMCpD256hNzrnuBHSYeeArSZQ6nv/8a/Nn9OcVTOyux4wQF+9bNk5Pdu3PzavO4H1XkCIBeohFgcWJqRBQw64Kyk0D3tjial2+jRmnnl55s0EusKi9dEeFKcWFi9BjgUmORpM+oH6HI0iywuSnOq5hdAR7eZ0KqPiM2YWt4aDPxkM+FfBw/zqeSvvf2tky2D3Zz3w2RXdccf6WDWVPj1SzFwRLBWPbEdueQwDGWOpJx7RQm/4KmLbRdj1cdR6V9DqmFpAGJsA/QNi27vHrmCXGgN4xgnLQEV/rowoCcFowEmWhuNtWwylpp0fV8/HT1T9PceobWUfsl3xmdIw2jEhrl6NCohDpHom0wxYPWt5BwJshB5lI9X+GKZBU5IzpVZHDcqubwTlriIEQBNNgCMlVs7B9ailOMiuKeFdTORrVPKDalqgfP3KGw7/5liO93he64AB+tozPlWeS1Ynu4AdFh522G60LQ2osNozXZfmXiy6MQ4tjjl3Z/cIHSW84rX7Hc9R3uO1aUtqiVdTrQl4SCaxr7lRYZENo7eYDZV5eyavEl1dj1WM2J2pjtB9S372wISmZ4LII2E6/eeYmdxlUdO4Gs3gpaY7Ac2iBnBIcJs94amKux7zxtffGexafWZKKmhAJJcgjzBZCf8sM4I4+XQB+WvRI9T6npPUJqS1hiMAKTzjKGMQs42560Ih5dCjrsOmtNm1RBfbwHXS6TUSgPj3GIL4OZP92/FZE4lHUtdGPnjZcqE5ccPBLlJA/wY7dT4AACAASURBVHY6K2m6OKiSo84xuGmrWjTNXvDT645b35Sls583PSCAvuacxd+d4th/OR05yZn0MNIUYUeCypchNe299WxyDXZxzcibadeL2H6u6iaTyKYMsqNrqqhmgd3LgqP0lrwwShTanvBc0+FmYQn254rK6O58MxeJf2cwMf3nk4mX/L6Llp2zoJz/Qu6D91ZM7ekFsOGVJ/+9gBx2MMOcopK7ET93cXpgp8llQlLSY+5DmI/cAAj2oZ6c3vWj1XuoKX+77QS1JTFX7QDwbZgPFmz2ALQKSlgD5gyz5ji39IqLao64uZ5f7p7QgpgoI+uDd6FNTunOjRRFLRKVgebBNUKnXc2hR8cg4QyHHpyRJYRqob1jXjLgG0yrUDSGHPuYitrbXnzsxrkn7CfmmvLxSQ/0NcuWHRFL9b3Ri0oDE86faCAiIRzpqC1eVH3U0ji9HGw35VM7WOpA1/acbsjA74NsluhK+5HNgM4s05RTenOpZ7dpfwAPSQhxD60yanvchopK6U0TRIgwINBzAHsGNmPGNL6bae/6H+fdv2ZMVfKRveeez/rFlef12P19/y1pBr5FFTqOrLIoGyrAhvbXynC9813Ny9XAfOyJLnY+aKAwKmloLptjup58PevJwwvQaaUNFPvc/ABQmNYOPeMANG179pfXJpnMNH6HaAQjE6LCMSMO/g2JPGgVXnfFRZgNBBWSdFSFNx3XYzWbThvWtRF6E4BJUqaDEn83EMq0c2gQAfsd2XZ5M6ky29epw4JvXLbymyvuGesxHevrTXqgv/TpU5/r8TmnML/Bwe6MsLOEY8j0yQmvO1o8wLve3NqbNQCZqjCnXzzb+vP1MNx+Di03EoCX3CaUFn42XZSFx5zsCrjMdOEMhA9UWXyFLWligZTZRQS2t99fEE5ylmz5YQ9WwDaZA8gzsHf7g+HrSlNm/HAySe99HZ2nzz3zc11V5wdqaCA0JQkxSCDDxCqiNZIfPgZueDZKTOnVZwmphY4qfnjeg3j/LDjeNsRmqbe7j1Mv9Jyq3o/PVwUjIeALcKxwlOC84/xR3fey6vRG6nIKME+eUlt+qZ1s3hqRM7TXVkcd5NAbj8Tba2vG24z4C27QOizLLEAhyOD2grnkz1Zmu3rm1rmTHkeT+gGfO+eTy6bkrEfbEMIpE+hMYURWCNMjKixuoKQWr6oOFTUeEh+XQ0+gVh+9ydWhFi/lc3fMLR+5sL3rMDzFXGraftAMTMSEeQ/aiSXs/Cy/pL2aiLarchZShLnciHHbDmK2KKZgLoY/lFRbd6SQmw+/Qyh27Rm/ODh6e/9i6Sc/H7XyP+wATuCuUxHEoqmuMBcACjskM9ldiqgyg2cdarjt61CbzRnqvWknq9eTiwD2I9QWgNwPE4sbqLSpxjiXucG7GoBEJXaZ933dkMbic9QgckiTDTnvfeNXXz/qhrG45nhdY1ID/Z2zPjUYcsodIeziLE+kdNCZYNixUdDBmLGfiRU1I9ADt46Veju2V+9dI2ioAb4eZtu/AfaSbbQZwIPeXHHyMBVT5ASTPZAhZoDGqMgiTKqb+B2KMST+jP8sOHfWDw4rq7vrfxZ6Zn3pQJTgexu3NWed+vfJVOq/96JxJaxnZNxBFUZGI2P1PGjLZ8I96u3gPJBGnKRejB2rhroXqmF44UtQs8v4vMS94Sxj6MuHQebGTdWcmlNzgY5NC1pKrv9tNTu4sXflredv39t4NOvvkxbovzn3U5+L9vX/qL2zSxaDYJPJLnDY6PJgLAIA30v/9EBdG0hmR/GHhh1fp4Dyt3Xfr+cQ278J0NfR0ltnfvmRV83fiRMIh2RXIb2yCv74AKQSq6dCyOLK5TLKJncdVMJ+ZWxMdYSXT3YbfP/G5sOfpp9lWqB6vy81eFgSmYxVC2SdGIMKvOtDll+KUtbPOl29GDpMbYHa3of01VgAaatOHhlxOgfeh+iECYQHXQqpMswiSnZJGx7tA47ifHr2zfKQSlj9P7vnGyf83iguNa6nTlqgv3Tm8dUFcHWS5odMn+xR7mNNMcIwhsTHIRkp5MkB1qCmazDvzNjiAc9jb9XOM56rEyN2rqjal/HWQNfZU7TbEMctA9DQ1Wmr828MEdHxYwZRnpFPC0tpHNLJB2n+zsCAys1b8JVP3vtft+7L3Q6Wzzy+dOm14dTArYf1oAilkFFDIIjYkgTfeu+J6reJ49QOqusWUmIRrnPI0w6NR3LfyT4jpBT0zzBnXYOclnZzgc5UZPBKZlLS8603mZm04bZJCfTnLz73z0Jb3/7BrHgUE43kCMCE5YYEcbiKbCgAjFBD7gT+RguQarH2smpx6uZ381sXJV54rRZvF+dNY8rp/sLJAzrvhaUIiU66Kvb+ItBZaCFqPIozTDjfgtgQ+ocGVDkcHsi2d3zylHuef3t/73gwfP7upUuPjOWzT01LRHtTiJO/M+1M9To43j5ohzSHeh6MIYbOIhtUHpbBw29gQ9euM+0UI4Ejveb0f+gNfOdkqYkdIwgK5P93kEo6iw0qt/6BVbcdc9HEPsO+3W1SAv2FE4+vzuzGpEP6+aDaMXmhxKZ5AGaYPbOQLAPtTktiJlx4Htc61GtSupGAgUNSi6SJR1ZL9p3ppPaUJ7erguhuFKLCM5sNYR7akrZOgGHlFVNaWXDCEJqDhI5CZ9vjx97/u2X7NjUH96d+/pk/+K8N1pRZ7yz4zKytiQUoHkEtOCp0SmB4CaGu3OYujjln8Mxzpuq8CG7OZIatlxnvSog5cSOHtFj2ecPGVPEhwpDbpI6IDS+844YT103cM+zbnSYd0J9fvPjPZlasH6hQEWoR7B8U/jM2aqHggmpcCPnTVH8d2HBiH0m1kZcoU6dtruU6N4TZPkR6wISNxvTZBifdh4avwbnn/c0ri+TCqzLOintVqphwLE564EXDgNNoWzajhsOBvzvriVdv2bdpOTQ+ddMXf3zrM74Tr023zVMdYRBNYEO0YYuXoRmZCL+RgrkkRBQ6oaXWl15Ud13O2lzVnVPM3Aeo8GA1qqLQKl7c+uD9tx6/YrLN4KQD+stnnlyei9gLU1yrELcs5uA+rvOf3Qwo2tbIpJIFIAQB2gPPFrpSasnmekypYVaWWw3Fz/J8oQ8mFLGA+Fkvjur9Xn9tcNa5ddb8vJznlpGS7US0BVEt2daJ6apI4cSCpM8gDMKCMhbBtsE+le7tOPvsVc8/OdkmfzI8zxXXPX/Z1krirjh43gwUjRTgwMyhSiwJBl8CiASQPILwfZD5lckvEtPA73XEw60hb8bLUMhgM3KgZZbBYMOV6kvlVU8yjeq2499rxiPt6Z6TCuirL/zkFdMHUytnoQyzAFbOIOh3LQfVWa7WTBWN/Ow8LHTLJCCDyF7irmogG4thtwoWRAmOEYKYZZdSJ42/y1eq6aQmavDES9EmRoEZ1xJbl8BX3Tfv+eh5b24e9a+6PLMqkQA8FzaXQjmnfHEQLuAZfMjw2bhjOFeZO/VjS1Y+9e5kmvTJ9ixXfe2Z5YP5+CNOqFc5UNtDiRikuqVyyPH3B2NuVRk8NdhE/UJ2wY0dBTSS3agbPzTlANBZhRtA4n0w4qhcNq2i1WSlmn3zh4/e+rEvNOWZ9nDTSQX03y09bmOXYcyOY5e08/S4ApRB0j/B+caKLoAtxPpUHCWmyJExBEkYPuz8QJaUdFbJA45dn3F2eG7guINXntKe5ZV02gnQNSGDABWJG/yclxlF+UwecfxR7HntDBI/vajm1B7oHOJXSvEQOcexKAsgY4i0w5dQyVUyPsvos3IF46jDZ53ygycGJtOET9ZnWfGlNacOV2Y+G++eonIwp1JINGrv7IDdi2xIAFzYWxlapQTH5u5zwOJK6imaTE0EOv0IhSJ6sLOeHVECw0Q1XWqzOmbWlsQPJxHt1KQB+lPLTjlnan7osVgEqZGlqmoLdAuxAkS4AN1Cphmladgi0FEyiN8T6FGCmcozsF4G6KkuVxHWYiIDiSJLAKDHNsoFoeUyQjSQusISypxzYWPRhAcePbKnynvA0Cq7zmvnwaI3FmR0+mPKyoEbHFoIRE5lYHiHkwtWTWf+zCkn3vHChFaXTVYQ7+tzrfjSc6dmjcSz1Ui3Crf3qiGowXFs3MIGBJBrBycTkbBlVzTnG9ths2agKQcFEYkocX9/AKvKQZIPfucM9asp9rav3PvtT06a8OmkAfraJZ94sNcuXGCGwXhiotA/BxIFqO5lNLinNGfuOJNfIpDolMgWQlZUs4OUvPB6OuQzAyNKBXnVJSSnFOHYKWO3t2A7VYMolwiBBDBmq3CsomLtfpVsi6hQHHFYqNooGaM2iH9aC/CIFGTxSKkjFhKrTRDjdcCXRs60EuxIwzLRXxumRdqHAgfcCxsUtvWhWcceO6/zWy+kmrL4DvCbXvrV584ZLLU/ZoI6KhAkU6ubusyut27sXBKfXWzvfw7E2A4QQ4Am8iNsgJwkpfH2uCoNp1V7wcndf8u0+NjebeRXmxRAv/sPzu7qeWnDjqOndkMFRpiFjrISmhPA80oebp07rhMkSPonUTXxkMNmg6QvI3dcmD7xfRZ2Mprgqo5pbWrK3C70XwPLSRs2gXZIYghd0IPg5DzsemgL2AQc/KtgQxCVvsFx5w2pDYCzWyepg1kW6Ul1sfltaBcVXDSP35fBFppmjDdwz2DB/53OGQtf9F21Uud5to79GoErv/rbz/WnIz/qmLIQzTh048UqCCAkhZmFRBJt8ZymzcyLY2gWdXQhpMGiYQS9vczlj4AFqNCfVdPbM+fcecOC1fv18uP04UkB9IeXnvI3R5iB74RBi8TYM9vhGMiIY122VG8ybMXkGGGN0SWELC91zBJKGLergj+lwklDzZjTqZKzAbw2uucx8Cb+RbAQDIKbBRVQ/UjOT0JEdOVAbip+h78JuwsFNz7DBcTMO9c7LyymDaE1+g2oSeqvHD5UVmFiUShNaQ7nAf4YiSG1E++R7LLTg7l/sM3QAzMufu2/xmkOD8rLXnzjG9/bkY9fE2qf4haxcGOmfa7NJ9I/a42rSWq73JodX5k4BRMQ1Yic/yokkoG05xAJJdPvPPTIbYdfOBkmaFIAfe3ZJ+a6ff5ohGoyihkcuDKTICwk7TCMHzeDDfY3HHClAGLoAC75uG1/Xs34xAwVmQGgtZHkD8CughItgkURyOF7LVBFvWOdi/wAi54c4vxHtV9qGOtVbTrkRo1dLyBpqStftUuOJ+jP0DOns7YYzPPTxGCFFamVpDILWgI3JHzShkofMrug8nc9krFm/X/prtmrFpxzR0u13wsCzrv+jRfsyPSPW6CXYlISB1Q3sdDzqBNl3KKmJqCpBnQq7UH4CigjoNmxBJehQTv1ljrc/2rvj2+9qunFLk0H+pPLFn9iTiGzNoLwlB8S1s8yRMa/LU3cT6AZaK+TUymVVn2q0lNQUxbFVfcCSO52Pj7ZITU7iNjaCLcI/5o0aGAeu5bQHqWQANSVCh9eG3vKivM++WE1UQPdZVXVTyEbgpfNVSuhhafYQYzYQV06Y8VWJbCqaMbvmHve2vsOhiZ+44GzK3+wJl4cmD0wVOkMBsDf7kcI1SrlJG8hCAISzV6ztzkbjyfT1/SATlOCUt3L1BRmYlJxV/tVh3r9//75Vy/40fg9xb5duelAf37JyT+cXbY+zyo0NgRgsosPYQqWpVbYwxy22VCpT0V6lZp70kylFkJ6G9vgMd+OWmY26Guujba3Ya7xnTd80AvtEfSW3asyduLmROzwf+08Z+X7e7veofb382948pRUaeZz8e4FKgtiTD9qB1iaXAAbaxjUUixdbtohqZBu4hVz8KHhiXiR8CwdxUPKX1z/3qPfOHN+057RvXHTgf7CJz9WRV8l0AJj0nA4cL4V0CmzFEjDv5VVibkBNfXIdqVmQgl2BrGLp5QZhaccKj06OMBOZ9O85u3qe5vAeiaeZxLoRBseFTDLmNEOlclAMsG285vt95bN0A2dy9e+urfrHkp/X3HDr785UJ75lUByCnANgkwUvhTQDNEzs5o2FgylMWGL0R9QU/Eri2+Y08UZhgGnrB0b1dT2LDLlzmhqplxTgf5fK846q2to+xPdjHtDLSuhBLUEn7lKlFXH/LBKHo7oxEyCuA+hMjTDi0BRJrl/EXYaGteTBZYJE5MZ6FyEu8bkRe1jIg6cixBSEl0II4uvVEAqJSREIDnzse1W8m9nLf31y01bxJPsxhd/fXNfKdTTm0e1GB2kmsm/XtvQjMfV5FIsqqL0RrRIjHSE2uCUIy8B8zuChaJqs/r+7s5bj25qnUNTgf7yaUf+e0/A+L9AWw4yxJQa8m1X8bkhNev4KcqkBA9DYls7kAgFVhkQDRDQ1NSEppllq8Iss/smf82Y+I+65+7ADkhjMYRBdolqPEQQAkgWsuCtLxSqKp6YplL58GMZo+NP5y5/vqnSYDKMJTPnhowZzwYSvRAKETi9MGbsRwcyyWbF0hn2I6Dpo4mQbho0Z8iVhPDBpg0tVTrXoNlGvLBly323zZ3RzHFsKtA/OGcufGUFuxwo+EPTDDXtmG7Y4FDhQ0Mq78AGD8KhgTa2nNAqmEXoZWWvMPLBMb+NqhKj6s10yIx08ijRJVAEPY8kkWxIwRTKADL6SvkSVEESYEJFRSeXtN15Ryl04pcWnLPykPbUn3f98//hJBZdnSuhcwxKWjnvMNWbCHSEeMEaJEBHOJjJmiTuJnFkAfPIDQhKqCoPvK2mT9vS87O/WdK0TMmmAf3Nz59y3MCLv/5NeIoKLjpxqood1oXtL6WqoTSy1ZCWiqKVAqQb81pCoFINoEikCnUdeJcoF/lcKwjFUZU/kIC+k10JBw7LLdHUBOYIWz0zSSisDKg4+dQOKZagmmqjVDdTgDoYmP97U89b+7ORbi4H+nl/851HY2u2zMgmpxyB7ofg9Wc9E7b6Zkl0YSiCj4iSOwwWW2nnhMVJoJdQY0GJb4Ioxci/r7rNTX/085vP/nGz5qBpQP/dn029Mexsu+mIJZi0CCrR/HBmIMHFDiClFDT+VMhhtgrHKxmSfWBwMeC8qtm8zHmm00NU9wPv0DF8bGhMrsMrhCAJqiXdh40ajD9Mpx12OaRWskNIFWph1gojlXfhmzuyC86bd+m9Gw68tx79E5/3tde/MVjs+rv2JLrD4HKy8TfpENIyRAAI9CCzqBlWE9Yi1tGj/wCBbqIDbWWHipf6Hr73plMuaNKj1piWJvz+G/5xysCcI+KdZYC7AvtUdzdl/jpRLUOIgWIFmWYY4cHqNd11g9mG2tPOHPfJ63Pfy7AK951+R902WNPm6HQc9g1nI2SSWuj0X9JqlR10VQU5Q6USuab7/HXfn/CJmwQ3XP7VD8C5CV45dnyVXAsvuUmXI8takZTmeoRjXB7by8TCxUk04mPJLOZTt+dAdR2nFUlcUdRpZPs/UFOj9hV33XjSXePyLHtbahN90+rDVyet0qs/8ceHL8zbO1AQwPwVFAa4/cw1phuIHxqz1vAXzcWOZc+P4MMOe5RN8lj6R4+x9hzXBZMu2BCSS1JUMS2X3HMSxtF0x+xuYsL5U6z2vtqfPW7xgqtWH1K2+wXX/vbLKX/nbf44HHNMaW7WwU2ZXP0ilNwUXcwkOw+Ac0YnTSEqBHUMmZEove1/H1WZ+Xsf+eZpl010ktSEqu7vPnjBMdNKr78cMvp9laROiPFzfCRfuN7KyJs3aWgv0lurRZT09Q6pOF+e3st0a9Zsj+6+uoTWlUJu7rRcEe8uOf5sGkhpLhVb1GhQVw/VXhoKQmoUzFlqR2bGmfMue/zp0T3JgXP2lV+8MzIQPz5vhaagnZNudVVPXdZLWpOCuKXH4/RqXmacaJ9eF1faYl5aJH5PEpQgGjQyScqAKRbBMwXt4VS5sOXjD9326fXj9GgfuuyEAf3Ve0/7897Q0D/3GHA8+oYRLYcUh5AKCVUqOb5Jyu/S+EqXUwJcA73eO03bQGxrS/J+IYLgiQfoUSvBFOYavq/LfuOm6OqGgJT2HvsNP6cZbgl4Sc7wxVSqGFcpa+o1Cy9/7pBR5S+/9bXvby93/oXfj9isMMRqcEs0w1XnCa7xTKrRa1QLICFHES9xRNYtmzhyAzD9ADnmMFcsqEQioUopC73pqmp465tqSiR72d1//+kJ6ds27kDH4PvW3z3zB72dxueVhU6o7GONLKJKlF5zTJG01NK8YLS3Pb5uV1a7gK8JPYmhe3XJlIbaVj8wrXQNYr1RaaB7ddY0yt2EEJfmmKo8K/v4jx/WHHr4PDRDXyCscljkBWPKvdPOenPC1cJm7LOX/d0TczYX2jYku+drBlauAhfYEwV0rjvOi9fqq8LOrCTEYMgXqV+sivQjNJBKp8GBkECOBPwuYAmmuZGM+dXg1rdUZyT7/ftuOema8R7DcQU6QT7wyOGvRoNbj1JOFq1nMSEIkcGtjLpzC+EjHUfmopa04YaF71UfCgwaON68BnraQacrmQ6k8NquEyrNJ9z3E2jLxuVpKdoml41A3HKabYdKDJtMUpWPcJNk7jeq5yyEILPlWS/NWPbWCRNtA473Qt3d9a+89fWXh+3OYyv+pEhuRitkrNz2PbtLUhrb59SmpD7Y697rxMosGnIaVlUeFZhdXV2oaSgiPx9JNXBKMdmL/eSDMF2rpUGECrfdt/o7J14yts+289XGDejr7vxE2/R4qq9ibg2FQf7ggAPMQWuVENvpYnGXXUYYPTm0U7Vkli6ZnkrEnRFqvbfwdcMFqu66mSEPH4sKGjaC8Rys8bi2tPt1Ny3PXtc0xvpuGvxcM1JPK2PhVcjJuAn3Hau5kI2FEFwV7Xxz5Z6Sr3JSb9f5P0mPxzNPlmte8aWnLxsMzryrEu4VIlCvWMgD+nir7pwHvQ6pibFslqYCVVRWS+p1yzyIchFl1Xg+G0SnQUhyEpKmC+hWEERJK4hUjHIKldV970WmbTtu5TjxzI0L0AfgWU+oZ4YC6IdJmvOCVVJRNNYTDmy2zBW7xQ+7Ba10wc6hQU4CQA/omh+Ozg5vwLi4BOiMPbuc3gcL0OtORs1V7h0u/jWzFT3xyJZjn28BfUM0QlhwuUVi02RATgXbkTHWVUmlZ82ZeflTmyYLMMf6Ob545zORl15oy9uxmUg6YgkwiT1pGpLhD55vBNmpMOlNUw8inb48pJa95jQb2ZNpoOtr62YgBDryQYS4hI083AgK5ke2aNjmeSuFVOcw+EnIWMRUXnTjRQQlgfyRSnrjtuisgcPGA+xjDvR1dy5tawu/M9gVTkFsQ6DAWUK7m7ncwuTixonZaVTU8MYFK0NWX+i1DhyuxG7shuoFVQ5kaf6h5cUFUkO51mzqhztVDdqLZ9YIeaKMG0cPmXQ40cFYW6qrmk0dNftgBvuKv3v1/mJ84YoyxoBxiEjYgLqM5h8wY2RjZChSEIkMOiEZJVkoTUZUDkIbbIx6jATuNcW9wdOu50I7CGUbqM1jgz3v+lj8eC7ShTPvy6Fdr9Lp9s63Zow12McU6Osev7ItWXhhsC08iARA7GxC26RTAW0MMAkhRGozTIQ+W1KTIrb5gelMG8nCGOtzPAee2PbMj2eyBhlT2Q4Kks2qzK4WKovmzFj+2Adjfe/JcL0rvvryxVusrnvNGIhISDuGZgqU7pSWDgpKAnTQUTukYEG6aikAJiCsObbOGgugj2YMxEQFm5INkxa9dlUwEUZ7pwyadfZle3s2TRtLsI8Z0Nc9vrQtWH1lMAlWxwhJG+F0Y5ONClQZsm/oeLC2thkSMx2t2nBBtoA+8uVCHUC6zqD4RY8uM+kY6oGtyGQOkFsU7d6KXT2p42C02a/88tq2baptON47Cw00sO7AUpRNZ1D916ny2YKKoE6C/HJMbOEaLAVABkp65kkCdBZlBbAxpeGcDoVpr0PjKMBxHXC2BNveWTRWYB8ToNO7vmXN7EI0sDnE5gtOnh5FtNTBwzN+RvXICyNRueROVgd6o+dy5Av+UDxTXBjSaIKFHboOQBodYKPV/OdVFcCGa/i71HA2Vuq4ZJ2OQx1kx8U3rRvKmMn2EjY7Ap1NO1gIUYYDGF2rXX8PWzihkgyaJW1oP1R3+oC0+d6c7DrJgJTeApjDgE8VS3kVg/YRZE07NJB4MPf+vV+ZNmcspmvUQCfIs08c+6JT+eA4v5kCF7tfFQh0JgjhRai9MyVQqjcIciQS8KYmilS0RD9Qo+BjMfyjuwajF+xIwwVcYREAx5WxN3awYecQ/CpgIRWzCIkPJpt8pevl2LmvHj+6u06+s6/42ov/PFzp+vNQ+ww1DGkuzL3QcoKQ5hXQh4sjjPUB+FqWxA0CnW243dTjJgFdVj61XvDLWRCK7cl2lUshNz6YgDoPUpLMAKJUA/etvu2oUYfeRg30vrsX/I94aNufhCMsNQNHjIX+5fgWZKhockAoY3eVUAN3TlqQzHmltNGxYjqPWsdIR0CnxnKzLMP+5FcCnemxPiZrYB0ZqN1WAdivpZLKsBiuY969HWe+fulI7zgZz7vqutWXDAfm3VMOIPcdcWp23mGooggVGMzhYtD4AHQpIUXsmqsuwGpICiJqRU0CupiseAgLmImAHpr04WzaaJfhy0ISUABVi6VcWoWcTbc/duuxfzmasR8V0Lfe96m/mJrY+P0qyBsrYDY14PGs+jM65Q/tqOIxeNylswq3VNAvS4xRA7xWkSZJBq1jRCMgmYEMGTEPiYQcWnWnFz6AXxr8BU0pOKWYqEG20gI2gv7ynL+at+Ll743onpPwpMv++0NzMuG5Gyqh2aqM8KMf6iQ7pxhSAaW77opEZ1al26ctADVoMgAdslxFQjBzcwS3XxURa4/EwpDw8GsBLhEzovIDm1SHue2PHvz2yT8e6fCPGOjr7jz92GnxD142yltUKAqwoolBPp9SUTRPKIDHYCO7HwAAIABJREFUPIAHrJQROqhAtLM5npnWcXBRl3TSjAh5sVNG+viH9nmMYBjszU6JDs2JabEskGQXkyAzEGHvWfijH+qVDwUVDpxV7EeXqh6u3s6ed9Rpl337jYNlBJdd+7tqNX44qMFB2sF2WYipmVBpHPD/yzqDIJLwI9DN9eanRJe04uZKdDLGCnkKaj4kqQZml1XRHYRDaCNtFEC6gs9khj9AD/mBEx6+5eQXRzJnIwI6w2idzsvDMWM7whccPxA0oqmC5rZmVhCpP9DuVuwgLkY4QAzUnePhxZ4E0JHLJdKdnTIP5BTWkQz6WJ0j0tvdPAFvjC297PxnY14Yk8UnkClXRDMJw8irSDyqssMlNWAf/k9zL3rjr8fqOSbDdS7/+tuvp30zjrTR3ZQOSlJC2wi1MYguIe5JCHQZNyZAERFM9mEYmhiRpB5NaOFnZyJs2tIdOL8p++StbGiw/8eIgJ5affyqgLPxXBOLx2TqG3dGM+961xnqgboOVUkqz4Tp2q3VhfSBjwEvhLRA2CCs1vJD0rSAvv8TxzMokcTwwSIpS9cYEleAfgo/o/2jXLQEjYo2ayBUUYOpInj4Fny3Z/m7XxzZHSfvWZff/NrPB9Ssy6G+CNCDeGcH6judlBrodcopSvSAW0PQTIkuyWMN9ewUktys5XmBGz6nDf09Eoorq+hTSXLap9bdd89tx+23c26/gd6/6rhrQpU3vhcOkVGDYTNdYC/2t6QVhrQ6ThWSjDHSqEz/XvqnuUUZWqJjx2pJ9BGjR5JlJH6OcUXvL1pAYipx64WWxSYYtOHLsNF96DWXrcy+vWvZW6Ny6oz4Ycf5xEtufv36HZVpXzdgn3P9YRUK4MuU6HLvejnzZAG61LNT04C67piI73PPBi6kcSPCVXTWmbGgSqVSKoH38sNJlx3sw/c7Ll317dPv3Z8h3S+gDz/4e/N95pPrkvEdUn2DhB4ZP83wovPTpUk9cY90vloZBmsvQIMkzBvS41p7O3nQcdSS6PszZY2fhZqOxCMZSwNhJKxgEwuHG6+XHUc2GsNIqnSu5/auFesOSpBzRC7/+suXbC7PuCcYdYFOIxcHswP1t1ysbiEU1ulkkOgENKMklORlVrIR2MK0pPvKEeh52OvBELsIQ5pzYwCGioMbVHdgS+/KW8/f555u+wX07KNHvlLKrT8mAZbWQAhhARSoCMGLe5VaxVUtH1v/XcZYqJCgloiySZGve6O1HHEjBbmWUjoRSRe60KljoJCD1X22WcQih52K3dhvHHF7fOmbBy3IORKXfP2VM7eUp60JxZHDjuUVhHOLJb5lOB+1UGE/Pq+ghQ7g5ofXJAWWZi/+X2bZMb4Lg5GGvy2DUIT+LBbJxPBO2VxKKMR8AHwI6nzCV3px5Y2Hn7Cvq2efgb7up3M/Oz25/afhNjB6oLa2WM5IVRW9uDw0YF1gywbKRVgndhTRD3tE8o7l1XS9boUXOYDLTPd1oMfjc9xguRjEqQnHp0STJDaMnG5QG9m+EMI17bdPXbbloAY5R+CCb75+zLZi9yvRthDyB2BQFtHiCmZliU07CfAap1s9U07Pibbhm3Nop5sUd4lvBSYHKtn4MxPJBRtwKDqQ6j5EEMKU7AB5AD6uHZsG1My28mUrbz5qnxhq9ukVB5HHXrFfG24LZJCE7zp5ANpgGGojHkQvMK2+C6EhJIrQIImVrqvUNKmjpkBiQgdZM2WflUKMuv3UnAE/MO/K3G1HitXRHwTuWuZ0c6zLmAsH/4q+qbDJ3zvoQc7Zu+xbL818J937QVsHbFksQ/QEQVZZRJXYxZYNO2HaSMYg16iUQDOJS6ubzQK68MK7dNEh5j0g5CfZjnxK2cQBbGT35fOWiiXg1i6lgCMUh/GzSGsO5bcVHv7GLHJp7fXYJ6BvfXj2/xvxp/40goKAACtNQXDggB6Ghf2AsWtjc+BcoMO7TnZWPrR2uukB1UDXINellaSOGiWLq4TzaOc0OltcFU1sMi8Dr2EzEbPB44P3PAl8xL1sOO69dj+q7ka3xyH3ru1W6rnJLp5lww2vXg+gfRc8vLq+unmkr6NjwLTtdM9w+EZlM4Ulh8Udh7e963td5677q72ugIPkA2d9460Z27KxTZ2dCOsS6ODID6AZBj1FkvcvqddSre8eHMfG+fZGencDMj6CiHckTyId1mFs1BSWbP6g2QV0pqON1HF2GLastIqGaY6gPx+Xrtmp7MwW1Vl697b7/uGM6/Y2jXsF+vCDi+eHzJfWVcJUtWGbsxgA202VHl064shu6e6ScjPGdWvg00uy8RDHmyxy/dtRSXN6/d1aV3or9b00j5ekgXLI3E2AdMkylTwHMX9GDOQQ/4FW5/SGRBOjcVNwASefdznYd7dYamQQ3oKpO354zVptvbsZsjZf7saP4Zs88rMdFKaQMYe5CQGoaOR1r7BTC+7LnV+r6EhCYtiShHt4pgJ+Hw6DdCGDJn+sYgu3qy25tu/NvGD9IQNyTsfS29a29aVmDHcl2mR9stkHR9iBk4vJQiGUg0q4Cs08hZdQ5pNCivVjLvcgU7RlXXpS3hNC9TXBkLAsI3cNjDZ91luTUqMgd94ZktTQeOhiJZejThBHVR+U36mtavrMbO/Kaz7+kY65vQI999CcB8PmpgtKcL7xIRi+8QlzBwaQCTKe+7y2+Cfwm0bwSdGMdvRJl2qqaWQFlYnhRMEbzSklO43BJHxXotfMDs9XUCcM0PJUA0rvCNrx6HZNk5231jBA/uqCuyaHecKukkN/TiaOXlZclgvPkrp9pBEztwA2ph+FDiK18QFp4+DGV6mWUmIJmQLvg7ZN+XxeRSNQU9HJZUeu83szLz10JLm32q6+fSD58haVItCF6x2bnkQeoIJy04/Sx4W5KIF6WJJSXGew109AE3RpIHmH1rAk/9D9lYaL11vAWw8TuOJ3upVoBNjwg/n3f/rkLUdf/VHP8ZFAH3zm4mP96V+/HDb6kMBDj7m7aKF6M/VS/GgiEcdHtdnrALoA1JTQunhGJ0Bo+t0arxyJLpAwQWnJgzYbVaZ6OKOuvguca6EAbBhM6HHph/SftIebxQf8LNlcqOlImJBeCdEOOCY695xj5tEX1UhIxClJe4x56jpF04/n07u67lSj7TR3Q+Dyk8QkXhZhNMllZ4UWfg9JZYB0M4PTstUZt09fdvCG0D5qPRDoL24Np7qR/Wc62EDJsw6HL3sH+LBIQ0wJZqskAF38R+ys4l7Qc2J6miaFAbdzvbV7Xnvv7pplv25UNWnte0+AxKBC/9tqQXDTgp/eduH6PY3RRwJ908NHPZwIbDkv5EvD8tMLnIPErhSUmvoVXQ6zvaJyfD7gMdZINRwdLFz8mCjbZHsc8qZSLWMBA/O964D2VCI9pzVLuKbS6d+R+0tiB65mwLd1gS4mAZvs6c9RexCQC7pxH46TC3KpxxeTxvX4ctOhKUFJjvN5fUocg+o4JQo2FpJnykbEBSmF56TMZUwYHlhqK65NXsW1LF9CDap2gPzQcLztbiUJ0LcFU13xOKYOIShKbOS529IphXFzanQBMOXqzDO/5MB7pphHs103ND0p3uio0wQp1PCYCMan4M+NGuD4rPGPvCqLE520Sjp9D6684WMr9hvoWx8++6hg4K3XAv5hafIeYjc7SERLqqBYBqnrynXWW3Mq0DSNUuOOymfhzk2NA5lG+JFuN34EnJuYFtq3OikhqAnkdYyVhSFcEPjqWSIywa5k9pGvm/ei7afluP7HjYT1xNzuGMemxuCyfwp8hX+dPgGPRYc+A00kyH9MWbUQ/uGWwPip1gSksySuC2lEoHu2m2gq0BIw1nDNIMcdEks2qaTqz/fcPv0gTobZF/gQ6C9tK6Xak50yjiwEodFD+ijZnm30QsNY8idqbGEfPNhYx+ijIpEhbXs38Oo3+Ja0lqdBLmAn96Ec3OCbCXRWJfpULj2ArLm0mmkMQ6rvvvvLHiX6pocOvyse/OAyAz3K/ZA0bHgqgXyo8GRiZV15s4EuT+QCnSAW65nmGRsUspCGgBGQU8WmMw4TCvuNQjhILjEBEYHFk/CCUPdEMcB5NaucbJ6uqi1NFijdpdzW89zrYgSP01vMBzqB8GGR5BirhquJdNaModSM3Gx13J8SRpMYBl3zw2026Tr5yLcn6iQyDMnmgenFO0XUcLEDID/44+R7A/vVtz+XfG3r1FSivRdletUA07OEGhxAh9cDGlAcQMdaoH8DcxhWSEDB3JTg+6CW6jlhPcDXQa/vrCW7B3auF60F1p2se3vC8fg7ND9QT3V0tgltlpF57z8fu+X4z+7uTrsFOqvTuo1nhg21GWYNs63QKKCkdy7Hz13S807S1uEoNMdO0UDSu6vPielsJ/pa4XzR+ff8O3twuSoXYSpVTPwbqKap/loxzB/BTpUZOcfMAZD4tI5j6tCd7swp+wFBzZ0cwNM5AfilbPk6H4DdZuqquvaUisHAcwXgDJF4XPV1Z59ebPraWkvSqn0Vm4+U+bq/ZycQG8kxpNksGr2Ikx/cGW/7Co+l4I4bqkwZTrZ3iLnFDZkmZpn+JFBLBbFhm4yp0/sB7TQkbasRtQggIcW1yRsjLjJX7ryJxOAyb3gYT/PTGl6zDmoXZKehpYiNLL1JHTd7Q+KHu+GG3y3QN9130teTkdevj4RyIrcJ9BDLzrhs4dxgTa9nm49/N4w9D6IHdFGdUS0nTjKtnOGoN98ThQ3pg1SVbZAlUrqXKSEBmmqpc1VVxdYC5K/aAXNzyPJvLQdzcMt3K1/c8RWHrJgvYPc41eLxQZ99XFXl/sSAmu+HBkCm2xDVaCncoSR3e6WJekd1XbPeyr4iQCf9sM4OlCFsUAe9PmseoFkEJJlvADr0KL25MC/aYRJIm8r6em6fuvylQyIZZl9gREqzZdeu/dtoNNGNLbgdselZjmGek7EKpg/mZgj5/qYRhs3OCj+mv6ImA5NQBCGKXs+ub8XdbnVhluthr2FZY8BlaXcfi3PdLLBjTUDooj8EBDK61eSHVbu18Yb7v/Wxb+w6ZrsFevaJ+eCq24Yyvzx2Q9YBwYVPugt5S8Qh3Z7kNS/yvszEOH1GbOcAbGGUJCKPRxP2Axac1HIJzw0b2CTZHnK+SZpf8XeqXCXyj2nVdc+i85761Ugea8Pa5dPs4f4zYoHMV6vWliM74tg48pjwsk+F0WuL240BlZH10NqfoZlabfTeCmLRyXYE+iA2r+A2QJchl4928FAzoNqpvb3QLcAhBm9xqoBzce1wh9qaSRzyNvm+ztsf3HJ313YrdrxfTb24YEU+n0M80oi1w0JC1ITlrNikq3DeUaUPgqDDJj88IhkBZKRR8pNw3aXjq/lQdNq2V/ZKcdo8oJds0FuDoMJxwlLybRY3Zx//5vwP1ax/COhbVp10Wbz6yl2mWVZRhCrKBW1j6swi2qJYgJJWqJUWHXfUUmuiD4Kc6lixmFXhNtReAy9C9wvQ+ZFoEot0qkKWdgxqslXXe6Vy4K+nXPrCfpX37e2d1j9x/pxs6tXPt8cCX45B+oarADDSFJnB5AfnFymv8yDPY8CMDCLwnWg3DwsUWFmF5ySYxf6X9eJGdN0qvxDqqwtQMGKhpLJgPg1YbbdPv+jQ9a7vbT729vdPf/GZkyPdHdduSRUv7eqaBq0MjR4oALCW4KHBBg1Jj6Qa2r6cKx8Tl0S6u9WZnD2GTl1n3WgbQOzteT/673gKrHeSUpQtZvZj7VgDWINvn73qG596svHcDwF9+8NzH+5ODp+Xz6RlIVICiVwRB5ze3QgwByqwhKhqjqnRPfJIzpastzx8pm1gzbSGQJsEbyt6kJmYLDa3s5DcEwjPtQZSHcvmXfbs0yO5x76eM/Dc1clc5q1vxdWGPw1XB5WJGvAgCDNRbMTdB7nJuitIqVSQzhxBtKViogsTXniQflgkB9l6hB6KjLkYeaRoh8Ix2GHYwBAn71ressn3dU4+6nNX3v5wT2Zr4h8KVtfvh+PTAZiwKqCllQE2ySJKsG34eSJsFyYp2zqRxtuIaSKKVMcx2sy40b4LtUFpQEVOPDiYQ1hzlczrDzx28zEX7RHodMJ1lH8xHDf7sMhQHBBPKCenO1vQ004lk50vakCnHYx0Uu2BnvhD+qcjTOYL+rGjZaWnVR5U04YJ4Ptgx1qJv5h2wSs/mMgny6w++6iy9frD7VF7jlUYhEqIMcOC0Q46jKPb2jcE1s8SFxTFBt4jyGZ71JlYFMR/9N0D+CbKLW2VQJfUjoO6nnwi56jxXiuuf3qerzLzXscfPc4IxVQe68kfi4sqXwIFl65AoIO3nh/n+ttdoDfryfV9CXTx/MOPFo6CSNJCifLwm+q0ns3xv//b5WBk1cdOEn3bo2d+ps3/ys9Me0A80ayACiBQwViw9E5jgIrhCYkXUx0m2Z7bPbJJ7ytJJTQjLKrrsMuhVpXsKaUdxaOPmHfpvRua9FhqywMn/kPQfP+vk3FkslUyCoIcmgbswFAElNioQOLuCw58283Wo+LoE552OhUZJmS0AOeAGWZHLnn71BUtdX085/Lcv3j6c2hi/qMyOPaqQTjuwgA7VXS3lkNLdM364h2NhVTj+WwfdW2ahw45CJgjAN8CtUc7s0nNCm6/5P+/+dT7dgv0/oeOWJUIbj43YIAEHzHaKnY3KuyU5g5sdg10ppPWQ0RNbanEFFEoFUW0oA2a4NUCIaVltz3Ucf5bKyZDf/B37zn5kkRoyz3JcAoaOiYDtrqUIUIHLMAxR/vKT2CLl54bKQ5628lvhpReZGirjBVpOd4mCEUX3fD4CVVz+jO+cHc4A3+Iz4/Qay2JhnOksysaO97Wc+km6CF3uY2D+nU6ek2YHvQBkSM+RL7A9Kb7H7n1uIs/BPTtv7ooEcq/lA74hqGm5BGOgEKOxViB2mlLY3ntdGPcWHLLQWHEr4w5N6t3mk43gbMNm0/R16MK5qw7ppz1mz9pzpDv/q7bHr/4WGfolZent2cxWFDlYbSbCQTlpPYYFL9SVeUm1rgZVzaZUZwOlfPNaoXQJngyr/zBmnhuR/c6x9/TW/VRhWeY1i3BJgZcem1vzTc3YQYaInw/ReCUAdgq7I1EBLphLqusfE796jvzaxp77ZstT5x1eqT0wtNRSJ4gU7RAMEGV3SYVj7yo1/+ZrK30vuumfrX839FMCHfKXVNZa9fzdtL6DbwSV+6uDlQrx2hX24vT/mXOhW/8P6N5jPE6d8ejnz3CX/zNG20JtJEuoZqQkQELNlU4gvC9W44qUl0n94DCH463OWCGaTnexmtOPuq6jMmff+PL21Sgt9dGirGDvAsesiFLzYLOjJNskiYli3nPX4UfgQ0r2JKmBI2R3VljoaAaGhhW3bH8WfffuHCNPLt3wnsPHfmP7ea6LyboHEJsjnXQvIBVYVEAaHmEo51k89gAyJktKaUMb42O900Hk1xKKVFd3awxL/WTtivux1i0Bbd6hP3zoKKU04h1QjKm8PeCb86j005/79xmLIp9ved7D5x7Zof/7TXJwCCEQhrmEPIRMHYO7PFwJKTsbA42PNTFUEJtSke+P+uiLdfs67Vbnxv7EaBkL23v7isEZ0QLiDDRVRrkukPYjXVNVhkkLPCx0BncLPVdC1zmaLCIix10WW+BRpP0wsPRG6pu+/a9X1vw5Z2Avv0Xx1RD1ptCK4uAraRYllg55WcNOmijynQS0RPHYhG0bEdaIe1N5sGPJl/AzbfTu6QAnQUyzF5i6I7EeYhHI3mhXEaMGkkOFagpaKmlYl1RNZyxVCrYs3Hu0q1zx36qx/6K769a/Nk29c5PYygUMhCf9YEwgoskh8hGDBGDUpm56z3fn3rR2y2Qj/3w7/cVr7zuFz1D4en91chURNnAa1y0sQYjsIehJjMhCo0RWejUTKCTPoxFEjbCsmRrYranH7klfmA4XNnaf9/XF0ypAX3bo38TC0cfzvpL76BKjXzsOAHedhbo28i2YX52AEAXlRncW0wZJOne6IHuMa9QbSUpHtUh3WXV46Azgw5CZhUQK4AVs4g6bKGoYhIaklGNKSpdPnb+3OUPvLffs9ikE/oeXXSP33n7ks5oCO2l4ZyjvwMSPQvJkDdmf3/q2S2QN2lqdnvbi772m3O2DJuPdU2ZLfnkCn3VmQDlQ/tlOlXZSaVZQNcApvlMXoOSEJQYYI8VFiI8o2n1q4UzYsh9782K6t6/5srFduGXv+wKDwPQ7M+FclRIc5IPMvFfgG6js4o07aNaT4k+VkD3uOZ032pdSOJWeDFRh/ni8BNYeZL9oTABUr1cslUG3w9V5v7lwvN+c/tkWhh7exbaf9ufnF7pgmZULcBmZ5TWn1RDRncL5HsbvCb9/bybnv8P2+i42ufvUcWsH00QYxCCjJcCH8y7drPkJvzxiBMyE/E/FGlJFSWYf6WjLnrDB0o7VLK64Zw7b1uyWoD+/gOf/HrM/+71iUAKaXQwgpnBBbe9I+VdWjUPop5X1ARIXmbJ0RMvxSRSrDHSV9Q2BS+AJrdSiab5vJgpJoWGeA4knGAvCAQ6EUeDoyqdUmZymoJK9f6U09fOGemdm3nehic/dVlbef1dUTODd4upHYW27/ee15LkzZyTvd37km++4eSr3Vj0oKpCrBpsbapQziNsqpl/mnJAALNhB3Fooz2aMORAwyDFBiV6oDQI/vf+m/7jlk99TUv0R45/JObfsjxUTaNAXzuJKkGgFzxxZTjjCGS/DdtEOlCSbIFA9wgXRgl0t3DfRD02bX+20OEhQGcuO1wDhUIJRAIgw6NRgaylbCai+ozjzlp47kPiUTwQj8E1p61X9vZ5th3+Ye95r/75gfgOh9IzX3LdmksGKtPuibXNQWiUyWSWCsdC0C7d/IcmDAap0byWXBUwD5FRiX322NEliLbLfjuj4sbg6p/edNw5AvThxxaCQ28bqqQYVmONOVRmUJGWUY5J1d0DOskVmO9ep1DSIB+5RBdI67g8NxcyflCL4G9hC/FvtNvJ4okEIClNyw1bqhRa8GrXBeuObcLYjtkt1635o6W+4tY/nH/eqv9zzC7autC4jsAV394wkK92deYtOLuwIOmMMxilatIhvdsgmFluS54ItOyQhF0h2iBLLBy+1VKq+OTN0yK+6sMLQxkjW4wFYXNYKEuFji9MqZDoJagmbghRgEfaHC+WqLnSxgLoujabdgUz8Mp+XQ5roO5aNhYAvIxQRgi4r4DQ2kBJ3rb8YWdNu/ClA1aaN2ldtG47yhG48Lo1Vwz6Zq2Mts9WDnLKGdYapZQb1RNJeI1kwsx1AR4JdGaywlOI/2tbPT00qI7p6Yz7Ck9PmYcc0vXIEIdHm/elzk9pTrZCxObcThJsg8xyPqEglgIN/U/zn438eem5l+INcjhBottItaWN7gHdxM5pFXOoucWuhXuVVLuKLdvRvG105K/aOvMgGIElX3un6gSmYc2i4ykBJoSezTkE6C57ZY0ZqUaLRfvdUPlUTvX0tM/1VZ/s+FSpXPwV/OwIFVA/RtiHAXjmXpPm2E3iF6C7zCge0Gml70zOuP8vTNYXotZrSEBGFSkWIAMI0w+RORYIwyYqov+6v0MNOj03Tzn37Rv3/06tM1ojMPoRuPDm125Nm1OvFbpveNyZX96sQwNd371Oc+5lmequrBaqOeOh0Nk++4nYZyu29VOpzoEnnbWtjGbb5G1v5DN3U17dy7qJ/aMFumZClQdmP29h9OJD82m8DQCZeRhQM5hQmWKH6s/NP2zhVU+926zBbd330B6Bc29afdxgefZLyfYZkEEeK3BzxkR8Z65CIYzggh2taeuQH/Lei9yMwp/zOY9Hbq1UnWuhGEuLJVbCOEKVS+UfcTq+g+TzNhJAehejiTIaYkgNdCmWgVKu+dLYMkc3YqAqH2B/b/4V3TGd8FEqtvR3LbW9OeuqdVd3BE6//qWq458CkocuEAVJOUlTxkYEpMtboBPNCPR6e2jilpuR6Q/c5nOeTP4vSPTfp8eb3jvdfUXXQlO66+ocXb2mmS/rIOdPYwJ03lva4emqOAKdjQ3IthIi64eU/yfU5szMu2dd+urlTRnV1k1bI+COwIqbf3t/xjdrRTXQrqmmmgT0uvQmLBmlIiDJOMOsd1ZFMk8FmrER+p+w0dtXl53y2dJ9RXYDqM/iTCTM2cZI0yPrqh2vXZAgXF/XJU4YySrQfgRNj0wudmkeiMQcyvci27YS6LDRWSFkoaIr5Tv2mt5znvv+SO7VOqc1AmM1Asv+4sHPqWmn/qjoa8fqRYitiUBnpEoXsxDotMtZAKYrIsXJDX4DEJqs8VWe7NhgO+U5FWlg4DUNIIABdDQT8ALyzFqrAb3BzT56oLsdUZnVw06iZQLdr4pBdowAAyo4u0o5OOQSUbXZWnDG7OWv/GKsJqx1ndYIjGQE/vjrz575jjVrjR2Zgmh18yS6aNmMjglHmSbJkHxV6QOgW07RqQ1L/i163TeWHWs2JTqBznbCItE9oDNzDRf6ENBdt/6oVHdxHNT7lHNToerOBy4hAYDaRZASHTmw6WxRlQKnHdZ77rMtR9xIVmfrnDEbgYv/+ulZO0Jz3vclZ0qHnWZJdMlNlR5zjFK5HYXcVmG6mzCdcmyO6uvz2U9Gtlcqdrennns9JGmh8wK1lkeufe7q67sQRYxwDKVHGh1weGRSKDHPXqwC3beVpJMsByQflq+I8rsLlod8vpW6/WjraI1Ak0bgph+vCT/y9uyCAaCzpES69TTpqDHduCa09lRLL17XuhYfW9ZnPeHR07tPOiov+n6+LdsaSTAPB1QP/kTNgXaGhA2wKzG1jxxq/kJMGVOvCvpOvMPtJLGf92p9vDUCYzgCJ39lXTWQnAWJTjroJgLdfScv9uVZ1fVOQPKBBqBPJMC9AXf7l4kV0Ah0SHJJeZdMOXrTj8MjAAAgAElEQVQRkZFXQFHNlM+2gD6Gi7V1qZGPwGlfWV81E7ObrLo3Pv/uMvT076TotCbRmwJ0aUsosfMK+3+TrErCA4yf6+C/B3S44UHhdRSA/kJLoo98fbbOHKMROO3a9yDR57hed8/PNEYX36/LfBjgXgNIUeJpGhtIlLVWI4m8iYeuamebJ6/LKZwIDLA1AF36GpUA/+jx02Onv7C1iY/bunVrBGQETvvy+qo/Pgc8f/S6NwvoxE5dauupcZV4djGSnBjiHJFp+8lAP/Lye5o1f3Vnn2dlNAId7jhhtsDf0KAho044snv5C28261lb922NAEfggmsf7Bh2jhn0J2ejeQh8w7XI0USPjwt04Vb08EMPvNR0y8OA0IhftkKih9fjx3n1R5zIapzG1Fr90J63kM4EqiDCKY9i+ipKVIcrR10y9dxXat0nJnpYW/drjQBHYMUNTx6dsha+GkzMwholBVrzJHq9p4IGeo1n3gt/69++5SuvjvwSZMuLd57CiQJ7I9B1sg7b3nAPIj8dmzgK0EkIiXj6kH3EzdPOf61VudbCW1NH4MIv/3JF1jf//mDbdDTkIElks4DOYdCp6bUGkO7IeN538D/STH/S5zyV/F9lq/T77JxKTHn1tfyeOe9emerODRZkl3AvOZpNgakGBDJTYNmoUXeB0UDXrWnZuJ6F9XYpr3L2ood7Lnz9gqbOcuvmh/wILP3vz94e7jjqC3k4kH0AebM7qnJCCGxXiDfMD5iiUHQTDofv8jlPJ24tlyzU1xLoLKTXnVEnBuh8OL1heEAnpZRsIvDEs7KNEt0EK225WMD3C1Vy2Rut6rVDHmrNHYCrvt2XHsr5Ew6JIVkFNhrmlVG+ir51HRL6R/bi1QfImpVdLH+TRS3XlMql77Fy7SOB7j1QLQw3FhK9vgtJiSrZK12gV5GjS9W9SlppqvNo4FBWM1HBduzpi66875ejHJ/W6a0RGNEIfPamNd0bh2dsb586AwzFu5OiI7rsiE5qJJ7gBcjjoGvSdVIuJXwmk1FtnR1/6Kuu6Vhcskq/5MZE9FOiU7qTD2sn1X1cgU7VnYdW3eWhkVxItZ49xMPoK8Xe55kBA+2Xjr5jyoVrJlUjxRHNUuukA3IElv/t2j+2o/P+xQSJoUWuBLbzbdLh1aNr6LCRAxGkfVvEDoHOVsroLHOhr/rrxOHFIfstA55tAr2Kxg08CPQK0vsI+p2OMZfodRtfbHNJJwTXDGrS+bAhtC0q5HLI7HFga/SogXxCdV+0rqW+N2lxHeq3vezb2/r6MoHeaDwCKnQAvRmJZg2TwHRxfWgNWwO9/nM6nVYxX+RoX/WZmZFieiBfBzqBpgE+sUDXJJE6gQYFqgJ05Mmgh1Q8ElSsxlOobivCAdJXmv6FuRe/8s+H+qJrvf/EjsD/8ZW1H1+fj77QPuMwaJpgRKLmK2t2Mh7UktEAJV9Q3V2hDsF+flW4SqCbaKgo6vqEA12H2fSg0RmI/0P94M6E9ux42JKKoDuG8Lpn0RIqcbhKLnm7JdUn4/o6iJ/pkmtfut/qmLciCzIWyypKF1xl11NVJvrVtcGr7XENBp1STsc23Nfwd6EhaWZYPXXb0VovT62asTrky51tBtAtBR8QdleknTLURrpIOVw2WPl+Jw650YTX3Fxc2RN3leiaeaYK8yGEZu8O2CzxhWzUKmW1Q6of+4VFK37ZkuoTvboO0ftd/oWHT8hGF/22GO0GzVlQJeNhlU6l0MZbl1Y34yDQtS3uMsswdRymt0GGGVbVgZ7NdAZee+CrHztGULzp/k9+s9Pc+JUwmiwWjZzoIhW0nZH2q+Rbxw5ByhrtLNO7CFlg9E5Sz7cd65fVcUHWq7vxdXESoqGDCqt8Oa46KkvbfOf/hJ0KW0drBMZ1BC696Y3XioHZR2XJ2AIhGAuC/AxSnZj4cPx6XB+ldnEPecEQ/AV4FoeOa/RBkJ7poh1ngddNdzz01ZP+RKDUt/ryS0KF5++JBLaivTK6pZBrCt1KfWU0bCOJBVs0mbrHlAAdrDOeC388gd44XBJiE6Br88IBaWShMuM/O8/74LMTM6ytuxyqI/CZm1/8o63ZxL+q+FQVjEZVCd18DXQ1CkDFrDA9u0lGJIEu7EvpDEzcoAqawCvyTqrQxMFZqSpWnwob71/+0DfOuFseceDhq5MB369S8dAWtEsG2QNDbezF5JB/Fd549kUTbxhZWqmqwIautWQaneq+t8XjAXtXoPNny2lX24Z7LznsM6+38t/3NpCtv49oBFZc/9K8/qHQ+u5Zh6kccjkqaDoaDumORVyDMNFrSV8jusEoTzJhOliWpRLRmMrn0FEVAlBK1pBwZjh9KhJ6d/4DNyx/r7YXpR6bU01Gt6kSnF0mdge2fZZsOU3/ArMchHPsbupyutmkeJKWTOObGOQB3RsPL9zHQa5UwmjVNKW6IT973vwLntw4yjFrnd4agZ1GgL3sL/zG1v6ir7ub6roNT7sfTU1CYQg65LhbiFEbJnkUmud3L1joSwhHtd8ATWXRUslkEr0K0docgDfLm9QjXztcMF4D+rZVs37UEfjgc4YdkCQABy+kOz5ooAtftAA9Iik3th/J/GPQe21va2tXoMtDu7F9luCVUSVYsKdaPv/inq6Wvb634Wz9fT9GYOkN779cCkWPRbMyNCqDAy4SUXbBUcVSFuSqlgpAslfQSpwEjM054HwLsvcCBHlRSJ9FSGcLWTQl9auY88F/3nfDkWLa1oH+2KKLQqW37muPJpQqov8ZvNsW3PP6HSQMr4FuR0VVccyCZoOBitCsVF8C3o8XdcpR9Imc8k5fbvpJC65anWrOoLfuejCNwLnXvX9fxmy/KNCBhiL0YEOgoA4MbYgVegECB5GqypcKcHxpU7Y5B2JkbCABoAeAQ78ZUnkkliETTgUpiFMvX/rYraffuxPQq2uujP/v9q48SJKyyr+qzKy7uvqak2EOuQYQ5BJcQt0xVHBBd9WQiBUj9g8kDAOPiI1YduVYJSBQwmXdCBXdVXfdUBzAEURmRi6VNUCBQBAGmOGQGWCYnqOv6jqzqrKq9vd7X2V39Vx9VF/TVE5Az3RlZmV+3/e+d/3e76UL92c7ITiCvs/aURXmOQWdbV60uQLZWGtRFXsG5+ZS0JtNdn9Qlc4akF2vWJeE3SnVWnfZCp6yJHDJ/e1I/PysvEXxrRd/pe/eciTxd2W2MAljrVfLCHLB0mWEnbEhlEwHLDQBhaKxDkaOzvUIQFwZQwPRjXIrenAlyJw80PeivGtZqfcn114wOE7Q+Y/Mb9a/HCnuPtmJwQcpFsWOhZCJc5W7bUzQQcvMOnFucQ0tP5savTkIp7ZFg3FT20YRy4tNKA4sPDow4sOQ5GNd9b0ja9950sef3D7XY97+vmN7BC677ZFEpv/k54eKsbXJzpRxXSHUpCRH1krUH45EFJJCCnK6jsqdPpsCcJQhpWNdxfdHEP0PlKCc+UzRJHz0vHQE+vZsue7kVf7l4xIDex44/4vdlb98JxKB0CD0XoUQeQ4ijfhJ+mXietlkwQi6KWed7WDc0ZaOZvrQ1L0MR51JAAdAhjrq2PPVmAzL8i+ccPGL3zu2l1776edqBD761ec+WKj3/saLRVAO7UjcSoibBSITJdJ0WxmMZtyqqi29DVWToVSeP8pFFXT8Z9OFBVQ8Gu+Q/jw6KpWHZJn15rX33Xj+Nw4r6EizrYrZT+yOyF6pgqPNioWh0XPjBN1AZBrEcxC0+RV04vgwCYDusoEtGy3boJzygJ0tID2YCxy/fTB77qVnf+LO1+dqwbS/59gagatu+3kik1n/g1f3xD7tdK+SWoyRdMSjygGJBMLapcy0PmJLMgg6ZVwbm/iI0fkUdHZQsrQFaQi+uouoez2Sklphr3R4z52w9ZaPgibOHIek+g9sXv9SVN44JZHskHJ+BKYAjX/A6mAWjDVdJ/TORBrHqmfmYYIJkcXXBmFXlQkSQEqBnpSDgpigdmVNCIwYecvt3vh6cMW1l156TzsFNw/TtFC/8pJ/fuyamtP9dc9OSTS5XFys8TLQYjW2Waq7AMTAggVCVJGgbD46moUi5NSIznyyyxgILPxypv1qLlJrsELgUdulfX3337DuuOZxP0TQ9zz03k/3BN/YGChnsbNBX9quvgx3MEPY2NjBtHmbf8wuaOZIC4WbKyOhJI90IeiMjjoAEPB3QaCXqkiKjARikuk8Qf5cOk7u+/Pg/U73Sbf+6B9+9LuFuvjazzW7I/Cxm36/rlbtvTKdD1wbSy3HeoapzjIQBKAdmOy2hRSah7hPvK5pNE0/qUDz/wZ0qv0GG+tfhX++zHdmAWC5hpBKq1ZyUkZaTQCFTXr7P7v1397zP0cVdH44/MAp9bg1gufPSI3QV7yI1ejtpI3WucdpWsEwtfrc0rM7RYfenVmAoMciejwEkwWgqK8iauhhN4bUSwETl4mfJtvcXrl92wEZjCyTLFySWLSnVsuV/qPHTm3efNVPfz/Xz93+vrkdgUtu3nWWm6t9RKKxzxcK1TWhSExiibjki1jbSEnFUAady+Qk5oDgBD6567qany5D+ANwC3W9q1/ucxuyGAR4EnVhSfc8T+a7pp0CKJmF9RHDJiVFCO8eOat3f+LWqy9G0crYcViU7u7N7/xhpz1wZczJwfzFxVrMQmCASbX5gq6EdAhQzI8+N+m+IAELAPGztK0G38oFRLGKlEgt4sigvVSeLaySHz+2S0qrz5I+4BVTnQlFDeWHSxIClj9eCsvy5JK3ctnCtrpX3I5b7uD7RcAH5nIAUUDTfJhRmPiwfdvuKKdWcQ76z+AMwovNz7q/spqug2vC9vH+KaM/K7gE1lZjDtmFtvlg4Ag4oloVo4NQagX4CK/DClZWjAStbjtUWY5XoW1aJ00omMRMnqjmIZ3R9EiBchBoCrSt1gbBB/885JEOehsGiqxpIcGhNYniOOR+/qMFAlXVqYgV63PxzLJXCpQte7mT6O6qB+PrytXIBa/u3Ldy1er14DXAnCLmVAbkE6oAlh+GFGkzDxMeYyS9CLlgvpwpMyiIfKkisWQC57NwhQ1FGJQjDNTvXsqgtI7YvAm6Fq4Q8YppLOIvkXpOIsM779j6zQsvP3jZHXYSMo9ctL5efGFHyBpAjToFG4Le0OBVE50wVW3sBjGPgs7nYBMXDwJsowgHiXRAE5EOTHZKn7NM/pRNyF0vFiTddaJkHezAEP5yYQSQQfjwDSx/CMGMQi4P/HIMl1dg/mAXxwjadghpihKxRmYyFRTRMNu0A6xhrzVlgmOf++eNns8HbLr+4M8n+rch4D/S/RvTiXMCMDEbRNn4JeYsyCIkGqW4tgriDq8TqMYVw8HyuoqU1iy1vNV4/A5DyknXjPTa5A2cyk96TerOtfLT8A5M7z4gVoCwJpPQztmihEIR0I5FpQy3jRadhVx3oqNThoaGJBxFMQow4XY4pKzC1Uaalp17tY4bSqJG8AmKQoJ2WLK5CuDVZpPnDDRKO0bXAaPwY/MyP4AZCrqDjctCXfxwrSSl9BtyZjJz7o+v+6tnJiXoPGnkwVN2hAN96wOW2dEC7JOubz2+XLWxpx1830n/2wzRGB2OH9Ef9Yf8svpxNfDm9jWmO2iulz2JBQjNJQNNXUaSK+XRXFzueXFYhnvOkAO1hATDrK9HbTvUgFehlYIJxaRy0pkfjYUjWhxgYxOgxmeenn9Xa+EwByefnzSspyO+r5/3P9IJE31+CJVX040oHGYj4qbLPvYNe4NWVwDzpshFPiRClNUOIB7RFLB4hgTdk8DYczyEIdUQ9FZtsiNvdEffyCa9TA57or4aykU5X9wtYJggteRJBwo8Km4JwTS8IvLgNjSeotuAGCuWYZWESBwBfgNu+NwK8RlUhG7wmHn8GwFdG919uQdydMfVc6A8W/1yEKBoD3ITrJv2gQU01ivNbxfuGwn0wc1GxIg/1xrjA5rmbsTM9PnxJ49NKmkNP/vgdevOPtJ6Pewz7t3y1x/oCL38u4CFmlZ0NNVeiBAUiAEGiEYMghXwd22yQUyTN0uzkUj4G44MPi7grDCVaSzU4PuwgJ4uEkvudBEHqbUa9NBKaVuVMtoqB7F7x0kzVYvJQGKFPFEIyc9ey8mB+Gp8vgRCG4YFYvD6Fe7cCgAyBTkTlRhO5H5NdP20F8AkLxx7PkPeYSwNrlCzIVPLc3EEYHoGy2vEzl8otnsq0kfLoL3jOMdYaC0d/kBO9WdLX2osCT/q7XswfmaoERNv+gazmY3NV7NwNtV0cCUenCs/rOSYNdu6kJvVr4euS7M5m5gYPsM+UkbMyUNgnEqJSeRgGeWocFkDcFeK4G0n+ZI7NCBLk8MX33vDGQ9NSdB58sADJ++xgn0rbQvkjF5Q4qiM8UZyUsEuGUmiwg3kePqu0xZ0vtiYxqzCzMU2YkAJ3C25CPEd2Ij1pQiGYVWdf1DQGXyLJFIyuL8glc41sq3eLT9++jXZ03uKlKHZ4bYp2MdREj24qrqJmF3aHK1qsxZX64xfTg3DTc2UFcOw059BEhmW10oou0Es9zRo9CVYV0A56gKbp2DSjL/7sXdDTZGNpuSNGqOb4G9cNYQ4GIOgoHPR2lR4HqQB6eNgAO4lLghjrkPF4f333bhi+ZFG4KiBkr3/d/EH7NKjv+uKFdD7DCxUCGiEgnEEKhGsKA6iQgbC10I3Gu2aqjcISgXgBAogzSFzYOdiDAD2UwiBE8GuRlOKoBjSXOki5vnwsQdQced2nypPpINy5479kutZJ+k6im9sdNLAZmAIJ41/zaAi2XGYcVeBb1BnHXtL5EhP3Bb0Y2cuzbocOzQ22rDKjGD5G7Uy00E26giOKywcJKkIdEImwCpThyLOvHLZ/f/+/l9MS9B50dAfV2538n2nRnHTAEjxgsEYtCo8mnrBIIhaUAa+6a6QWoBcSHgRYLpCBRL5SwaZuMOx7U2tCB8bGw1Bx3xp0OawXZMLqGJ/dIU8VeqSO1/YL/uSa6SagFmK6KlbyGOT4AOagBN3SasGHws+awnBOwo6SfTmFfQz46uyLegzPqSzdkNjeRkZgmuFtckmDEaJmW4rAfwOq1ZrTSjoVcReqvTXkRmg8R6HUNjl/el7bzip62iPOWHq4+UHjnvX2sT+Z0MlRDNzroRgvucgQFGkKjwF/HPnma75a4JIDG5oNJ8+inLUNYJLfDdEVdlFRhtKsAcb20bBLwkjPuAC3DCUWidP5GPyvy8ckGzPqZK3upEWC0oEcQWkR8VFFF5ZMfGI6pVhE6GLUAIunk8dwkC1Bb2F3XrWhODtcGMGAA1Fm1VFvIRtyCBPjCFpc1GqOTA6KbQbaWN684TgetgMStjPbSQg6/velGUd+Ys23fieh1sSdF7ct6X7gRUJ5+LycL8EkghsIULtFgAqIPukptumJ+jU5ITw6dXU5DiYtjPFAmMCiFiblgVSAzO6GCA3FtJlw06vPJFLyu3P7pbBFWdIIbESqRX4LciBdoYh0JWCVG1qcux6KugmgFLBIJYAjOBvHDLdTu/xF+hKbGv0BToxh3ksKjesZwo6eB4MAGdM0DVdiriUOppM/XH1whr1EH0r4iPbS0uvu++Ze24+49yJ3nlCjc4bvPTgx9Yd5z25M9FdkAKCcSG0o6mWISRkolEBnZ6k0MemuW50rZ82oBHDajQTTAJUCcgffIqXI2klc9tevFsOOADD5CPyi1cyMtyxRjJWHKkWpkRQjIB8arUI6C7TZMiHq3+OwUIoT2MCrEIqwTrgbx1uLNN7/InGdp4+bwv6PA38NL/WLD41zRtVcVRolAvNKGhQmpAn4iGgWIH/YHzJxQlWuV/WR/pO/MG/nvfaRF8+KUHnTfb96tSbIsEd16c641JyC9hlADzQpm7YgSb6liN8rrztCu1hAALgBM0NMvzg4mcjyod1W4SgOyHuZDFodFvS8Mkfz0blVy8NyIHkOiHXNqErJXBlMQVB1R/GnzqDeT6ghTllbCA27svvLWv/KWShx+VIp/kiC+qytqAvqOk42sMwh87iMKxH2JgmZ49MiMGSNAhZG7wPME1NipSGPNZ3BUwy4crebzx0y0nXTuZ9Jy3ovFn6tyfW7fIB7CdZgdIECg1ixCDadJPJZK6BTQ2cCoJtIeTkw9pdAiF+A/bgzoZdhFY2N7xhiUq642R5aiQid+1IAxizVlynExF7DIxSW4GqGlYGtwrbixpGHN2GsBkp8Mdv4sjt0gc6HBz5nMywLeRz2oK+kGen+dmIG6kz6Ew3FdF0klgw5clskwJkgL4ro0zchpIrE++Muo448fiwduvusHv/jccRcD+pY0qCvmPr+89YF9mzLVTbg7QWoKaKF2DgbLII8IOeiQgj7UhJEaSJzfSCQaURohiATR2Cyq0DlLMPBfVuzynyZGGJ3PH0W1Jcul7A6QWfhZFKXINcv5IDMPUGP8aCoCvHHZE+cC9MmaFJV+jvuQkoYMYAaBbP0Rb0Y2UufUFXklUE5aiUCJTxC2i4ZitQUEEwKJU8aHIEmWNAapaGd8vyuHvhppvOfHyy7zolQedN39py6rd67Nf/0Q4jp0dt2QJghvcj1pgQxRq0uAc0TJBgGSDgaIqjcEH96kGY6xnkyf84HJfbX3GlCGAMTRdaADXsiGS78WwUJShmG6kIcs9reSFzj4SCGk3OTcADyICPbBORR776RSXkHNG2oE928c/3edoGERax6kuNGDFoTNwHl6wJHXsIJpdURhKgjEIwek+foCHZd7fees6XpvL8UxZ03vzAvcfvDkXSq2IRaErU7o72Z5vKN+u5JginMFfkyRldD6KenJH4CnYuIuTAmSG51Fr5Q7Zbbn/ugAz0niZetEsibhbWPTQ4hN3kFc2OyOCaBX9Gd0u+nUYx6fsYoIwH31yD+prWaBSpTPm5F/IFbUFfyLPT/GyqIxvr1LAs418KCfcFHVEldjXG+nXRaDQF9tkeO99/11dWLJ3qO05L0NMPXrmubv1+Z6D6BvLVfCiaHtO5FVJgjHpD46LMQN3mEoAAZQh5EBVpRTupQv7ooCM/ebkIc/0UycB8YfPH7jCi5/hTJDQWG0IYsDkG2kaxzo0dkXlHFXq6BgTMULMjAFhu8NLbxAxPE8I71cGem/Pbgj434zwz38K1yRVqEJqEv5riMcXxQ3VVEF1PJSOo56jJwO5t0hXdM44iarJPMR3p1Hv3bT338o7oGz8LVvMGXXYYQfcZXI/8MCaPThxtqEHVk4PpUmN5YBj4ddSTP5WFuf5MnwwtPxPY9WVSKQKO6xXRggblpSDE86DR6dPEME7cDU2VD5yKhkmuEEL68QqpJcaIGh5BO5uklxhmmPltQW8DZiYrMDN+nilJU1CXMsoqrsRwMuomgLUbAB6kPPymrOzOf3LT1y745XSeYdqCzi8b3HL8f0dDI1ega/loA8TmziqTEfQAc/HA64aJsEN1HHPmFaDv3gqvgpDH5O4dGSkvOVnSIOurAzRjA9IaBMZ+EH2mLOTIFfsOQbe1J5zR1h5APB4r7ogoYldYmvOKJyRWmME5H7rLjcaQXS6eo63Rj6W5VPIIpniNHlcATRVK00PtByPyDuJKlZG9siTa9/27v3beVdN9t5YEnV+aeXDtC44MnE7z29J8IEsjWdVLPA8JEPxyPv8RG2WmfvYdAAAPNcJR1ovj6iJ86aHEKnksn5JN2/tlMHWiFK2UhHGfOjaEClplVJlvCyeVSJ8hN4XNItKuRTEQdC1FJWKPdcUq6EbbE/POjYCCzt9zeBkHWEwx93YwbrqiML3rGELj0VRselD9h6kj98tZm9eaH4CjRapMSYR5B8GQhPMp6NTmISi/aLV/+31fW3P69J7QXNWyoA89/KGUU30lbcGcjkYg1B6pqlhAymg4RBdSVqoiR4jf2hBQNUfgY/NvxK8jlodzDE3PCEAz2Y4T5MmRqGx8KQMc+2ophhJqdtMH58BUEKUcK+sbP2x8IU2hNUXStRabu2ZDnH2T3vjyi03I+U5tjd6KQEzlWsPCOqa41D5sEEIo8kPXId1JRXA0THIjcnQvtQYD2SZ1HT20PYYbSnor5Z5kABna3alnSr++5vgoLOWW/KuWBZ0PvfeXH1kbD+3aFQ+m8TpZ0kGIhRrxPFk0SSAByjNjYrPDBZlejIlCt94Cbp0++b48GI563iHP5Dtl49O7JQOfPO2g/r0xRA52NqUb0oXsU08vxvTYVJba4c5tC3qrIziV60c1eiOgq1BWNcFNsZcRcgbXDEpzTL8ap9FSiCsLtejCUh7onjJsVZBS5k1ZGkgv3fSN9/dP5ZkOd+6MCDpvvA9gmnj95W3hGGiaHFdyKF5HpkzfN0yS+RKi40DAaZ6ctfPQ9AFofAsqfQidVYZ6T5XHUU++6eV+yXetlpyHHDn4vxQC3MD88kdIGfQZ/kOPKewUhjVxcRnfrU1qW9BbG7+pXG1y31pW3WCFpXuobiPSt3QTNX3WlIA27DGMGZmYEvFdLnnZwTpbQvMRJ5TEvSpSHNopa3sGTth4zft2TuWJjnTujAk6v2D3/Rs2ONbOR6KhIbwBKKhwd+T74SMjsl2GeY6CkyB52IhGw4BUgEt3kU7IwUT/Q65bNj73lqR73yGlWBdQsOwlhVOxSZBLXtFDmifnwNrIL3ITwD21nrct6GMT3Bb0mRCMydzD0KCN8byrxlakJQunGPg15KEG8Wn8ZL9cWn1y/L4E7joHPQ4D4L5jzKkCnoVa7oAsCR04576bLvzzZJ5jMufMqKDzC3ds/siGHnv7I92gig6CnEKzg5p6IxkjX5ZoOpgrlZrk4H+PpNbIY4MBuWNHVkqAtQ6BLaaCHTIRRY4dfyoN7iwTuDBw1uZghc/9NpmXfXuc0xb0uZpn1c6jpjqdTKIvuVI5Bw1gVsPaNISOfkiOdRyNsk/DD8wAAArhSURBVGwg3nJoU06+3gjWfLb/NVnSmTv719ed/+xMvseMCzofbtfmD21YFtz1iFMbgBlPoocKGDiZ20Z/KJLig/TBcVLSj3ryPxQT8rNn3pQiTPcq2uIUYPl7iK4n4mTsBJ4eBPvU4IbcEYMJBJxpdsfiFabVTHqtffgj0Bb0uVoLhrGI2osaHG3EocUp5GQwEhCSkjnZaPAxbgXSo9OkJ/kpD/CiSBRU1LThM4O7ZGmi/5z7vjpzmtwfi1kRdN6cPnvK3reN3SPqXhY+iIvSUBdlphDkRKcMBlYiTx6V21/LIk9+orhFoNrQHicEwbbg3KfzAOIgT05OONoBhAcqWSSEnaYRI/o8Fh/gpdVl2hb0VkdwstdrhB1VlwRgVdHRiEVVmvGBgAerEaxN8LpBERmuGGPOE9/B9G9F17WAptySKNbz8P43pbO7fMLWa86cEZ/84HeYNUHnF70Owoqu6hs7rdo+tHQtIACHwBteMB1fJX8a7JBfbB8CW+uJasJ3wpy3kE8n5A99cCQQZpcMmPhKqeODXHxoi9kVeYyS6U12dhb9eW1Bn7MpRtUmeRSVCk0Fne2ZDF0zy00dBJTZ+MQwJlHQ0RkGgo5wFfLkiFtB04fKedSVDwyleorrN335nJaj60d691kVdH5p/YnPdPQPPf5iNDq8KoedbH90uTxfBBjmuSzy5CfIUCQuATDtx0ppwGDr4LCGb2PFYLajphyBOwcAGUYw1WzneDXqdY1vRCTc/LWEmrMFNaUvagv6lIarlZOxVrUxlNKTQ8DZvaURHKYFqqzDEHS6omGwMgVQpTmcS6PVUwfiUNDxbgYaPfP8w9ete1erefKJXmPWBd1/gF0Pn/tgPl6/6PlKRO586jVxV75b9lSw46HVa76QlhVJBOHQ/4rEjjZSDCUMoIOwvUUsPSlulRUTefg66syxi4YMB5XyXS++UtOJpu1on7cFvZXRm8q1Zj0yzWuCzIpXp/WpLmaDrpnWKcujEXzW2BMj7DhnAKZ6LFz5/qNfP3vasNapPOucCTofauOWz3zpV68+/+1cd7cUoh1SCsVQqRaQQiFHajjtBBNCvXgY3G8FVK/VgRpisQs55ExvGPyNGGCg7hxE55k/p180xgU/lVdfrOe2BX2uZtavJ+f3MVisVROjZjqpmdkAkik2BJMlphwIISiu3CAi68n0p+698cN3z9Wzzqmg86U+9/PPrX5pz+6nMyGvN9KT0gq0zu4uyeXQCRJMGsTEVsD9RiigFeIAGdIIPijDcRX4NqbijdhgDm4bMDN+sbQFfa6ER+vJG1WbyjLMdYr/yINYgy9OQWcwmQkj7fwLpGi0NvR6vLf//E1fbh3tNpX3nHNB9x/uov+84p6BQOYTbO1EpFwZPamVux2DFIQD7uA/wgErZZrszEnCBKLPQ1ghbuI6Bl64+OiapzJ9hzu3LeitjuDkr+caJDSbOXKm1IB4U1LHRpUkbU7yHQDb6hWGJOUUbtl805nXTP7+M3fmvAk6X+FTP/zihkLY/W1fZl+wu7cHKDmQ4YHkkTl3AmEKSLGFQp2NenJGL0m1g9o4UEe5DnOWFPTFRtfc6uS2Bb3VEZz89cYv58FGnpoxJxqORCxgdSW1OE36emHgQFfS/Zu7rjvvkHbGk/+u1s6cV0Ef0+6f+eZAJXt1sDuK7itoR4vovA2gDduwMU/OVjWWlqwZKCx3UWp+dYfYtqkNmGlaBW1Bb00kJn+1ptHY/RTmO5mI2U5Jo/BggwnC9Qx5iKrX+q7f/PV33zz5u87OmQtC0PlqH//+59f2B0e2FMKV0+thCDRMc2WtIVG9z9oKHU5+OFP+1zhUyP1qNlYJmc/GF6COR84Z38pc31rx3+xMSmt3bQv6pMevSUkYBaKqQ2vLfUII3su0ZzZtQMxhSlBpspv2xkzzNoLCYEgKeChSKbtbE531K3559YkHJv08s3jighF0/x0//p3Pb8hEM3ema9ll4a4w8urAtrOJPdIUrNdlioLA/zD+Tp+I5X8c8DCbKsLPr6EVUwDansu9jsAeNwszQWMbAnPvHvPv+LVP+zy6b0zACutbD4aSd2xjmcU5muKt316CPtFG7TMeaZ/4Jroz05GUxKQgF4UGrsCvBjIbmR9oZcC0Y1hvbOldh8ZmU1G0J5IR4LMTHSkE18pSLA4jVZZCWB20Z6p7hiQ7vFOO7wk/X5N9V9x9/UV/muLEzerpC07Q/bf92/+6/AMj9fLGvFVYHu9NSdbNIxKPFrFhNHsslZCCiwI1h26qJVJQ1SWKv1ugky0AXOMgV1fOIooPIA77s3A7JoGk4XknqyYmliw0bUFX9+dYNmsOJ+gNGjZjtWFtGK/PLPVmYVdSEvKoY88uYt3UgNvwSp50xDoQ7XUB1sIagaJhCWmRXVUAz8Z2IKVSUbo6ohDsAcBXbdSND0h3svJcKpb/l59+5YIHZ1Vip3nzBSvo/vt8+Nuf/uucU/1eNSSn5dEjPZwIAU4bkXw+qzsti1tSiaQU0hlxwkDWY7e1IOhxsNlUiqCA1l7qhgmEiwIegQo4NbpZEOb3E2n00YFqaHLfGVh4BbJvL41+uHXPOeH8NP88+DwKPN07C+ugzEIr8BCWwDfuBIHU9GC8g145zAadbA+GEtISbuaCCyEM0lL2HwjgXKt0QLqCu5+LhbNX3X79B/84TRmck8sWvKD7o3DJd7+wZrg28B0vUv1YtpqTZCcqfkKsjCP9MyYWJr1u2lHssCWY8G5ZNwASTxqNrna28sdpJxgKui6I8V1mmmmommegLehzsh6n9SUTCXTzTTn3/sEiKbICA7mBYBqzOejwA4px6AoEgQMStaDFAXAJIvjrISPksOcAhHxkYEg6o/Zt3bXctzbeMjtFKNMaiKNcdMwIevM7bLjtss8GU84t6cJIbwlmeDQKMx7a3YqEJIe6P3LQJWDijwynYeoTSadtq9SMC7E+Br/gBmFMObbAafK1R2mix49aW9BneunNzP38wKoCVZpWs2+lkbaM2tv/j4Kuwk6qb6RmHQhuLBaR/mK/2B3gLHTRH8BJQKCZ9cHagjsYANAlP7JflnZYL4QrIzfcffN75gzRNjOjZABnx+xxyXcvX1ON1T9cDdZvKpdLy7kr5wGXjSYT6ptbMN8ZvKtDkstU5TDVotip7YbPrmZ3o2mrYb1pHMoM0hb0Y2FhNGdQxllgjQmkoLMC0vfNWWyifP4aXccmX2YDQ/QKiFbqFloW0psjStMBzLpSyEp31Hoh4KW/05Gq33PHP50HgoVj8zimBb15yD8JoS8E6+/LVEt/L/HQpUVE3MuY0HAMzJqAIxYdkFSqoJN3rhGFJ9JOWz+PCXizsPO3/mdtjb4wF/iRYiTN6VVfyJWUFFYdOYotFf4wLD5o8/0ZicfL4uYGJILqs2WpyA9CnvfA0tjuh269+mLSGh/zx6IR9INngj69ZxXf69WrZxXt8kfT0eJ6D5HVMFs9syU7O2Lg7RMR03n2EGE/yIRvC/rCXeu+jz7+Cf0mHSYmw0BOlb36qsaEo5Y3XAfyUjRY32LXBx+LHBd/dNOVx4PwcPEdi1bQDzdVH/r5Zau9Uv0dFau+xrUccGXL6Qi6nGaDj9pyAutty1mWK2Z09tm2mQuBzSjGHQsehff2jLo3Z04wb/lazSui/DsdtAJ74GVnUS3xcrUWeBXavb/quX9Jdnbt3PQFMJi+TY7/B0KeQ8zFHeyoAAAAAElFTkSuQmCC;" parent="3" vertex="1">
          <mxGeometry x="114.17000000000002" y="40" width="24.87" height="20" as="geometry" />
        </mxCell>
        <mxCell id="pl2eVLVRURTBmRYClIb3-47" value="Firebase" style="" parent="3" vertex="1">
          <mxGeometry x="39.64567796610163" y="212" width="158.5449152542373" height="110" as="geometry" />
        </mxCell>
        <mxCell id="K6xSPXkN4X1ELBGIaNk9-48" value="" style="shape=image;verticalLabelPosition=bottom;labelBackgroundColor=default;verticalAlign=top;aspect=fixed;imageAspect=0;image=https://miro.medium.com/v2/resize:fit:300/1*R4c8lHBHuH5qyqOtZb3h-w.png;" parent="3" vertex="1">
          <mxGeometry x="104.42" y="282" width="29" height="29" as="geometry" />
        </mxCell>
        <mxCell id="r-kqNFqlSCn_OBZ2Qqly-39" value="RTDB&lt;div&gt;(Real Time DB)&lt;/div&gt;" style="rounded=1;whiteSpace=wrap;html=1;strokeColor=#FF0000;" vertex="1" parent="3">
          <mxGeometry x="45.59" y="220" width="87.83" height="30" as="geometry" />
        </mxCell>
        <mxCell id="pl2eVLVRURTBmRYClIb3-41" style="edgeStyle=orthogonalEdgeStyle;rounded=0;orthogonalLoop=1;jettySize=auto;html=1;strokeColor=#FFFF00;exitX=0;exitY=0.25;exitDx=0;exitDy=0;curved=1;" parent="3" edge="1" source="K6xSPXkN4X1ELBGIaNk9-81">
          <mxGeometry relative="1" as="geometry">
            <mxPoint x="133.41525423728808" y="233" as="targetPoint" />
            <mxPoint x="267.1652542372881" y="233" as="sourcePoint" />
          </mxGeometry>
        </mxCell>
        <mxCell id="pl2eVLVRURTBmRYClIb3-42" value="Send - Update&lt;div&gt;Data&lt;/div&gt;" style="edgeLabel;html=1;align=center;verticalAlign=middle;resizable=0;points=[];" parent="pl2eVLVRURTBmRYClIb3-41" vertex="1" connectable="0">
          <mxGeometry x="0.4223" y="-1" relative="1" as="geometry">
            <mxPoint y="1" as="offset" />
          </mxGeometry>
        </mxCell>
        <mxCell id="4" value="ESP32  (WROOM-32 CP2102)" style="swimlane;whiteSpace=wrap;fontStyle=0;startSize=63;" parent="K6xSPXkN4X1ELBGIaNk9-41" vertex="1">
          <mxGeometry x="475.66949152542384" width="262.3305084745763" height="549" as="geometry">
            <mxRectangle x="456.33333333333337" width="210" height="30" as="alternateBounds" />
          </mxGeometry>
        </mxCell>
        <mxCell id="33" value="process&#xa;command" style="" parent="4" vertex="1">
          <mxGeometry x="76.44688256658597" y="390.078947368421" width="93.43507869249397" height="48.1578947368421" as="geometry" />
        </mxCell>
        <mxCell id="38" value="" style="ellipse;shape=endState;fillColor=#000000;strokeColor=#ff0000" parent="4" vertex="1">
          <mxGeometry x="110.42327481840196" y="481.57894736842104" width="25.48229418886199" height="28.894736842105264" as="geometry" />
        </mxCell>
        <mxCell id="39" value="" style="endArrow=open;strokeColor=#FF0000;endFill=1;rounded=0" parent="4" source="33" target="38" edge="1">
          <mxGeometry relative="1" as="geometry" />
        </mxCell>
        <mxCell id="K6xSPXkN4X1ELBGIaNk9-81" value="" style="shape=image;verticalLabelPosition=bottom;labelBackgroundColor=default;verticalAlign=top;aspect=fixed;imageAspect=0;image=data:image/png,iVBORw0KGgoAAAANSUhEUgAAAVwAAAFcCAYAAACEFgYsAAAgAElEQVR4XuydB3yVVfL+DyEQAoQWeu9dpBcVbCBSxQIiotjAgn0Ve1mUYlkb1rWigmDv2EBAsCAgKl2K9BKSkARCEgj5z3fOnXDl7677c90Y5Fw+fJLc+963zPue58x55pmZIi68ggWCBYIFggUKxAJFCuQo4SDBAsECwQLBAi4AbngIggWCBYIFCsgCAXALyNDhMMECwQLBAgFwwzMQLBAsECxQQBYIgFtAhg6HCRYIFggWCIAbnoFggWCBYIECskAA3AIydDhMsECwQLBAANzwDAQLBAsECxSQBQLgFpChw2GCBYIFggUC4IZnIFggWCBYoIAsEAC3gAwdDhMsECwQLBAANzwDwQLBAsECBWSBALgFZOhwmGCBYIFggQC44RkIFggWCBYoIAsEwC0gQ4fDBAsECwQLBMANz0CwQLBAsEABWSAAbgEZOhwmWCBYIFggAG54BoIFggWCBQrIAgFwC8jQ4TDBAsECwQIBcMMzECwQLBAsUEAWCIBbQIYOhwkWCBYIFgiAG56BYIFggWCBArJAANwCMnQ4TLBAsECwQADc8AwECwQLBAsUkAUC4BaQocNhggWCBYIFAuCGZyBYIFggWKCALBAAt4AMHQ4TLBAsECwQADc8A8ECwQLBAgVkgQC4BWTocJhggWCBYIEAuOEZCBYIFggWKCALBMAtIEOHwwQLBAsECwTADc9AsECwQLBAAVkgAG4BGTocJlggWCBYIABueAaCBYIFggUKyAIBcAvI0OEwwQLBAsECAXDDMxAsECwQLFBAFgiAW0CGDocJFggWCBYIgBuegWCBYIFggQKyQADcAjJ0OEywQLBAsEAA3PAMBAsECwQLFJAFAuAWkKHDYYIFggWCBQLghmcgWCBYIFiggCwQALeADB0OEywQLBAsEAA3PAPBAsECwQIFZIEAuAVk6HCYYIFggWCBALjhGQgWCBYIFiggCwTALSBDh8MECwQLBAsEwA3PQLBAsECwQAFZIABuARk6HCZYIFggWCAAbngGggWCBYIFCsgCAXALyNDhMMECwQLBAgFwwzMQLBAsECxQQBYIgFtAhg6HCRYIFggWCIAbnoFggWCBYIECskAA3AIydDhMsECwQLBAANzwDAQLBAsECxSQBQLgFpChw2GCBYIFggUC4IZnIFggWCBYoIAsEAC3gAz9Zx8mNXVtufLl6+38s88jHD9Y4HC2QADcw+DuL1u7rO7UyS992rxF08kDTzlnTJEiRXIOg8sOlxgsUOgsEAC30N2SP/aEHnni/hfvGTfunLr1arvjjjvWFSmS5zp1aDe+X59zb/pjjxT2FiwQLPBbFgiA+1sWOkQ/3562vdE/H390/pNPPVomMbGC2707w+3OzHCnn36qK1eurMvL3f/TyCuuOqt6pWYLDtFLDKcdLHDIWSAA7iF3y377hKe+Mem2Rx5+aPTq1T+5+vXruyIxeS4vb78rVqyoW7Z8iWvQoJ7r06ePy9yd4zp07nb7qb0H3vXbew1bBAsEC/y3FgiA+99asBB9PykrqcnD9z/4wQvPPdegfPnyLqF0Wbd//363Z88et2t3usvKynJ16tRx2dl73MaNG129eg1cs6YtXGyx2HVnDz7niuO6HvdeIbqccCrBAn85CwTA/Yvc0llff3LVmLvvfmjp0uUOsC1btrzL2pPjSpSId5s3b3Zdu3Z18fHx7plnnnGlSpVysbGx7owzTneLFi1yjZo2dMWKxri+fXv//fR+Z9/5FzFJuIxggUJngQC4he6W/N9OaOfupPaPTnjw26eeesrt27fPVapYxeXm5royZcq54sWLu8zMLPmf6WrXru3effddt2nTJuFwy7nZs2e7S0eOdO3bt3erVq90detVc+07tHYub++uHn36nn3Mkb3e/b+dSdg6WCBY4LcsEAD3tyxUiD+fM+fzS8aMH/3Ed4sWuMTERNe4cWO3NydXuNpibt68+RE6IdvFxMQoGGdlZQoQl3F33HGHGzp0qGvVqpWrWr2m25eb5XL2Zbg8l+MGnNpbr7hkiZKzzxs89OyaNTtvLMQmCKcWLHBIWSAA7iF1u/zJrly15JHnn31hyIRHH0ksUnS/O6JVC+Vi4Wv5X7p0affOO++5H3/8UemEE0880VWrVg3KwFWpUsX17NnTXXDBBQLK38rvJwng5riZM2e6Ro1ruRLxsa5obBHXo0cPV8QVdZ07dr7h5O7n3nsImimccrBAobNAANxCd0v+9Qnl5eWV+PKrWV/t2LG9dYsWRwiwlnSvTJ3sXn1tinq21atXF51tEeVl27fv6K688krXunVrd8stNyl/++Pi792yZcsUkJcsWevmzv3UderYycXIvy++nO2uvfZqBdzY2KJCMyx3HTt2dM2aNXN797pFZwwcfFun1t3fP4TMFU41WKDQWSAAbqG7Jb9+QgK2xW+/4/pNF144vGJWdqZLT9vlKiSWcw1EabAtaZsbPny4erQ5OTlu2LBhArK3uC1btriJEye6hQsXKne7atVK+dwJ+Ma4yy+/3I25a4xbtfZnV7RoUVe3dn13+523uhcmPifAXc3VqVvDpaenuj1ZGa5JkyaunGh5a9Ws+9KVI+449xAxWTjNYIFCZ4EAuIXulvz/JzTn68+fnDl9xsV33323G3TmGe6RRx5RYF21apVSCEcccYRIwBLco4896u677z6hDvq6hx56yBWPLS68bJ5bt36deKrNZVvnJk9+QbzbJe6z6Z+4GdNnukxRMgi9KzrdPHfhhee7lJQUCbrtdccd381t27ZZgffVV6e6ug3rqrcMzdCyRctrzxxw8YOHgOnCKQYLFCoLBMAtVLfjlyeza1fyyS++9NJz7733frXPP5/u6tat65JTklxcXJw7//zz3dVXX+2Sd6QqjdCgQQPJJtstwbOKEiQr4tq1a+euueYatz1pq7vzzjvd7bffqkBco0Z1N3/+fDfi4ovcGacPcu+8O02BePny5e6EE44T7zfOrVmzxlWoVFH3S+LEt99+K15wEZedk+l69e7h4ksWB5Rnjxhx9Vm1KzXdXIhNGE4tWKBQWSAAbqG6Hf5kxNssujVp4wfTP/2sZ61atVy3rt3cT6tWuHvvvdehSCCBYdWqNRLw6uFuvOFml5ycLNrbRFepUqJDhztt2gfu9dffdGlpGQKUzlWpWtGtXbtWEiB2u61bt8p2FV3ZhLJuztdz3UUXDXf7c51r0aKF7jctLU0SI7LdfifBs6Kx4knvU644OzvLJZSJdxs3rXUtWjZ2TZo20PePaNHqqtP6XPxIITRjOKVggUJngQC4heyWCNgWee3tqUu2bNrU7IqRV7gvv/7Sbd++VdUFjRo1crNmzXL33HOP0AA5EgBbIQGu4m73rmyXkFDSlU4o5R579HHxRLMEpI91fx99p+pt2fajjz50tevUdEWLFHVZOXvcuHHj3NixD7p69Su4Bo0buZo1a7uVK9a41JR0V6F8ZbdzZ4bbt3e/6nlJCc7ZmyWAvNuVLVfKJe3Y6vbu2+OOPfYYkZWVQ3a2rX/fQWd2bHXSrEJmznA6wQKFygIBcAvR7Vi9YdmQl16YNGnatGm6rH/iiSfc8ccfq8oCPNPKlSuLd1rJlSxZUorQnK4gfMOom91NN93kUlMlwCUpvCQ5oCyYMX2Gm/DoBAHVsa6ieL5r166W7W5QiiB1Z7IG1SpXKe86HtVGdbsrlq9xaTv3SMZZafm7hMvdV0Sy1Eoot5uamuzKlC0p1EOupAHH6Pt4wVu2rnc1a5fXc3R5xeXcaj5/1cU3XlCITBpOJVigUFkgAG4huB2pqVvqLl62/JmFC+edOG3ax27GjBmaxADodujQwY0ePdpVrFhZkxcA1i5dumjxmaZNm7pHHprg5sz90g0aNMhVrVpVg16DBw9W5cE//vEPDaiVKFHcZUn9hA0b1ikgd+t2jATEtgkXG+u69zrabdi00W3auMNtWLfDxRUrIxRDLLyG0AlZ6smWKFHMxccJNyEvPOoiQjdkZuYopZCxZ4dLTduulETnzp3henMb1Gl06+Azho8vBKYNpxAsUKgsEAD3T74dKbtT+v607PspwsGWali/oZ7NV9985a6//ga3evVq/ZtU3bFjxyugoU4YNWqUGzBggDupR0934403u+nTp2sgDcAlcLZ9+3b1QuvVq6fAy/epgxsnwEsiBNzvggULXLIAZfmKpdRrTtuZ6TLSc4RyKKmgui9nr/yUDLXcPcrdZqSlKkhv3ZImSRZNXJXKtbTcoyuaK/st6lJSk6QqWa7r16+PpBQXc7k5+364aNgVA+rWbbr2TzZxOHywQKGxQADcP+lWyFI9ZufO5IkPPHzP0KHnDNGzWLFihabedju6m6Ta7nMvvPCCAm3FihWlutdml5GRIQVp9gqVUEmkWq+6m2++2X35zTzXoH4jLVgD0FKUhiQHlvz8Z3+uyH5N7y1VKl5BvHfvXkpT7Eje7ipULO+atmju5n0zXwNvApRu165d4k3vdVWrVXbJSdulwlgt16plS9XtPvf8C+6qq64Rj7ek1F+o7+LFy90jAbXixUQwJkoGgLduvZquk9RogI44omWLu04/5eLb/yQzh8MGCxQqCwTA/RNuR3p6etNJkya9PemVF5ssWPi1pNTWdyNGXKxUACm2qAZQJ3To0Mn99NNPIufqr0v2lORUBc6dO9PdypUrtX5C5arVJRNsr4AkdRJK62fFi8eqPhfAw8OFiihVOl5/T0pKcied1F2z0QDwaiITI7Hhxx9/UJUCtXMB7JwsKIgNst90d8UVV7hd6emaoXbP2Pvc7Dmz3aSXJrsPP5omgF1Z+N3Seiwoht2Z6epNpyZvc506dZRgXE1XvVrVmSf26Ht5ozqtl/wJ5g6HDBYoNBYIgFvAt+LLb7549asvvxq4c+dON/XVKQJoO12V6lUE3Da5U0891Z177rmuQoWKCoZ169RXYB04cJAqFETA4BMT9uWpF5qYWEk5WcBu715Z2scVk6uJUS0tIMv71L7lBQCXK19G6QUqh/GTAuW5+3Pc0Ud3UUrihx9+0P0TlEtP3ak8MVpeVBGAO2Udx4wZK3+Pd5dddpl777333PPPP6+SNc43JWWneOOSkVarpouNK+7Wr1+v6cYAvHq7rdvcO7DP0BsK2OThcMEChcYCAXAL6FYI4BR79/3Xfszck92EGgV169QFBt0jjz/ixo8fq8t5wC5B9LHjx4+XbK5W7uWXX3b33/8P17Ah3G6MgmtMkVjZJkEUCdnq2fI+NIJ5s9AIeLJ5eaIo0Pdz9TOSGOB/9+ftU1UCQTl0u4t/+E6SKbZp8Zt69eu4zZu2qmZ36dKVQiXU0AAeaghkZK+//rokSKx2b745VWkOKI9PP/3UDRkyRNOJOQb1G/Ce6zVsoMdNT9+p51O1WhV31FGdhe+NXXPWqWeeXq9em0UFZPpwmGCBQmOBALgFcCsEeBLG33dnOoB6z7j73Np1a6W2wRbVtzZu1lgTF4YMGep27NjhyiSUUxph//485V+rCmWgNEJqunqZSUnJ+jegCaBmZeXo74Ad/wFcfgLmvM/fAHRGRpr+hDYAALNFiwsF0UKOjxph/vyFSgl06tRFz4NjdOvWzb399ttKQ/z88xqlBwjK4R3v3JmmdRluv+1Wd+uttytIN2xQX4Js+9xdd492U4RjThR+mGvcnwflke6KFS8i3m4PVzwuVgqkl50x4IxTRtar2H55AdyCcIhggUJhgQC4/8PbQMZYatqmxydMeHTEVAGgFZJY0K9fb61zUKJESffVV3NdsRJxuuxuJR7taQNPc2tW/6xgV65cefVIt21LUk+2hASpvJe6TzlW3oMmKFq0mHqS/G6gyyXh2fKCKmB/mZm7FCj5rnG1vJ9QqoRyvm3atBPQnSeBtx3C2Y501//terdqzSrV/yIvq1Chgvvkk48U9JkIAO3Nm7dKsG2BJkcgYcPrveeecbLdJ2631N4tWy5Bz0MOI2AbI1UdcoVm+Fm46fauUZOGrlR8afG0m48ZPOCiW/+HtyHsOlig0FggAO7/6FYICMa/8+HURc8/+3zjdevWaZcFQHLdug0KeE8++aS0LT/OLV62VINk0AxnnXWWfL4+ojjYodvFFY9XTzUjY7cCZ3x8KVmmpytwAnq8AGbAlJenE2ga6akEvGA+R+Jl4Mv3kY2hXtgnCgM0uu3bdZCEiBS3XLLXusjS/5233nEZ0uk3oVSC+Mr7laulHgP0Bv85l6VLlwpIL3BTp05Rb7h///5CJ/ygfdMqVqmo58N2dAymIA7XESNKBo7vJDjXrn0rKY5T3kn53Y1nn37NyY0ahaDa/+hxDLstJBYIgPsH3whSc/fsSR5//4MPjEK6BbhQWAawJROsZMnSumSndOIll1zievbqowGnCy64UEEUbxeaAPpBAVI4Ww9afJdsL1/Zi88IvPEeATK2wcu17g4ALL/z4n3Se9k/xwJsAWLOp6goCmjFw98E4nyxmm80qeKGG0e5ihKYG3XD9e7bed9prVyy3dDyNm3aWEF2ndAjy1cs1e+WLlVGPeFy5Sq49N27oA0UlDnXGjVqKO3AsfGSi0lQbcvWNaKyKCYpwl1dyWKJrmL5uu9eMvzas8VT3/UH35awu2CBQmGBALh/4G0AbJev/H7Cgw89MJIIPokHpMIqbxpTTMGGYBfgRhIB/cZ2pKTqGTRp0kw/B6Bzsn1gC8/0AGXggRbaAADNyd6rnvAeWbrj3QKavG8erXG8aZKwwH7ZFhDHA2a/gB7ccbwoGwBsA2ukX4AzAEoNB5QRyLwAUukwIRre3u7jjz/W5AuK4bRrf6TWz0UD/PPP6zQTrlhsnNsjiRO8V6tmHSeUijvhuBPcGuGBzzlnmE42NUX2RvWx3LxdIiXb6Y4RpUTdurXVJr379R96bLt+k/7AWxN2FSxQKCwQAPcPug0ChrETHvvH91NffaU5gSUAD+9z775s/T1pe7KCYilZogOq1ll3u5RXhPtMSd6pAIUnDGgeAFGfaabZXwKMpkiIFe4W1UIJkYABoBwDQOYYFhjj0gBL3ue7tsQHXNme94pKoi7fJ9sMDxgwRD7mkyZKa8AMudr4ceO1FU+sVBAT6BevdoU7uVdP2aakq1Q50dWpXU9BG28WHpiC5RddOMJ1kSBcatpOBXcmIAD16KOPloBaRT2G6nfLxMlxV0trn31u4KBTdT9VEmu+c9lFt+Ht7v6DblHYTbDAn26BALj/5S0gY2zF6qX3SKub60ixlfY36j3y8im1RRQYAVpKH1LAGy8SgEtK2iEptbsVZPft83QA23sO1nuzcXHx+jufqazLaAPR3fIqKtSBfYfPDFQtkMb3PNfrvV9AVoFW3uO4CSUT9G+AGq6V920/cLxcw6RJL7nOnTq7tPQ0V7ZMWXfTzTe4l16apAANxQBNgRqBCYbjcr3VRYt7ww2j3NFdjnbLVy7XtGO84g8+fE+/U6ZcWalGJtfloEnk2mOFh87bLR7yJkkEqe3atG0h1xzr+vbqf16nI0+b+F/epvD1YIFCYYEAuP/FbcCrffXtyd9K1lhrpFzIrhITyytHC7h51UBR5VoBN2gFvDxeu3dnqvcoGbTKy+aDHP5jBGy9vMtzs1YTAQBVD1gAmpfoE/zPCEgrCEeCaXwPwIwGXP42D1fPSf5FZ6QRbMP7ZTuOhYdOxtnJJ58snSYeUt75m2++UYqhbt36OonYsZlseAG+McVitXBO167HqEf7xJOPuVdeeUXrQcAd75I6DCXiSru92bEyGZWWzhMiWytTQo4pNXkzKP+4S73dPEnyqFOr0bc9jh1wZb16R379X9yu8NVggT/dAgFwf+ct2JOdMvSBBx9+6fW33hTI8x4omVjGoe7O8DIsPFpeeHUxMVKLVvhcltcAMdRD0Zg4/Z2XpeP+Ut4lYqoI+BnwAoiApQGzXYL9He0p23cNiPnbqAf9fZ8HVgNdvGg8VbS5HIdzhCYg4EXaL947iRDwwvC8bAtPzIQzePAg/Zt6Dcjd8vL2az3eLKksVq1GFaVO2D8TU4mS8eLN7nTlylZQ0Cb1eOfOVFdSZGoE/FKls4XkzwldUcb1OOl4lgvSQfjoF3r3OOHSIkXqZf3O2xa+Fizwp1ogAO7vMP+ceTPGPv3k0zfNWzBfHNAimhBgKgR4SYA3M2NPvudH5wQoBAJm8LSAWELpsr6zgjioBMaiATfaQz1YfQAYW30EA0m7BANqoxii3zdaIhpwVb2QnZOv32UbPgdgCZxxHDs+nyFto0IY9AOgCVCmpSWL2mCzmzJlihvQf4D2UNuRvMMde/zxCspsC/WwT4AdgMZj5/x2iQ0A4J3yfRIh8P6LFxc+WgKGmqhB7YaEOJeekSQTmsjW2rbU9kDFYku6fr37n9X2yJ5TfsetC18JFvhTLRAA9/9gflQI9z4wZs7kKZOOMgCrXrOW205mluxHs7zEowV8AQ+4TSRhezKzxWNLEb7WS7I8feCpgWxRG5iHafs0HtXkXpyi8a8Gsua58jcvQMxkYLbEj6YmjPs92MMtLpMBnwGMnH+0d8w+jdfFc4UKMFDGY09J3S4pu4nu2Wef9oE/uUa8X7Y59YyBUspxu0rD9uzJ0oSNkpLogOqBwFkJAeH9eZKqFpMtnLZ4y2lMPiJ3K15KAZ/zJEhXvLiUl9yfLb9LgE083r59e8vF5rrECmU+u/qScafIOWb+H25h2DRY4E+1QADc/9D8y1YuO33q1ImvPzfxBQUR9d5k2Qx25lKVK5JWuzdHgEJlVnkKtM2bNxcKIVWqZ6UoEBcrFpdPBwAspqs14ATwDIANcAE+oxEMOI1eMO73YMA9mJ6IBmpTExilwE8vWZOOD0IjWNYapqlQoZxSIJwLgS+8WuV+xfuFYigRX1R43Yukxm5PrXBGZ+Hx4+/VJpSVKlZR60KlUCOCCQfAZfLYLz8pbl6pShntKFGiWCkBZV8bAs4YgK9WrZpmwaWmpiiVsW37Bi123uWo9q7lEY1km1KuQa3m484aeNnN/+FtDJsFC/ypFgiA+xvmx6t99c2X33nk0Uf7bd68UQd+jRrVNDC2N5cSiOLTCkhRKQsgkUW45z537VE1AoAK4ArCRLxbf0ANSAlwRXu3B3O35rl6D9dvf3AADf7XADI60SGa343maC1ohkcLiBaRNDe2NZmYnZvtMzfXS81QHgCyFgz0GmHxgIViIFiGAoGqY0jIWrc5UmrkZut1GvXAcb2KwSm1EBcvmW7yIgOZ45cvX1avIzNzt3tkwkPuu+++02pkm7du0cQIvhMrNXfT01PckqU/yvnGuL5Szax4DEqJKvNP6T1gSK1azX/6U0dTOHiwwG9YIADuvzFQVlZao7Hjx/3w/gfvl9gnVbbIAgN4WHpDFxCpFzySFFgJfkWoBLw5XaJLXzBf0csDTbYsq/metqgRjxXw9B6uJM5G6iAYMJqczJQJ3jstkp++yz5sG75jNEE0HWBgHe2tGi3B9gawMRLYMqC2imLWs8xzyV4lYTpf9msaYUsZ5vOff/7ZNZVCOIAzAbcYAUTVUKCwkNxdfnqqpbjag6Ll8LVFi/gEj52SVkzQTBTD7rPPPlWu+9T+p7jHnnzCXSN1HY7q0s7VlwpkKTuSXIpst1eOgZ65Ub1GUgeijeiDi0oSRpsxfU8eGuoyBNgrtBYIgPsvbs2UV196/JEJD1+6NWmrLqXRySoQZXmvVIhEAd109c4InGUJLwl/SSEXUl+hE7wH6zlSk1oBsgCMga4FzNDJ/tqLYwHUxYuXyM8yE4zM90r3SnArOlimXmOE17X9AbQGzAbO9h2W7NQ54PoOlqPZvqJ1viZLY1vz0O3ctUiNePfFhHf1k4cvloO6TUtLRjTBgClFywkupiSlSI+2Thp4ZFLp0aOHe+/9dzQIN2rU9U7aYbjrJLUYNQV1JypVSHSpogcWNkNXGNuFJy4jiRrt2khdhga1XG5Wzsqzzh46pFnDzgsK7agLJ3bYWiAA7kG3ftacWWeOHn37Pxo3rl8DUPnuh+8jYOULwWzftkOWyWWUi7Xi3nhy8Il4vOvXb1RwoeiMz/jynCjf9RxuJMNLwAU6giW7f/064JqnCnWgASsBRgCQpTrcKn3KvF7Xvw4GW5+l5jXB5k3bPvmp5RP378s/jwO0hpeKGWds+zdagb/Zt6/Je+D8Ac3848mqgElq795sz8Fu26q2IcDG9+JLxrltm7e49u3bujdee8OtXLXSDT5rkBZd/0i6SQDQ9G576qmnxNs91Q04fYBbsmSprjQoyK6gLnZZvnypqBnStPzjKaecoh62dKL4+NpLbjstBNUOW2wrlBceADfqtvzz2admfPzxh8dvFZlTs2ZNVAY1febnCiAUncFzRc5lQTG+Ck/LEpnIO1XBKKPI5wCySarYzqRcBnwGSgcA107kl8Cr2WARCRbesQXd8JKtjfnBYBvtqZqawY57AMD9rbeqYlAHvA5WOhgAm/KBvy292GiN6P14L9bvm2LnUAh4vnyfOgvnnHOO2ocA3Usvvegyd+121113jfvii1laX2L8PWMVZO+8804tcE479+7du7u//e1v2v59/Jjxbvglw91rr77hTux+vDTBLOfmzp3rqlappW2G8J4B8JZHNJFFyD53Qo8Tzzm+4ykvF8rRF07qsLNAAFwFnby4r+Z9+WmlShW6UoR75MiRWowbXnJPTrYCG+URAT7a28AdoisFAInME1Wnbi2fo1LgfSp+oWZgW1MQmKIgmleFcvj/XwdA12ojGD8L0EIvGEVgAOpBz7xlv0fzfI0SMCCOBlVA014HB+1Mpmb7jlZEmDyM8/OvA5SEZbbly9OkDi4gS7v2SpWqqAeKd/+oFMNp2hi1QQlpljlWO1/QEp7khwceeMC9++67bvHixfpZ27ZtldrBu+X3v117vatYqYLbLxIxarM/zq0AACAASURBVDfEFS+tkjw49B3ST62YnNaRrVtI9bM6ch8SZlx9yej+cn2hLsNhB3GF64IPe8Bdv371ZRm7Mh98Zcrk4tVFfXDVVVeKZ0tSwh7lFeMkI4oU3KZNm6tnh9QJXnLOnLmazEAvMqgDPFu4VkoTejWB8+9TdxY4igTG7PabbKtoFOBamq4BGD85D45r/wFctLvWvQHP1MD43z1a0R5qNODqdwT8DqDuL0E7Wu3wS47X0pE9xWGg/GvyNBQWUCmZe3YpKEIlZO7Ochm70twTjz3izjjtNDf03KHunXfe0fTfAQPOEP72ajf27rGudNmSCrDDzj3fXXzxFTKZFdG6wR06dHAXXXSRO/GknhK0FNWDpBJTEMjOhYlky9aNohOu6I45poucbI5r0rDJ/WeeccX1hWsIhrM5nCxw2ALu5s2rh/zz6ReemjR5Uulv5n2tDRTpbLBSCq0AlGeccZq775773Ktvve4uvPBCKRZ+gg5mtKR4rtu3J2k3BIrLWPlFkgFSU6VAjfKl/jFSzWkkQh9NJ+QDcDTYgX3K5ZqH67lfXtRjgAc9TcCJOru+aaSUQRQlhAFuNJf7aw+xHdO2UwVBBPDzvWOpLvZbr+jjwP9GAy7fjf7blBa+3KTntPFosQ/lHTesWy2ZZsX02hYs+FaTJwDYgQMHqtyM6/7ss8+0JfwTTzzhrr32Wte6dWufNCKrjKFnD3MtWx0hnYEraxuftWtXa72KunXruu9/WKT89J6sDNe8aQNVUUgLo+weJ/Q6p1P7Xq/91nWGz4MF/mgLHJaAK+CS+N2iLze1aHFE3CWXjdRGiPCEs2Z97o6XlFSWrnfL0pZ24N8vXuKmTZvmPv1kuhZeocKXB79KmqIbW7S4ela0J4ej5H1LWNAleaROgpVdRFVgyQXqaf4G4AKKZFxxTsifvv76a/W46X0G/8v/aCrg4AfkYFrgYECU/LT8ryjoHgS4RkfYRuYp234o/2jH95SDT901j5ft8fy9JnmfThRQC2wKANesXlmBlYmkd59eytUmJJSSoNlH0nTyKNHjfq9Fc/Bo4cgpZP7+++9rwO7BhydIoLKSay/t5MlCWyCp1g0b1ZY6u1mucqXy+TUomBC5Z5xDt27HyLFzXbWqlT8eedHtIaj2RyNK2N+/tcBhBbgbN27ssmrtktE7tu/oPn/+fB2E733woQbH6LVlHW8BNoAE8E2sXMVdcdkV7qIRIySw84V4aL5WLRwtwTIAl7/xNBnQpLACPPyOWH+/AKJ5uerlScTe9LDKdR60nLdeZOblsgzv1auXcpfPPfec7pueYnDFXmr2y1tonqqBYHTQ7GCOV0FRgC8fsCO1c//TMcP3kJRF63/hZqMpC6sL4TXIXp5mdqZeQ51aNYRnreuWLVsmq4xFWuRnvQBrunirlSRbrVevk93ZZ5+tXYPpDDxq1A2aPIGcrX7DxpLt5mV2DRrUUznaho1rtPV7DQHylBQ6a2xzrY9sLzK9LOXaAeOu3Tq5hvVrKfXTtnXHMQP6XhC0u//pTQ/b/VcWOGwA9/XXJ7396WefnkJ78KuuuspdfsVlGt3eJgEX+NAxY8a4QWcMcrXq1JJBmuTeeGOqcH/HuCXS46tVq1bS6aCPBtHQ2bKU35XhdaX0GDNplNe4+u65dGQwPhOgy8/QEsDlZbpcfmd/viYuvcdi5W/fbVcDU/v3uuuvv15LItKc0SqSZe2x4jLFfxEsiwZc80JN3sX5WM+z/GQL8cDxAEtJkBDg4mV6WpW3aSGbffnVxPBMTanA9tFJE3bsaN73gPv8K4+aADxeL+BJ8K10gq+nmyVdLAiWdezYwX0x6wtJ501VqdjTTz8ttXknKbfOPSN9moq6qBMkMKY92ugi0aVLB/fdovk+BVlaFNWt00DkfCm6Eikam+dW/rREeqvlurOGnC50wy6UJxtuufaRZiGo9l9hSfjyf2CBvzzgygCOTU/ffpN0KBiNdvPBBx/07WDWrVEvdJ94oGeeeaZyhs8884wC2xtvvCF0QbZ77LEJWidhzJixytfWr98wkkklQCMDWXuCCScJ6BgwkUCgS2oBXt4DOBWgSU0VMIWv9EoDD5Q+2g/YSnEX4TahKaxQDIBBvQLzatlWwT3P0wCAPQG0X+Nuo4NHgDsvSw3mfC2rjX1anQY0udrRN1K7gfOCsmAbgNqnA/sau9HJFNHHj/aif3FeB1EnekJKR/gsOs6NyYRzSZbSjByjR48TVa2QlbVHOdyXX35ZuVk/KZGlJ9+PcNA5e7Pk/ETjLPQLtANAjp3pDAzVg81aHtFc2wYlJW1TrnxPVprUciitdXvLlK7iOnQ65u5+Jw687T8YN2GTYIHfZYG/NOBu3bphSMau9Fuk40BzQJQ24KtWrVJDkepfv34NpQYYxAzwY489VjScHRXg8IJZbu+UbLLSpcu42rVrS8lAryoCSPgegM33LHOMz0i7BTSy5XNLGlBJVKQVjgELgGAeJMCmPclEt0rKMH3DoDWsdc7EiRPdztR0PZZmconGF7D3S3lfS/dfvQwAo5f9WngGL1wAyXvfPsmBcyMgCLcK8FI2kY7CfmKwRyXSYcLiehEO144frYYwW/3i3A4C3iIyd5AY4TPYfHcKstBIjti4cb1SDZY0Qjdg6B9UIlrEXCYx6uryOTUY6B+3by8pxPukM0WibkOboPIVyghNIWUW5Fxr1qglHnJdqd62SyiGdULx7JaC59vdCSd2Fdqmsrj3sdknde837NiOvaf+rhEVvhQs8G8s8JcF3Lfff+OjRyc83BOv6c033tSCKJ9//rlkJS1XD5LlecUKFV1DoRjgRPkMT6hixcrqbTIwaQeevDNNI+gUo+F7WnhFlAkAFuCIp8XLKAI8QtXIRlrm8JmmwEYysNiO6DyeL8tgQBTawG/nU3jvu+8+8a4fUwqDY3JecMW+Pq1ve84L7/rgABXvR3uZVnbRaAA9XqT1D9sSwCK6T7AL/hgZ2860FPW0ATf+5rjUqyXgxXZ6rXJ92qon0uInGnDt919VTRwEuLRohx7g5T1qzk8Kj4vkLis7Uycia1vEdXNOTFTom0mlTpMMswO1Hsiypo2Q7Ev00ni7rBo6dGztFi74Ss+XVcq2rVLDd3OKZga2btNSdLub3LoN8lyUKip92nrIZLnP1anZYNolF9w8SK4hdBAOEPqHWeAvB7gCNjFr16+aImmkAxs1aqASo+bNm6oXhHdL+29agY8ceYVSCPCBI0deI23Kz1Vd57vvvKfvU05Qvb1IjQE8WuMrCYwBRD7jzLcot5RdrR4mAGXBKvNyLa2XYJgWt4kUedm120fPARKKt2yWVNdrrrlGaY/nn39eQL+xAiieW4kSJdWz5uW9ukz19syrtMQEPrdAmIGe/dQKYRHKAI8yPX2ntLYppd77+RcM02yvNlLta+HChW7GjBmR9F0BYtEZ+8pkft8ArqotBKT/FaXwnzylJWTyAtwB0DIyATEB4GFjv7gSvrMFZRq5b1wnCo3169erjbOypFlnCfFqZSkSF0PAUugcF6s2ydwj/dliCWZmKi3TqoVUMJMCQps3b8337slIW7JsiRbXqVQpUYuhZ2mrn+Li8R6r59WuTfs7B/a74u//ybWEbYIFfssCfynAlQFZJ21X8kPjxo0ZwIAkNRRQAYioO5CVxfLZuUsvHSFL1RVSzLqvelIEx0hsYEDvydzr6tSRhIdI80YA17hLBjKUAVpRAM9zo97TA3R8zYTi+cW8rcsu7+OpEjXnO3h08Igs2WvVqi6D+zj33LMvqOeaIm3TO3fuJO1qznIPP/ywcqjKt+73NAApxKUkzZiXetIC+ObVRgfMojPTrOi5VfmyVuneo47VEosoAFhiT506Vc4x1vXv3189/AULFuqqgEkmvkQpOQdfG2Ivf2snB7n2A8qyX3jXB0vKfu1hhLaxgjpKFUjADK+UhA89jvRU4x7xO3YDmHkpZy4rg/15UnVNvpe9m8kPSoFykkwEMjFJam+MFBZiYtqbnasTGzQDHG+jRvXdqtUr3dbt26RFfRMtll6laiW5rgyXvTdde6q1aNlEPN06bl9WkR2XDr/6hKpVm/34WwMqfB4s8O8s8JcB3OmzP730miuvfvy2228Vj6iKBljmzv1C+2uhsX3zzTcFPBZIzdZjpVj2ie69dz7It8tb77zlTj/9LNeiRRNJEfWZYSyd09N3yeDLVS9406Yt3jONrpGgMip4VQJKgISvEGZlDa1zgwdCar36wi2ACRNA125HC5DtcYu+n69UAdwtL7zLXif3kcyrdzWlWANsArheFSBAL6BuHrfKyCLa2Whv1n43b9q38/FtzDlHOFrUEFnZu1SVABhde+016lVDZSCZq5BYznU/8ST31Vdf+y4N6uUW8x1/BXCjFQp2Dr8mPfP2/LXiPDIZyoTCaoLJyIKKUAoZQhUgEeO8AUl6ntnEZRNZUfXys1x86VKqbMBTjRX0V6Df77sfE+RjssNbZXIpJtsA4oB6ZuYulyzcOHw5k8+WLZtcxw7tRfu7QLzrohIo3eKayCqpXbs2aveWzVrcM/C0y24MkBIs8Hst8JcA3AceHP/xex98cJLobLUlzHnnnaeZY3B8eE9kkOGVUtB68uTJbtGiH6QL7UlaChBhPeBcpXJV9XwAOM+R+kh+vLQ3x6vCc+WVTxWQcKCeHTUE6Izrq4AdUCx46sBH9H2LcwI4aEEBsiFDhuggnz17ljv+hGMVHFjOt2zRys2cOVPUEvMUOMqWLa91Y32nBF8ZDE0p8jRf8lBOgcAVCQe/4mmaV2vnBlgCPkikWrdu5VavWaHZWfDRiYkVZNJpKdciTRyFNwaE6S6MJAtFBDV+UUWo9y/4Gd0C6NcA95cc7q8DLtQEHrgpN9DJehWFpTXDXXsVg6dhPI+rWXK0dJcrh1IoIt4u+lvqMMDjct4xReS7otMFsEuWooWQpElLEXPkYzmifKhbX7S7MoEy+TVp0kgAdrNLk8aWeNTYJ1Ym0qVLF8uklOHaHNlCA6cy4aSPOG9Y5+rV2y37vYMufO/wtcAhDbgZGSkt//HgfZ++8c7bVQlmMVAYvADE1i071KMheQEPB/0tyQNDhw7VVFG0rXwnXbjLmjVq6yDmBdB4z/RA5SzT0wJe7Avv0HOZXrJlUXQrKGPVtIxTBTDwvgBYvDYmhhNOOF4HMHIzpGikCrOEhyfFKy9dqowCGiAL2AB0Rg1o5THxvO24piKA/9wn3qHnl3Pyyyf6il2y3Jb94fGxNKdjBSDDfzoocN103wXYsRUAbIFB7ILH6HlhU0VEoXtk/Pxr7/bAADuY7zXawbS70UFA+HFfL9gXxtHziPy07fBUiwoFQkHyGLGxSdZIDPHfxePNUz6e60MJQgv3YlLkhkmYPmskTFDbGDs1a95EJz66FLdq1VKemapu3rffyKS3WyZw6Kej9V5WrVLtpStH3HHu4Qsd4cp/jwUOWcB9771JLz719DPnLFm63JUTz8yi6QwwwISBRDnF9PQMWRJ/5Zo3ay6+UBG3VGqnwlM+8cTjkp3UUAYqcqhc9fqMJzSvEM82uusCg90aHP6a3tR4XPV7NTAWqwCxa3e6LmG7dj1G24mvXvNTfrbZfskUAwCp1QBXumL5T+pdcU5eH3ugni37tSQL9mupwdAZ/pj7NJOKJblvZ+O78Fr3Xb67e7dXW+AdA9Bs26hxA616BpVAUIpJgNThaA7WwNZoBP+wHUjj/a2HzwCV7f4dtxsNuL+9TyZAKcwuQTErf0lzStUvR1oPcb78zepC77E88Uw8FmyMEX0uKg08Y9KHv/hitt47KpGhTuFZIqBGEC4urqhbs3aVTEjUZWjoihWN23fkkZ1uHtTv/Pt+61zD58EC+uwfambIy0tveteYMV9LxlFZgCpHAClBqnsBJKoaEEqT4iXZ0v4bUPn55/U6wG+44Qa91HvvHa+DiNoEpYQuIGMML9IGIV6OLafxZBmYPgvMR+V5GTfLwGSJy9IbbwkwLlVKIuRyXMCW7++RSHrVqpWVrli6dIkP2MiAnT17tgr909N2q1QJj4rtK5SvqN4llAEAAXdoIGf8sAGWCvslgMZPXWILdcH5ozwAVPEMzesm+GbnzzXgyUKFALjpGTs1IEZRGLxr3zrHpyxjFwNJQCwacA/2aH9VBqbHOlAQ5+BtDvZYo5/H6Ans1/e9X7lbJluu13TK2DFWvFZbAVgrI+4bkx/e7i5RL6i6RDhpKAcCmNzHNm1a68SDPXkOtE6GyOTopdZZMtiWiaohdadkJ5aJl2Ln/URClunKJSROO/XsgZc0qNB+/aE2nsL5FqwFDinAXbVuWbtxd/39kw+mfVShrqTg0vm1crWqGnQBnAALAIuBU7p0gnaYpbkjQLVlyxZpx7LNVZfcfZUASVCIUopkIAE+fB9wJUhzIMXVy734PtvY5wc0t7niCZbVfZHYANB6kKMSluhLRW5FQO3ii0cojUEwrE3bI4VDXqTnULVqdaE+krQOA8CGR12qZIIChakTADmrWcu5cQ4G+r6jhAcWLxNDI0zhcwrD+AnHt7jxVIAFzbTGg1AicMt4iOhVKZvIy5ItoDC4zgOBOP+5D0h5EFXK5FcCdtGP8L8D5WiwjaYWDgC8D3z9u31wrUwa2IYJGODlmjMEWLEbv/uJS4KgMrFA6fDC0+UexRUVHbVwugbWBMqgptjevH7ODYlaJSmIsz1pi/LBFMDZkbzVNWlcT0C6rSseW9Y1rt/quoGnDv1HwQ7hcLRDyQKHDODeceeobz+fM7t9hiQiSMUCVzq+pFT7T1QPEH4RT4TlOq22AZq0tAwdXETWGUwsk/Fq+Vkivnh+thL6VrxXS11lcPuC46LjFDDzbXC81vTgVuJsS3lDBm68AJdP5aV+bYwrJ322UAHMlloAF404T+sxwA0SoENTChB89eU38lPSi+Uc8HZ9jzBfzpHluiYWRFJXCeD4TrnC38r7xssqjSBg4yuQeW+U35kEyNiqVrWGTjbsE+DBqzfNsHqC1KoVb1CPFUlwALwpM+m9ZM/V/rKqmLXrET400t0hWiHxfwFcPxkcqC5mvLe9Hw3EBwO0/56X5XFt3B9oEs57r0wiXA8rDGzF84GNuVfp0hMNW5L4kCzt6/mcfcVLJ2EmPZ/27PI9fu5/5cqVBGC3C81QVuwV41asWOYqV5FWQbKSwr5UNuO+ZmVnfTt86OUD69dvvu5QAoJwrgVjgUIPuFu3rj7ioSef+HDi88/WxINhqQ1gaMBDltMUsgZI4R7hZEkYoFQi4EcwbMWKFQo20YCQX8lL3sfLVcAUAIRq4GUDkAEKVXEg+OWBycCAgWnVwKgCxvKW7DEypAC/q6++yi1e8oO0knlJB/dJJ52kS/d58+Yp8OOFZ+7O0XM9UEGsmII90XNAYrcUZtHkiQiwWfDLwIasNQATzhpPlXq9eGMsmyknuWzpCk34IJtOa8iK52oTCAkGTAx4vLw0SCcZbRy/WrUakcSOyIMYyRCz3mre84wkPRzk5R786P47SiEabA/2ZvksuuZD9H6M2uAczMP3PDwlIPdKT7PyysHi1QLABCRTUpL11KBvjGqhF51XbuzS54pjcP0lSsTrM8EzoC3iJdOOYFmaUAu1alVTamjjpg3SzFLqaAjIL1+x2JUtV1LUL901WFepbK1/XnbxqIsLZhiHoxwqFijUgPvOB6/ddPfY0WNkABRBRRATy8DYoyCJdwb/Gh9XQn7PVr4NAGZglStbQb0O+Fvf8ba4DkoADEBmsPGeDiQ0pTJAfWlF3yeMl6cR4B59nQFe/DRgNDAw2RdtvtGKIksrUyZBj7ttu/d8AL6Zn8/WY6eK7AiJFQDMZHHAo/WSM47HMTgfPOIEqeOgelJZNtsxPTfpqY8S8bHq1eHR8x4tbNAhW3GcyiJ3w/NHGeE5X09Z8OLv3ZnSAVernsWrhwagYrtNG7foewe6CkcCZFE1FfJLSf4HRcv/VdDs1zxY9aihLiJFcw5WKNi94KdOeroigM/1HjvXRVcJLZ8pk9Hevb5mBNshFYRDZ3LZuGGz6Ks3q62zpW0739c2SSpB8xQREjMmJKmdrHadOWuGAGtpXT2hFc5I2yWJMrUkyFbWLVj4rXZ1JqDWpGl9OYf45B49TzqzW9tTpx8qgBDO839rgUIJuBs2rGr44isTP5ryyuQGMZFut2XLEzVn8ORqGmpxWf7FC62QIRytr1zl69RCL/gltc9I4hVdT4DffVGTMjowTUvKYNQ26AKUDHYT11uBb+8RUdFKPFjxZP37vrwgRVMAp549e+iytGy5hEh22j4FWXS0eJnz5n2r6bnoWbMkX98Dn6czGOQMbCYTrsOK3FAER2VekYpinLPvmIDOVygE4R+RnQEOcI8mO+M6eI8VAaCP9463D1drRWvwhHPFK8YbPvHEEyUgtFx5bzhxbIBi4peTzi9BV5USEc87GgT/3SMbHfwyEPbX4nW60RSD/W37iwbn6FWHef0EKn2/tDwJptLeSOgFKTsJkJpio6p0hqAZJTZHEw2H7u97Vv4kxOROoXl9RrL96sh7/dW0ODoBtjVrVuv9y5NW7QTi6IHXuXNH9/3336sXXK1GOUls6aLt3KtWrPlSn1PPvLF2paab/7fDOey9sFug0AHuP/854YFJUyZftmHzhjg8FB5+LStI5VMB1d0SYMLhxCshHVOQyBeXkeWkSrikaAlgY0VWTFZlXRb8ZygN/KVbbYADg917s5a0wO/mceLFEr339RNi1cPBw/Q90LJdv/59lDt9/vkXND2WAYq8Co8xRpakaGtt0siTNFQAgvbeDGIDHSRegB4Abum5/NTqXZEOuJZ8kbsfW+QqWBDgad68uUrL1qxZIzSFLzpjFAKaX1QIc+bMyd8/utTiInUik44i52PuHqergLJlyyko4S1TMzglWfhgAW57YTNTavgAH3WA///WPL+lWrDPPVdOVpjnoE2KZ8kQvilnVv6Sn22sNkWMeNxoaMtWEPpFVhdMgqraEL0t9A7JHNyTGEl4wI6eihLPV86brL/du/x+oYM5LhQEXm2uAKmX3XmVCKsSiuhwnnDzTLJ8Z788f1Z8R0R4miRRuXJFneBSdyZr9+AjWzeT7bIli63ztQN6jXywsINCOL//nQUKDeDKg5x4x123f/H0U081I+K/R1JeeXAXL16uy8RcCY137nSUKylLPjzBPZlSZza2mKTikubqW6goFydVvRggeJIq9xEAs6wk02R6wPLeFEtmi/Yz8PBeLXBmASpbOjOg8BBJDWUbtJ2nDOjrPvjgA+UFAYHBgwdpxTHKCs77Zr56j1AexWJRC4hSQHS3/PR1ZUUJIAEY9s8EArBAgwB6FriL9vJIZvD8cp56rwx6aIQuXTrrsWlLw5LZB+i2q51QacBDmrZY+eBIEsQRR7Rw6zes1bTatm3bKwARyIOeofstHjNBQyYA5YjlnA94lp7vjNYpR/Oxdt4H87IHuNcDE5u9Z1y7T402isXfJ1uJ2CRkAF9MJj6lEgQEAVwt4i524ZmpICDMREMgbKuoC6xmMZMz18bzwf3wkjJfZJ0i6NA9PF/QP8Vi4zTFm+fEChVhfyq8cV4VZVu+v27deuFyYyWeUNHRjJSVyXqpTbF5y8/aQfjEE45SxyAns8iGa6676YTKZRv6OqHhdVhZoFAA7pfffNnzmmuvfnrDunW1qORFyb7KEgh79+23Jdc9VZd+M2Z+7u6++24Bhnb54ArI5EqEHw9j+7YdETqgaEQa5T0v844YHFpzloIoFPGWF+9ZppgvC5irXieDGrUB2/F9RPGmrYVKwLOlaHV9SQ19+53XXb9+/RR46DrLwAS4Wx3R2n377XzllZGeEQTD2yZDzCcqeIoipqgvQA4wU0thwYLvdOlvtAcTg3peAhrxMhHpMlzWqQAQ1123bm3t5YVH6mvZ7tXzZh9cD/YkoGgF0C0INWjQILdkyRKZPLIUaJkwANa44vEK+NA1cL94yNaV2FdH87wpHiK247r4afSA2fRfAa5RBgbE0QAcDc7RgUmOa/tne/sO7+8VYGNCwcvnnkGTALqo3Fq0aK7XbUXc2QfXphNrjld2xIgO10vhYpX+AXDx+FG3cP/QdXMcrpPvq5RMwB0qR71d2cemTZu08A0rGj9ZyMSUJ3x6ZRIntmtnZ1KMWbV079FN1mo50nMt8bkrR4y58LBCm3Cxf07igzyoIoB1UobfVXh4wkO33nPPuKvhAhlkBIoAgC3bktyRRx6hYAbYPHD/A+6sc4bIIPhWvTgAEHCJlaW6br95W2TZ7T1aoxIs/557bbSCeWnKQSo366Ptxqn6TKU8r7sVTxt9K14fVagY3J06ddKCOH8ffYeK32lu+Okns1z/U3orbfDll1/KwPQ9zwBbQIoB6xMzvFcI4CqtEeGBORdPn+Rq8ArxPd0JPKj5hANUCDZhqORJFAqNGzdSjxZtrw/6xet32RcpukuXLs0P9FmQsEWLFkpBPPvsM6rw4Lo5JsDhM9Ni9RxpXcM+8eotecDohANqCU8HGMAa4B4cJIvmX+13vmN0gu2D40fzs9wzX7THA63RDAq2cp/iZfJCYaBpwBSv0W4QUr9X7hV8OquSulJgnmeI6zMtc7E4UWNILKBUKV9EHg9Xq4mJjEwnFFFrwOGmpYmeV2gqPH0mY47JBMwkBJURR2816ckGX0whHSZTtokt5vl9VgX16tZ3i75bqoWCdu/Z4U7qeaxotIXrTyiX2uv4/me3bdtzWsCiw8MCBebh5uVlNZr5xRdP16xZq3ZcsSJlEitV2zp+7N0txt97rwBmoi7jzj33XAWpm266RcGJABADfezYsep9PCflFqmFSpCCQVm+XKIMpnr6UO9ISlFAxQP1y2afVmuD++BlqwFtrHik+RlcUd0HAFxdAERhvQAAIABJREFUcgoX2LBhfS2Z2LhJQ/f6668rwF522WVKBcyYMVMTGnr36quazq+/nue9z9LlI0+Q17EaPWHABBVgwTJ71LhWqBF+4pnyorCKedt4X9hhwID+6vXniJeGPZAoFZN1K/ykZcxVkOLqBHr4HM8VUPB0hK8X0bVrV7UTXhyTHMtdgmtQIcnJqQoo6IN9GUqSKfx1mGbZlvnR4BntrRo9YCsIUxPY+79GP9i+bJvo75hXzTVZajLbFY9MDniVBMp8yUgBPgHbJk0au6Qd2/R+tW/fXnlVPHiAlf1h20oyeWNLeHgtoiP7YCKjy0dqSprSQSoFlEmH7zFp+YlP5GhCXdStXUNWCTLRSUEfXqzOMkVJU6FCZW30iexs1+408bIJrjo5h22SHrxSsw9Z0cSXUMpp5rg7Hu8u149MJbz+whb4nwOu8GXVt23b+Pa69es6GFcJwOFZ1a9X132z4Gt36qmn6sD+cu7X6r3Onj1HeljdKjVLG2lb8MGDB2sXhMmTX3b9BpyiHXYZBFQB++D9T1Qzmi7yHPXGhB/1QRCfWWXeqy2lo2sLqDclAG26XLS0eDU+mcBninXq1EHOtYrbtHmD0BnSOUDAlVKPgCKgS5lElp9vv/2OnNdGlaT5tFjfIt0ymOihhacMyPoiM5xrEZUREZDCC8MDY0CbUgKKgDRdpU4inCE2BByNtwWAAVo8WwCE6zQdr4E3ATGuicaMdMLlnJAwVa9Wk6lAl80+6SJGwdmqd8GDw3daTQcDQK8K8XI5+xnt4UZTAxbcik6HjuZho6mIg8eZgbr38n0dXq38FSm3qJMmqxw5H/h0ViNcJ+nVm7dtUW+1Z8+eyteifcaeyTtS9Zr4ne/vFM+XfceK5JAUXqiimjWr64TN6oDWRoCmpTlzf5i0fK2F8gLEPj0a6gi7Q/tw7/fsFoegfAV9D9qIbhJ4uDzfaLCTk3fo8eCYu3XrJiCd7dq0bnvVmQOGP/IXxpvD/tL+p4ArnlODlNSkecnJ2yowKMjwAiBY7jLQKBpy/HHHuzfefk09w1q1aqtelcARZQmhDyytlQAay0K6OABWt956i3jAVWR51l88s67qkQE8eCJ8h+VdNPDaID8AwJF6ApHlPsEyaA3tFiDAyAAmDXf27JkCpOv03O++e7SbPn26eExr849RqiQeiqgoBLTwBLXpYmSf6iELSBDAsd5deDlQCfv2eX44R7yghg0a6/eQjvklMXwhrdipWevLC7Zr30Y9USYbPFtAESqB4BZSJAsIWb0DHzBEn5vmLrnkEvfjj9+799/9wDVv6btfAE7QHdlZPqvNPEi+w3HgI3fs8IXWVbMsXptpewFPsycdH4wCiPZwbWTZBBfN7UZPfgbeB0+OfN88XdNHM4FwDrYyYD9Slj2iXhB+XJ4LCrsj0WopAcEnnnjMDTlnqExkG6QDcGf1cNE++0w71B3Sul3uGTKvXbsylL8FDOvVq6Ofac1hUSxgW1YF3A8mO5JFmJjF35f7TiIMyhhfpY1JFttzDOxIAO2AptsrXrgu9rN02Q+SvbZF9lVS6zRXrVJdzmPP2ptuvq1bYsmaGw97dPoLGuB/BrhSqavZps0/L5QARgnr2aWaVa0r6wNX9cTDjRc+jODMFqlzABWI1Isgz6OPPi4AXEe9ySeeeEK6tz4oAJuoS+1mzZqox/fTytVuxU8/i/C8nnqLPOSoFAAZKzYDCJrHaF6SB10vM6O7Lp/7Dr5oYdPV6wBwl69Yqt4LgZbNmze5O+68TQctWk8GPnV1aUa4edP2yCD2gRQKhPsCMBFaQ1bjaGfxfuAZ09NTXcauNOV7y0vtBwT4gAcDlonCipVbBpombsjyFa+M8+ZlfCSKCKgA5F4MdI7L9VHAh6aYKBfwyrg+9su1Wm0BkiLo7+Uj8F6BwGeAiVEuTB4cn+DTr7XzoWCOAW50QMzGir1n+zculhUK5+prP/h9mJfN8XhZurF1MqYjBVI1gmJkeGELOHVeGzetV++W9+jgwNJ+5MhLtZXSa2++psWLaLdUtkx59XZ5Fsj0y8jP5EMV4XXN2JFJ0k8wnhf2BcyLKxibN89zECu1g31g06tdAFy241nifRQtrIAAZD8R+7rJWnVO6vfK0bRZ5saNmzXweVKPXlpbQzpNPHPpRaOG/wUx57C+pP8J4K5bt+qpNWvXjABkeODI0CGos3DhAvXIzhGvAw8KD2CRFAqnjGKfPn2ED6uvJRRvla4N90uQbNSoUW70naOlUWCGgkeXzkdJwfDvdEkJN6mNGCskynItQZfTDAyWj3jC0bUQGPR8h8EJmJvnBDjimZrHRoCFlw4YWaqynGdfWnhalAHoW/dLR1iWrF5qJRxxUYnqR9KDaQ8DF4237CVmcIqiThAboJEFJFNTkyOTg9d64snDP5skiQmDYwFCBLLQ8OLZ4bn7aHmxSKH0DLUbIGxgBv9oIA9osJI44YQTVIGA98y+2Z7r1XoDWpbSvHCv6vBZbL5rhQEpNommAaI92v1RWXhGMRg/y3bYwEpF8jf3DNvZOfMAGu1ghYI0ICgep89083Vr+UxrPgivzH3Ct02UZT2BRT5nO7h2zp97zzIdr/TDjz+SCViSY2RyLS2TaLdjj9H9MskXi5X6F8WpYcGKaJd6uGiTExJ8mjTg7ekZUqUTNKagAVq5J+wDULfnxXTCXk1ChTmvgtBnKVKYnuL22MjoDN1G6AbqNKAq4RnmvlEYn+e4ZOlSKd279hzapUsIqv1VUPoPB9x169a8LEVTzuZhZymHXIboLg8pPFmdOkR04+TvrQrCRcUbJMuJ1FO8KLzJRg0bua++/kopBfjZCRMmMOTdOqEatm/foQ9sgwaN1JONlQc6W1I3Gcj8x3PgP4AOfUGknYeeAWFtzS1xwAI6Xu7kvVP+M2hxJPHAWLbTXBJvhuaSmyTAYplgaDQlgC3ZSLKcFGD1XlmOBl0AHSRKnCN0CC2+adPDdwEgi7KzrFfqQLbl/Dk+g61ly5Y6AOGMOX/fbYE2OX5CMK3qgYphnrtt36Gtbge48332x/K1fr2Geg9Wr16rPKK16DFPlp8Hsus88Jo9ogHW6ABTFSihKS/bluu2bWxiM2/VwNxqFuiKI6IQMS9X03IJfInMi+2ZbLTou9SnAMwShRflfa5hwYJvNXUXW2Rm7tHi4DS+JLDJCglQ3Za0XQuIswIYNep6rWcBncJkhQYXSgjvU7PUZMIiCSU1VQBcViLec/WFkWhwaVQGkzYTqw/SHmiiiQ1YEdkEZZMW77My4j5w/7AL18lKosh+JH45Oomu/Xm1xg58JbuyupqrW7eBaH2rvHb5pTcOEdv6zJDwOmQt8IcCrjxY1dLSk1eJJrIkAw+vgYfYHrzy5csqpQCfuGTJMs18aiC1DwAlBoA2CSTTR570ozt3VaN+KUEz2uWgT33h+Ynynbb6Pp6Z76q7TwGLJR8DYY+AdnEZsHzGQ8w+AXPOx0upPCj7fHkJbsk6zwrSmERJB4z4lAwMHn68RDwPeqKVlWWoPz6SIlnOypLSe3EldPAxkLZu26yyMQYlx2ZJjxeGmN5y9WnKyKSAjdg3gAKQWIdajoXXAzUA1YB3yjGJnnvZmqdCAArrdgHIov0kAMd+sBugy7Zt27TX7y+Vgu2cA9SFtXi3CcgANzrd2Tw0bKGcaSQrzORbgI69otUFvBcNuICO6aA5H7uG6AAb39FlOl62qAM4Fl4t9sF+eOxVxRvku3jsegy8XQHFRFFlsF/oFWzO88XElS1cOZwu4IuEjmAtAI6tigixLh/reelkJ/uqWJEKYqLpFlBmZQYAc43W+odjWBKJJlxEWitRwMaeKdPq2mTGREG6tFJG8tzyPsfkPKtWqp4vVeNeEuhLkkli8+aN6mXT4BSKRORmOW3bdBjTv/fg0Ycs2oQT/+N0uDIgysbE7H9hR/KOASyRkpOTdAbHU4A6YDkGIBIp5+8TT+jhylcoK51TV+dLm7S4ihSAYcBvWL9JI8ZNmjRzjz/+uLvuulHqbWYJYBIY4sHXqLDQCWwPsCTL/kvLMRnElsKLiJ1BxkOvQZJIsXEGtXFzgC6DO3oZbYALKOEZGiUhxJsCCX8DdDHCreoSV7whzgdQ6CzUBwVrqBIG9YHulUI7eLgMNgYf3/UeOQWwRfsp0lwDIiYLDc7IvqAxjJv2A9qXEATsFZBEo8vfDGad5PbsUkDgu3yP97UFuaQYA7h4tmxHTQjuB+BrVIJRFlbQnOMptx1ZAZiNlIqJcL68d7DGNprL9Z0l/LmZp4zd2SfXzzPCT85Bl+lCx2jASnqSeZ7TT4zYhL/TpZU8QMVxCXZBaZQSQD2qy9Fu3Lhxbtq0aSIrvEknJmxEvzP//QR97tq1a6dBRwC4TJmySgtxnZwHSQpxos/lmMjoLImB84Uu8jptz8Py0mdMOF5NkEF5EuFmubfcV/Pa2ZZ7jpdbWuyuQUv5bnq6NBUtV0mfSSYAjt+4SQMNmJImPmXKK/oeAdsaEnxjPIiN1p8zeODJdet2CT3VDkEA/8M8XBmEcRm7UqjAHaNUgiz5eAChFgA8Hja8Nh7W4447TqkBahNsFLkVBUXsIcQr4YGlkDhLuXIimbp77N1u9Oixuk9ogmpSuJvtfH0BP5jJmuI9osy8GCw2sAGIxo2b6gDwsh5pxEjGUKQalnlZnK95efZd8+rg+TheGRHKG9hosfHiALBv0QNtwMDt0KGjepfz58/XHHx4PwDXD25ZrkeCVNgiPSNVwaBe/Tp6/kwceHNcJ4kL2I+/kb0BjvnBmUi2FwVT6OEGCAGOWnciQo+oBx+pc2CeGYObfSYmVorImHw3XK7XgNcKsBu3avSBcd32nJtsK1pTa5SCgbDZ00fyPWXCsdiXSeaMolE1RMYutTOTGICJPbzOuKhy0aTMlhQO3Scr0NK+jjtj4Olu1PU3CJfutc9ff/O1rDBO8sE/ySBj8iLRA35WpWGyT5PM+YQGX5ISTrVkyXhXt15tDZqpHE+OwedobS1r0Xv5TLLUYo40FhUv23huS9Qwe6mkLNIqCR7XisjHFpVnV2pqsLpjm0cffUTkfl1k0SQJHqIlPuHEbl49IRNKckqSTKJlpObFyXo+pRLiP7zy4tEDxM6ewwivQ8ICfwjgyiAqc9fdt2+68867Ss+a9ZlkiB2Z7xWyrIYymDVrlvKuaGvxrDy/KEEqCRARrHjjjTekn9QX0h3hYm38CGfJNniXcL1jxozTfeDdniddeeF3WzRvqaJ2wA4v8scfPeiqoF1+4tEY1wkwA3yANoBu3OderfrlzQA4GOgweCyryQODVztQ/cnrNoVfTNvh9koBmZKl4jQohuZz8qQp6q2QiOAbU/r9ZKR7WZVmnUW8bAUjKapCB+EZn3+Wr3mlxCSf4R2bt0i2Ey+qoDGBYVMflPGAwkSiwbUIdcKgthq/pnX1AEBnCCadogpo5s0ezOEadWBgG+21RlMHRj9Ee7AGPJyvLavhQu08sKPZ0AqH8x772i096DSoJ+oVPGMfBEvLp0b4nsmuTjqpu3vxpYmaQIA64P3331e7EGAl6s8zsVOywZioWHHwLEFZkNxBQ1GeAfNUmazIJKR0I7UlvEwtQjtRvY3kBjkfo18sccXl+boPyOOMfjFbcO4kVUALwfPrhCJUDjah8zEBQNJJFgpd9uBDD7jTTz3d3XTLTSJh66jNTlFd7BeOt0HDWjoBoNuFlqtZs4ZmO8ozub/rcccM69bxlJcPCbQJJ/nfUwpfLZzV/7Ybbpkwc/ac2tizf//ebuDAgap79DULfN49+tXzz7sgUlAlRR9+pDO1a1fXJRyDgAEC98jD/v2iH9Vrw9MDJHv27KUDUuviyr+HJzzsbr/9TtfjxO4azMK7qa5tzn0mEj91iSyBLR5yvEhqxsLJAfoAT7p4DwCuRdct2OOfC+/hGHiYfpLMJga8AlusdIeQdit9+/XSVFBoE2RYNK2sWrVaREfre6Ll7fcpsCzpNeIeiWAjQyOoxrLRPC+OjkcGMFr0O0tShf3EEKOAQqdfH/GPV6BlMEeDERMOq4rozDA8W0BDl9qSnedrCHhJGCDH3+Z5sr9oz5VzMirhgJb5QPKDgYyBqsnXvCfqwYgXdvTt3b32d590TFCOOjNDP2dbA1ruH63L+a73uverlwl/P3z4hW7ixIlu5OWXaYYiwbDt21JkovW1kmlfxHWRcQYIM9n6jg+78zl73i8vZT+xC/euRctm6gwAtJ4+8UVz0FCb536Ae/bXlJONp+tlbWY7o6b4jhUhogAO20F18D3kjympUvBepGFnnz3EDRt2nq7opk55zX344Ueirf5RHYbevU92b77xpmY8Qo/VrlNTxsQ23bZtu5auWq2KZLXNufbSu3vK8VhhhlchtsB/5eH+fcyNy55++qmmmzczkJ0C49///nelA1atWqOg0bJlKwXRMXePdVdddZUu6fBqGHipQink5kpwRHheln8MfpbPLLHgcBkQROuZzefNm690AccATBqJt5wkPPHDD/rEHJbw/GdA7JQ2PLaExvsjZx4PBhD2GstY8XBq6lI1XZZ4u7O8NMoGjgdgUSrIgLFeZ/Y7rX0MXPCWqteurJlo77//gXomBDg4D7zT8uUT9dzUkxVAxrtVKI94z36A+mIzeHTRwTsbwJqXL+dLTV2TohEYevfddxVEtFQgHKNcF+fts+388tZPPhTX9lIs5cjlJ5MYnKJxtgaE9l17P9qrZZtortauwyYr/s6XesnxDXDt2edarcSk0QpcG1wtx0OXzLNhZSm5Hignuy9aBSySNEB33dmzZrtHH58g3P51urLgJ+m78aJ5Peroo7RgDM9Jjmhr2SegisfoC/z4iYbgVJ26tZSuWLx4qXqPPLOsMND8cjwCcubR20+vVoAeEY2u0EM2MRmVg+1tgmLS8/Saf754rlTBIwXeJ7/youvQVpJXZOOHHn1Iu3N0797TffbpDBkDW7VK2ZgxYyQjsIas3n50H3z4vmQ0vqk0CnJD0bm7lm2opdFSPPwSrmWrDuPO7HfuzYUYbw77U/vdgPvVNzPHTJv27s2btmx0H3/8sYBhmmhpu7u3Xn/bvfHWW7oER0fap08/N01m7HulZgJBDRuoeCqZ4m3Aq/Gga567vIdXC9fL76eccooOFh425W4FuO1BxhMiiFYuoby7aPhF7pVXXtEHmqyvV1+dqp7SsGHDdIDFSnoX3gIDHY+XAeIj/CVcNQFe0wTbctHAwwdJfHEb816KaNeJ3Xp+SHgAAiRdnCfBKfbNgGB745O9uqC0BPxy1Evh9fO6NXq+lStV1b9ZLprMCC+e6wUcOWf26/PySwpY7FMPXQubC3AQVed3gIKfgDoApkXLI8Euk8Xp9Uc8WgNTtud3rvXXANG2swnMOGHjtg2IzWZ4odGesQ9UUo+B8okoO3xTR+ONU4X+8ffI639ZgXAe1u4IO2Jnzv2WW27RDLKHH35Y93fnnXeq0uXaa69WFcuIESPcybIS+uc//6nb8PzR/84mTeVSxSbwtLyHV0t3BpbrZDdu2ULgaoe+j9JDExlMmRF1XR5w/URIY1LqM2zYuE69TsCVc7NnjN+1C7QkudjzRMow51tWrrXPKd3l2Skuz/KRmhq+I2mnu+5vN7jzz79Qk4EA227djpOVY3/l9KE7oBvIYNsm6csZe3a6GjWruD59ae1D57nYLUMHDj2uQYNOKw97dCuEBvhdgLszb2f5SU/+M1kyZYoky7KI4BBc1bKl6wTkzpIA110qd1kjVavatGknfGycPsDfSseDdOHUNkhmDd6l9+goErNbl5koGABcPBU8RQCFaDLAAwjZ0hRgsXTJrkcd49559z0Fc8TuDCS8gvvu+4ckT9yfz6tVqVJVBy2ehYER3m+KeMPUP0DzyD7xsBlkBhQEuQBTAxraa/tmhb4qGeevnlpE58vveL6AiC2dUQ5YhBtPHoE+PDKfW6t2ZGGqeogcm+2gGOD/AI4li5fpcpegF54rNvED23u1bM+1c77RE4Zpk6O9NPNgDQCiNbSmJLCf0VK5g/lce57N8/U28ktso2J0WR8l/odCwXZrRZ1SQyaJ3Aht45fbngqi7Q2giB0JNHbrdoynoOR5GTjoDKmzcbPy+tAI1LeY+8Vc97pkJJ511hA3/bPprlvXbu69999zZ5xxhmt5ZKt89UieRLiwIccCvGrWqi6gtSnf0+eZJPjKc4g9mcS4j/mKFAE07cassjr6nEm6usQaXn31VUlgKOZuuPl69+KLLypfbKsJrofJmZ5oXi4Wr8fgeT311FPcmHG3uztuf8ANO2+A69Sxi7t4+GWa5HLZ5Ve6J594xl144XkygTzjZW2NGrspUydLr7yr1fPu16+Pq1ilsps0+QXpMiKZjCWLaaCN2sWVKtR849ILbzyjEGLOYX1Kvwtwn37mka9EX9uZ1MQkaRXNwF+z5me3etVa4S8XCQ3QWGbpUcqZkv7K8hee8bTTTtMkBt/3ywNKRSkAgif44w9L9MFkIOBh4NVaAAjQYFvkYV2O6qRBM7xiBjLLdwJAR4ssiNe8+fP0eC2aH6Fe5bhx92itgcxMct0JGvkMKrwRqIZMoRNYXgOYeCemhABcAAYGCse34FtR6XUF1WHaTV9g3PfC8rIrEix8WxctMC624ZpQIQAayOU2bFiv38ezTpZuCuhz0Vwat8t1APyAKpMCXjGTAt0c4KNNBsc+KlQop8cCrBnkcIR+6X2g3q9xr55H9QV9zGNnWcznvGcJGXxmoGw0QXSgzABWl9BSk0CX3hEe0zoH26jykjm/xDYPmkBnlSqV9Jng+viPTXkOvDfuM/U4B2iaFyY+75577jm112sSXJ39+Rz35bzZOimfM+QcDYBRoAfPj3b0XTp1EXvmqle4bOXySN0DqdQlXXehYaAMfAo0XqqsYIRqyJUlvyllGjRooBwqwU+eUyRZPtAlwCm2sUAflMUmob6gvKhXUUXSjr+aN1c9bRwE7OmTVfbrpM1/yojyLHNtaLXPHTZUt1evX+bKHj16Kg105plnusslLRm9McWb+O6atavFGWmr20MpUDznlttv0/R3VCdMZnI1rvNRbURyKV2tE8unHtOx20XHdBn45mGNcoXo4n8X4E6e+uzr27dtPT05RVqOSPIL9Uh37SLXvISC7iIJeCGDyhbeEXG5RYR5ID7//HMtwILXxgOcEGne+PZb7+pDVqliJcm4WatLO7xFAJAHFw8aTWqHju1cg3oN3Ko1K9UTYUnJIPrhh8UKHAxQvA2ogBTJGMLDtgfcL6e9htSCREXES/Fg4aVkqCoAAH7HIzH+14T76cI5mtxKlQ7yfQNjBYlI7zGWd3wOv0hBFTwywIfBS+wLioPtab2DR0MOP94Q58Yg57rxxpBCoUoAlAEKaieoPCoS6YeSYT/GkQK4gBc/owX6pnPVbgURwPXFcbwsLFqixbUan8w9+iU36x8Ztlc7cvYRLa7nMH3mlXnN8PP8zYTA9ZAm7ZfqnvP13RZyI9I36ZYb7/WrNtl0Fe8Wj5DiRgQXb7ntNjdp0iStLTFj+gw3/MLhWhthiShUbrz5RvUwWU3FybNYVmRUawXcSb5hWY8GF+6V87ECQdSC0FoToo817TbnXqVKNZXbMfEBztwPAM46ILdp00arvMULnQAwUw+B+EWnDp1cX6mLjE24L1bfGXAmKAww33nHaPeClBpln8uWrZTxQYGbXLUP53755Ze7s4cMVRsSEFz78xq1H2nh06d/qhX0SP9G2fONlNesKGNm0/ok16p1S3lek0SXHOsSysZKYacT9VrLlqn02dWXjusrv/v+UuH1p1ngdwGuPAhx77w3efHan1c1TBVpFMGHhIQyGoj64fvF8neKlsHjYSOzi4FF5anu3Y/TB43OpwwovMyW4okSLHjuuRfcXXfd5Yt+IyiXl0+LrRwpjI2iobbWJSADi4AKAyhFfgKoyLD4Ht/Hu2hQT1J/09Mk8+gYLchNfdgLLrjA3SYDFu5v3Jj7pPxiSQV8gA7ZFiDJA8q5VRIKAvAFeOBQqRrFdvTO4rz4DK+EYIhlUJnKwQJJVkrQB2solJKmkw8Tji1T0enS2hxpHOePvIzr1KwxGaSrZemNR0jQzV+f1/UCIBzfmlAaZQHlwPlSo8G4ZqMHzCvnmpCTeQmcVw9w3cZLWvCHv61gTb7HGkl6MECNF4/fPGT2p9pkAUzjcfHcsRurDd7De8WzxWvn/i/5cbGex17xlMuWpXasLwcZK4EslvSXXnqpTrZpYruXX35ZnxEACa+SZ2PkJSNVFcNEjmeLrOrTTz9Vbxg7zZg501VIlAw1mbQou4jqAbDlnDiGtwE8Pb3KJNEi0kZo7dp1kYnEd3Cw0pfU92ClAjgCmHki1+O6ON63kkKMGgcw/nHx97pCOv/88/TaSdGGKgN0ExMralD1gvMvkgxCVjZ0GPYU1YMPPugGnjHQLV+5zDUV7fhtd9zmXnttqq6g4G/5/kMPP6Be7Rez57rvFi7WhJr33n/T9RZ54d9GXeveeusNvV6orLoSFGzdppXLlNKQp582cESXNv2e/tPQJhz498vC8vLSKrzz3geLVv+8tNZ26ReVvGOnVvdCWwiNQOElBjjRYlQH0AjPPf+M8m4ffTRN6yc89NBDkPzusksvF75tkGZmAUQGVICI1QNgCcosv3TZYuXVqlev6tNoI10ReIg5Hg8y+2B5hvfL0hDP48Ybb1bvh0FMQXM8U03zjbTUoduvea7UX4gvVVKBBFDXrCBJPFDAkLoNRnUYr4s3zTEBYvUoIvyteXqe7/V8NduxtAX0GETYS6PmksIKUAIwU6dOVS6b82cl8JYEIStVrKJABqWgOlUNoDFYCSpl58vh8NS5DhIkDHBNVWHLfu/heskT585LlRDaMcK3iffgZoNwAAAgAElEQVTBKu8NGoAaNWFcLtuhS47+HHAyAGb/XCsTCKsTQIllvGUdAlpxMlFq1TAJPAI4UAG8Lrn0YqWGoBKwR/1G9fW6OBYqheHDh+v3fpTV1NvSiunaa6/VSRAgBQgBz9Wrf3I169RW+sJXO5PKZHLd/M6kipdt6bhMnJwv9ToAtaZNm2uhJNQxpHZ/990Cd8cdd7jBAwfr+UlbKIlVjHad2nfSiRHAZxWzbt0W2WeGe/Kpx5UWa9u2jVIH0CUWGGTCaSR8LHU0Jr4wWSrhPaSTg/XOu0k8dbh7PO8xY+6KtGTPUNsx+WIHH0co7S65eKROzqKDl04jc9wPPy6SFPgXZbsNqvDJzhGaKzvN9T+tl8ovE8tVWdDzpN7nN2tw1I8B/wreAr/Lw7XTXLduxTHTPnn91ay9e6qVjE+QG/61tiOpX7+hROR9FJcHliXk3LnfSCGbslJq8XHxOjvrknDiCy+5e8b9Q+rBNlWeleUa3WatnCADygMBLb93+RTgmt5zWbhwvk9LlSUsyz5oAM8NVtWBQ08xL/1Jki66z0vhkhs1iAKYsh3gePbZZ7vrrr3OHSeZb/wNAPMiUp4tagAvp0pQkGaZz3mly/c5J9NXmjfLZ5wPfDL7KiU8nKWAMsh9EC5GBzMeEoOEiL16WrI/0lTZBoUD58e1qwcv1wa9grrCJ2KUOKADVj7Re4+AFSCDisGUCur1CkfLeSDcNzUC1+iLrFNXVyanSGaaSbD85wdohmh5WDTY6gQUScE1nS2qDUCMe6ByOLnPXK9vMZ6goMKEyuoH8Myl/5i8OEfVKMsESBS/niyt48U+NhnkCbIPGDBA6YOnnnpKwfPoo49zjz3yiHK39GhD3YJnx35JiWV5TlAJKssHXfeK3pci8J5SsAQKn1EXp4D93cJFqgLhXKxdDnbnHlAoHw00KbZlxOZrpS7y/ffcLwk7c2UVtUbsSYC1qBbGZyVGrzlWNCTy4MFyz5lsPPhKum712sJDtxAZ2HQFb7hk+GOe7S1bdij11KdPTwVYJmPoH2gOAPv1197Q53qKqHOYEHgeTz/9dFdfvo+HffLJJ0tNjy0uoVyCBh+lLrVrdWRzoeRayz3Y65q1bPL4mX2uGlnwkHN4H/G/Alwz3bzvZ970+tSpYzsIf4WCgLYtDCAeLi3CLA8dIPL55zPkYUsWoDtDpFwXSB+wz6UW7DbJzpqqFe8vvfQi97e/XScPhJcWMQAY+AwYHlaW2zz47FNlZQJyuFh4POPvGatqCQJrHI/t53+7UAfHgw8+rNK13r37uk8++UQLgjBAXn31dZcpAErwxQI7nruVoiTieVnwCJDBY+Q4mowgA5DrNI+LIAe/4zlZqqild7K9L2ruxf4MDAASSQ/7b9eujRaumT17tgYCLQPM84hV8ukVJjIAAtE/wGXptxyTCQJP1Qfvyup2eLEcJ0Xa5eBx03HCZG+eYvCeKNcFMBp9YKDLe8bN2n2OBlt7L0dUG96j9oE2H4zyPC7XS0oqE6QvB5mdX0iIyYCaw7Gagl1U79eNN97opsszQhYhoIVqYMiQIQqiFCliMjr2uK5uzOgxUpRmj97Tswadpdw2KhNWUlwHgUlSZJkktwrd5fltP1FiB1YFtjrxmuADhWfoAIINVqz4SWvvMpGz2sAj5vypIdyjx4nuisuucK+/9bobNnRYPoLUqlVD+sQ9K9K15gqWeL08i6Z+YV8m0YMCgyrZnxujBXc4jylTpiiIsj33jJUB3jPNSZGG4el//dU3UjfiKAHnXKVX7rl3rLvyyqvd+LHj5ZjUltiviTeDRM2BXfbLqkrvpXDpO3fukPk3RwLPbcXzx6MukjH8nL/1rV29+ezDGwYL7ur/EMDldOfN+/q6OXM/v69zl44KJu++/64u2XjxcFetUV3pAfSOM2fOUS+suDz4Odl54s00EnlQtlZI+scD9wvdcLz2fLKoMkszmkUim8ELXb9eOD3hPQF0BhFl7WqJxIeWPQDJ7DmzhNtNlePul7oLNcRjWKTFbwAqX6Q72w0ddrabNWOWe2niy/L5d+7pp59W6Q0vqyFgAKXRa9H38pNBUEF6sAGgaZKpJv6jBDBiFVAAuPXi9VixFluuAkIJ9LbSoiaeP8SzZAC36XCkTCRNdZAzIW3fnqRUAAMOwGCpy98Arvf20ZH6xocMUp8dBh3idbeWBBEtzbKlLO/xO9sZ30zxF5tsPAfr6QQeDA+cHoA4FhMHHrcWMxfbqpZZPHM8d+4nf+PNAhJ4YTZhch1I//gMIKbFUIYEVdGfkhKLlpj9MhkyQSKZQkd777336+qir2i58Wzx5MrJpLR48Q8CiMt0+08/+1hBMSamiCSfCH/avrmCGvcZr3qv2MuDZYRfFnCnji0eMnZggoS33SUpxZyvcc9cD9ePCuYR8aJbNmvuXnp5okvanuyWLP1R979s2QpXVILC2dn7xSuuq1XweBFE/nzWTOWozfbsl553efKT55CgJsdPkrHCcQDmozod5W6X+ALUF5OAUjByfgRJCQYDuIMHn6WrpPHjx8t9opNInnq07aUaHAFCnnkm73oyFjg+x2XFRaYaEzorEILd5SskuJN7HS/z9B7RALd5cWDvaw7MHAWHP4fdkf4wwMVyMiirvP32qx+4mNx2GzatE05roduetFUDHKkSwEIgToNCPJFU0b8mJSVL7rzP2MErqVatqpssgZEPP/RZVPCal4641M38YqYrId9t3qylPOjC98nvDFAyubx8SQAihiaCmSKdWqIBpb1CIuNFNG/WSo9zksht8GTxkNMlN//2v9/urhx5paYJU/R8wqMTNKDm8919xSorXwjIE2TiBfgwgGsJ8OJNbtkm5Q8FcFU1QIHsSI8t86gs4r5101adIABhr20li014Oak9QjAEoGnTprUOPgYM2XKsEgh+acdg0Xtqy3U5Xw/AXmoEXZGfjSbgy3tGB3Ac69Rg/K0J8s073xsBad7/RVKDgDMgi20Bdbxnn+nmU1rpJcZg9907oHyydNlL4NQ8ZtMKa+F2WS57yiNLz08TQQT48Arx4NasWaUF53lWAFvKK6KnXvfzRpV3tWvXwT322ASta1tcuvKyj8zMfZLe2lS756LdbdeutbvsysvcwAED3QOPPOS9ZFm2MwFgb1WpiFJE6Qs5tp9Y/CSUEykHabYkIwyboQiAm6Xw/Jy5s6XpYyn9+fBDj4nXKFcvNPh1112twIZdWrZsoc9uZck+5L7hHcPHouLRSU4oJxwPZFw4JlUkFZkJqK509r3jjjv1GYcaIGhHl4qfJRmCCQVFDnYZPnyEfk7dh7lz57obbrzeXXX5FerJU2u6Zo1aCtSci5Xm5Jqq16iqEx6ZiSqJlDGwe0+Kq9uwkjuydQtXKr6CO7Zb94uO7XDqs4cdChbgBf+hgGvnvXr10j7Tpr//fO7efZXgq6geliJV98tJZwQeBI1wiwcB+OHxomDYunGHFIqeo4Ei+CyyxHhA8GzgXhfOXyBc2In5+lEGPg80nO1eCWQlp2wTD3WF2ycjAAqCaH6lSpXVAz11wBm6dPaFt7MUULfKRDB48JnugmHnaxrleecOy9eT8oBzbANY7VggA1WDO+qhUohG5G483PKfClBWCMV7xT4IxQDD0+OBryT7BCjhYrl+qAP4zN1S/5S0XlMckD0HSJo3SHFsXkwy/G7eLUChdX0jnOnBQS/T0Vp9BPbBuVnFK7sPOZGMKeVTkXrp+fu2MYAI+9HofUQGZrQC+lsCXUwam6RQTK3aHmhTUnaqZ87kghcIVeAleFIBjFKKwsuyXabI3Pr2O1n42sVKFdwh0XgmHUBl7Nh7JYA60Q0aOEjAo6ZyoDQVbdKkkXp7Iy6+UMEfwKKD86pVm+R7Y9ROTPC80IFzzucMu0A9PJ49H8yL2FNAToOCostOTU0Tasl3Y+A9vodqAU8U7XO/fv3cM0/9U8+d55WfBHkJqsXKhId0i/PnnFBSXHHF9e6x/8fee4BbWV1d2w+9Se8cei8iICAIFkSxRBRFQQF7F0QURBHRqKggNuwlKmqMJXYRoiJNEASkF+m9dw5wDv184x5rL+B//+96/RJNYqKbi+u0vZ+ynrXGmmXMMV98wrxzNEJYAyTJ2HjSylXwZrFSGwSJ30racI45RhVn57aVNT076aHwABsMa4Jn99Zbb9vzUpDNn4dvjEgPY1K1apXkD+ee7Q7MdBhGUwR9CQB/vzaIULBzwF4ZgIsFP2vWDDNfwnv2S7xfXUny59ZxTherIT0pX7bMuFuu6yUKWfH0fyEO/WZO9U8B3Dh6nw/78J2Vq5Z2YgGvEYCNHjPKRQC4T5myiHYKGFnUJMPGjx3n5NW777zv5AAWE8mTVqeellxz7dXJZZ27OC6HJYSOLhYSE5IsPzSx1WuWO26Gti0AwTmOKVBYiY4OEgrZZAYFFTgk0fj8IfFeOT5iNIAVE3DLJumVOr664bCkZCT8A7gx2x8KC5TV1rlzKclXW6plgDIhkchgcCJMm0t0w7fLIsfSQkg8cF4BMSlIya1G7Dq4vfsNUliMJOtioQBhEerqsZbg4QIM6SoqIewA4MbkHOPO+SPIcg2RKRGtzkjGj4wMQgrxfbZwdV8h/hqeYgTiGF7hc1EDAX5rsJSD5c/mQoyThU18Eos30q5iiS7jvEOti8aIroXH0avX7S7R7tmztzjLrdWZ+R3Tuq6S0BGslcFPPWtgI4SENf3pZ58mjz/xqMEQXmrr01u5IwcazLfeeoufPR11KViBCpimxqQPPfSQNwI2c15sdOG6ciZLli33OBeRNi7XHWlwJM14JvyNZByykbj0fzjnD46TQvMiDDVaXOAlS1frPrq6coz39u7dV50okuT2229Tpdi13nwmTvzeBgJsGM5duVp1VxzOVRjivPPa6pllac6VSI6td5w32/r1G/j6xoz5NrAvlJwkVIVnFwR2CMXo/bKo2573h6Rhg+Nd/POMJB4JydCQlc9vV2gNpouLdxTHBXzHj//WSUTE1w9laY5kP5isXb84aSRvof6xiJ3nVHiu1uOXX9yr928GCf9FN/pPBdwwubOKffDxO59v2rS+JaC1QLt1oEFJrUsLb+P61eZksqN/9uloWUOJQPcvyfnnXej4GfzcN954XbHefZp831hVi0Z+mzejD1pEkyqXkxMiyjrZFtxwRFDyJ73vuDuZPGmqmvPVUww2WC2ImbAomVSxbBUrDUAqrEUcCxKC+yVQlPUc+ash+YJodhDt5jNYHtwPbmPJksX9exZWLJyAt2txa3GTmfS4toAYgBvAnBhqYqDF8raugDL7aCdEpgIhGGK+3Bv19jEWy/sBP4AhCn0DxpFWF+lZ0ZqNxQyBnaAqOjQBXF5NUCWogUXQjuIzkQoWucZ0YrC1LIoR98n14qlwLyxmgBD3N4YsovIWnQ6QsaSRIxoacKJ79LjNx/rDH85y8pC4JOXY8GphupBAurj9JepY3NhVizBViHHXql3Nzx5uc5o21po1qyez5852UQllv4zJ5ZdfKdbMBCWxVKGmDeuCiy52rJxnynhj9VoEXpYg11xGHaDj5hoqzoIlzDhxvFnTZxjsTpUBAFeWe8QK//rLr2w9wmzgd4zX3XfflUwRQ+E9KX8VVYffq6++WiDc24YBfGpcev5jzT/x+CA9r0SbTi17dVdecbVj/LfedrvDGdu0URCzdbv1VAyeTTN2MVmlTXifNt3c8px4XXjRhd4MMDiYE0HzQzrOmoN0Uwl85PKhalEdjAuqqaZj99kOaiPcpPvNkrV7hoonaOm0f9uN11x3elqpptP/RXj0X3+afzrgxhEcOfarh5YuWXhPsZIlbKXSd6p2nRpJxfJlNNEPOgaXN88xmpSLlYmdrN27jHUP4NPWP66uklHLxWK4MSEpV69eHcewWHRUjtHHKoeEprEEWCBIF3bvdpdcXlWOWbFLya4Kle065s6bEplxvyr4rKFXWEhAye2FhJ+q72ci7tyR7lLdyLGNFCkscH7v8EhqFFkQUJGY3JFKlFMdBFjYJzRtbovk448/9TVSpcQxOf8R2lWwojkv18ZiiaI0UdOBewh6DcEC43veF3t/cQ1HhwEitzYek+cRk2acC8A1yKYeVGQXYE3yAnwAViw/wHXD2nVBaEjhhKj8xt8I1zg2n3ovlmFVdU3g3okXmhmR0n24/fYeZhXwnieffNJf+SzMkVq16is2OVrc2s81Rz5OFsxfqL00e1KnLtKdpX2/xOsB5e7durkKC2bK1u1bpKV8gzPzxDjHj/9BoYoyyeIFS+X1ZCXXSOCIDRwvCb4q14mgd7nyFQJ7RAUcAFSk+QWrP3CRLRiuZBThjEWLlvj9XAfzjQ2ZcFCr005xrJfnQCz6tp49XIL+1Vdf63kmCgW0MQujUcPGtv6hmM2bt1ix+UT3Vcp8cc7zysuvWohp4qQpeq65VfoeWgoBlDHE4wo/5wGykrSKFVLzqZAND64FNg9WMJsem3SI44fCisB13idKXUtb29NFx2SDNpMFgyWnipS2rpEXSMPNFkkBrZeq1Wo8ddnFve7R+UPXzN9f//AI/MsAlyv8cdGPZ82bPXVIkiOrLNbAlCnfy/2jCqi0LVVEo0uWKCvLd2cyccIku4EkL0K2P6cnIlSisd+OdpM9JtQZZ7RRieeYw+W4uHnvvvtXTUJ11lWSKbsSZ7j+ZPEBOY4VYompBJDAih5kLB4WHMkT06ksYiNQFijZFdSCCwstWHh5sX41eTke/Emy5IB/PomuuPdWqneWE3h6z6KlywwGXVT7j2YutCMAOLZ4CdnxQL4PVlhIjgFMPj/Arv+Behaqm1h05trqFcV2As0pjBmLjcUUE4Gxe26M90ZaWDz30bMobgIkx/x5VS1xPYwRLnK05CO/lucZqF+h3xrMCc7NODBmmzdvMaOBeOexx9Z1XBPgJiYJjQmQJLR0ySVdDLjNmp6YtFRsEl5spUpVfBz3/NIxl6ism+czaNDA5CYlVXNrs33hpRcEbn9TZdlovYewUpK0Pu0MJUL/aH441i4hDkCdUAQFEaZpaeMwhY9ov8YrqppFwGVMXAKt+cl4k/TlGRAT5nPEoDkOm37VqrW08RRxqISxYtwQVAJIsd7ZiAHa1157w54c58qvvxEjLl6spGPZaH8AlnvkkVF5t1fn4Hi8N+YD2NTh6zLOU9QJm0ozzsXxmVPcZ1Tgi3Q/5tMe6YbEDZn3VK1WOami/xx3g/R5CcPwd0IPlIznyZtdxk5tva9isldNOs868+xrT27e/vV/GG1+/+A/Xmn2j46dFnnu76Z88+j6NZtuXLV6ab75C+bYumGSEctj4pHgwmVikS5dstzfwznsJotmjVryLFepLl0lKFwY8vqbLmaAg/v888+70ALQKqlYJxbKPmXzmazE8wBVPgug8d+UGcVGWVwFCxXwRC2oFjpkd3EzAbF94m/a5RKYurRXbiwT9KApRaJM6b+6FB/O5OfSxA8VYLnsumH5uYmkLGXTtuRSMqmhd0WaV7RYAp3sCA0rUrtCF1cJr6es15j8ihYLP0cFtBguiO5+KN4ocFiiMFafHflMLMUN543JMS88AF3WJQCDWHakGcUqtHhNJHU4P38PJH0J8qRi0cwTmBTEr8855yyLF+F+07WZPYZsPUkiaGNvKHx0c7cbpY71pjjS79rl3rB+8+GQDsekLfqZZ7Uxu4Esfc3qNfw+Eq1vKGFUtlzp5OlnnpL+8gBr3OIZcL211RvPOsxiXZB8I9QDO+SAQiPetPR8I0uD4oiCom2FDSlYkrn0FWoeAEZ454svhtuCpxCCDRTFMGhrHINri14TMdzLL7/c/NynnlJlpUNfcGMThU8GJtcr/oxVS0HDK6+8bhZBiC+HjeCgrqtOndohfKXnU6dOncPFE1jKUCV4vjFeznMIYkuhTD0kLPf5nCGRG4pwHJ5Q6Cpjz04DfdnS5dwx5cB+jJGCNjZIuK3bsDypXKVccspJzRzOE5th5vntOl1WvWLdOf8oBvyWP/cvtXCPHmhNgOIffPrmV5oWjdevX+fECAuACQXdCNAL4jC5/Dfcr0cffVige4tjT2iFIjoddBTyqMhhqickVDEmWSwQyKAPmXb+6ObHclUmH6Cbrux0XlnCe7TImKyRTlNY2hCuREqVgnJszpVTWe0YM4XTGJNSXHPksxoIU1YoQENYIJsWEBYdfN7I9eS6uU7OGX8Xq+xCZj1Y5IA38csIqjE+jCUeFbcid5efg2xjYBhEtgRjH+OxsaAhxmxZkNE6jaDO3zhfhhKbMQTBfUW9WMAVUI/x28h+gEaGBcz1x8aNTZo2diLndPGriXW//vqrpjwB1Cc0P8kWIqpZp7Q8RWwQlVPr/fMl6oKbW1pAwP3w3Cg26d//ASWirkkmTByfpKmrxtzZ86ymRQEMnOW77uqVPPjAg8n1N9zoTdiFIAr/7FIxC5Y2XkYlWbcrVi5zOOeg+KnElPMp+cn9hfsgtBDA6rBFuG279UK4lhnTZ7lc9/VX35BPckjVky869oylSfy2e/fuBl+EaXJDFRSjA6C7/fbbzUzgPFD/2HiIvX7yyWcOV+yTN8E5XXyS6nvH+QFEniPvp8iFZG+6uL78Dr4uz5q5wPPAUIjiQNGbC805g6Jd7OkXil8Us8+RZWu2iihlPBsYO+QbuBaOCddX24wkVZdaO/jCCy+wd1K/Xr3+HdrdeN9vGTz/kXv/twFuvNilK+Z3UKfVv7I4f5w/R7Gs6W71jXvN5MbqXbJkmaksX305VlqjTZM/vfKaeZosCrRBVy5fK8uGkt7A7wSQY5IHNgJgAvUKS43vowLWFrmlhQopo61A2k7xXpmQAIUruVK8TAoyADMA23FczdHo2nF9UIRsCQu0IJdHEMN8M+8ylYgqp6wx4Mu1RQsjLIwjsUKunXMAdDEuG0EWwOUaIjhHl/XoCi+AMXZMcOZdgM11xYQai4zjsTA5fowTR6HtaOEBdKHjwnaFVEL4guvi+mNSkkUfQxuxwAOriHvj2XEdpaRhsGzZSrEIrk5eFijNl1TiFVdcZk8B6/+zz4aK5ZHPnsfpZ5xmQOLaXnrpJYWDChqQd4nVwbHY5Ag5EFIaPnyYE3Q5NXbb9f53pB721YivlFQdJWBB5Aih+uzWQ0A1DOsPD8NdnnUskq7EK3leJUoVlfi7wj5KyjK2CAsRvuBZMMaxPXsubfz8bsSIb5J+/fqJw32bhZPuuedejzHaIIS8mK8P9384OVNCMjAWopg8Y8s9s/GcJQsdzjd5gGFDh9uTAzyjRc14HqKbhAtdVBmmuDNjxO/hq7u6UCE1jklyj+fOtcf38z3GAMezXkeqkpC/Hx2n5tjZZFCwNjYrGcl8gMnB51evWpsKRzFPRBNUCGSbyoMz9uwQDa1FUl3W/aGDhzZc1eWm0ytVqjf3HwGf3+Jn/u2Ay6CvWLHk9B+mT/1T1qG9VbZI7OSHqZOTjZvXOU7LpKlZs1bQOZDYx9SpM5KxY8Zp8hHTTBz/bdrkBIMv8bX5Cxc7VsvEAmCoWENZDPcJQGDhGtQUa82rdiyxG28UbWGRsUhYpEzAmEyJ7n2m/m4xG/2dBZjpFjFHylmj9QjBPrIEgjKYJAD1fgRFmPhYQyHhdkSIJgBxqATjfxQV59ri+bHSvCB1b1EYPVj0u21JszCjlQR4Eao5Op7LZ2LCjfNH6hnHd4dcWY2UYWeKH2yqnH5HWCSyIQBiQAiAioUE0eLmOlngxFqxfNGxpcFjt24329pE/KVt27YWpKGdOeB0XrsLnUB9avDTejahUScxS/iq3I+lPgUwPKttSozBsSbrTnjpEbVtYhKQVMNaO6XVSckP06d5Y0DdjdJg4upQvGhRRAw5XaALW4ZnjCziZuk5U+kmzrhDH5GdQbk1wMO9OcyyLyQR5yuJR3KqgEJPyIlWqljFliFjiWX/1VcjfK/MReLvyEZWqVYlWaekcJTc5BzoZJBkk/Hr0BcvSspJBocQU0gKV1GslmfKvQfvJbSlj6GfHCm1N8bNRkG6uktonjFmbJyEI4KQzxJ7CEXU+4+/8Z/r3aPYbAg5BIDfLV4zynWNGtVPyU6utQeZN08Br53tO7ZonJSoVR6xdetWppaVK5P24a033dvhtwigf+89/yoAN170klULO3/+8Ydvb9y4LltWdpU9SkeWCc9EYlLi6kAXorQXwXJAixfcT7q25pOAzir9DjeLLhNwVE10l2ZvWDwhrmUhEGVtqd7iZzrhuv8VvF5XrgUXFhBCzSqwCQJTAUDZmVIFc5hB3N3gnsFZTZXFsiCwoJxMC6wBFhDv49i4iNTpA5IbRYeLlnAohU3sskUGQLRoOUaI3YbEDtcawwiMEeAKrYhKLMDR8cqURRO5tE7wpSrFYigkdJ0IrXy4vn1a9KGgInTW5f18zrQijVvoKmECp2lwjCMgHHuG7d1zQBKJvf1ZFLYIPVAaSwEEhQAs9JUrViYvvvSiqVJffzPKsorffT/OAjSAQNCnLeSSVdxyMzDEoabIgevMI+CEYgUgvaZuCHSDpujlPhUf5IHsr7gsgu3ME+aC+bSpJpzZVdprERvdB/KcNGU0H1ohH8fP3bEiWOr58mscRM8zg0XjAlWwfPmKKUWyMi7UINNPXgCrGBZE27bnJ91u7paMV5IO3d5HH33UGwfAhoXLc2OseDbpkgSFHsmL8YpJL76ncKe45iTPCbBkAwgc4SMdNXg2Uc+Z73kOBY7J569cP2OPQcLx2HidHEwJ8Efq4AGV1kcWBHF6mDquoFNzAeYp/PV58+arQecWe0d04lB5iCb7fj2nnS45TksrT1hue9OmJ17WpmXbYX8vCP2W3v+rAlwGPitrV+mvR4z4asSoEQ2opKFKDS0FkmRMPpfQUjSgx47C2HKFG9DeLVSkhBaRwCJ36DCdK3wAACAASURBVEhLDX1RdUMgGUPrkZDsEGlfiQCsH4MLGgcCUICEyRwpNCHzH4RmcEMDmIaYr90wWdYsWFuSsowAQ66LAga+j329TLsyfYuFEqxJxMY5D4uhXPm0JL+SM1iUnJ9zcW/BYgy9wCJFLVqtgAK/Z/PgHnApWTxYo1FohfMaNFOWsBemfsf9GDxSSRTAnJfjx2JhcJzYfh2wiSEKAAslN953SCZZKJoI4J1N7ibC3NwTFhQ82O4qQEAPoEEDhIOeMntg4MBBtkq7du3qJChdmOlR9sXw4cnJLU+21XnqaaceDmVg0dKqhpAE1VqlS5U1m4TnBeAyHjw3tJfDZrRfVKcWTmLBpZ6pOcP4UDBBIY01E1IdOLASN24J1LZseg+bbWGFKhgbNnn4vChtkelnHnAc2rd36tRJ1322S4a/Gz/Rz7CVCi84/2LRGUnint/2Ajc3LVlcfcbUAmekNhRvlBqz3coXXHnVlRYOZ0NlrDWAStwlfv5suHGDZh7wDAFYKVl4M2D8KR8PoYTApsFy5+doJJQqXSJlwSLneDDcG3S+lOATz5h5gOYC1YsZuwLrBhlHNnM8hThHiONCJ2umMF62HIdc9RkKevJ6ngLO69etlL5FISc+mdulS5V7r9v1vbroWlMtU39LcPrT9/qrA9x4yROnTnjyw/ffvb1SpQpeaCTWaCbIIpwzd5bUolQuq8lEFn3sGMnjrVwji1WqWaqcKVqUWKlamTvTSjmsWmXL1XLywLxK1LUSAw8gDHgCKvEVMvnSKZCpwyQPPMZAI2PyWoxa08uUG/E3WXCxZJiFQGzwMI81BYyx+ivKLHIsrsdC5wJLQIzzYJFhAbFpsIj4vduvpEIIQVeXTHcE0dDOJ1CBih6mlUULNy6euFlEvWFzS/WKrXmouIvtwgFOFm4gzSMqtNbnNIgrlBBc2v0GefivnMNt2QU0gCpdCebN+1EWXZpKTYdY1Wv8+AnWRrA+gCzCVSvWJL1693LLHICG58OGgTVIQglXvXHjJo7Vcw20pqHbB0UAs6X5SjyX8aerCF2isX4pYAGICxeWNa6xLFSQGDZlxEhnBhphdMsP6BkxFgApimYkjapVq2r6G5sZYSg2bEqoCTWsla7zJFEVec0XowA9XrM15Alw3XVq1kkee/Qxjcd2v6dfv/usEUEJO+/bqjlDkherlw3HXof+ZucIHrBAkLnFc2ZT4XrtSTgZSGw+FMpwfTHE5K7MsvwZf55j/ePq+SvjjrXN37G8oZCReOZ9HJPnSCKvaJHiEu0Jc4s5G2l3HJ/r4hoZexUtJU2aNRBboZJYQ8t0/WKYiNuOh5Erp8B/X4bF9aGr4ZWovP5gq+Yt7zr7zM5P/DQE/bbe8asFXB6DQKPcK0Ne+r5CWtkKOXJmaeF+mUgAUJNRnRpE42LippVO00TKnqzUJJgxfa5cRwXFBLpQW4L7tsWZ4UzF/ZhwTCD0CLBycaGKFyvkrHTR4sVCMoKQgSYq7AgmZ5Tuw5IMlmWIt8HtdRY4FU5AW4Ad39aWXNrDsVb9PmSdw8LDFY9sBlvbCjVQHEEGGsoYJbzBbc5ngMAVjNlyABgmR4gThw68XCtgB+hGgRmuj3NEaybSzoi9xtJcFhXjg7XC33cpqWSmggAkiuwwvpHill+85mD95jDQkrSClrRBixE63jPPPm3g7NWrl4W/oTm9+uoQlcO+bZ4p4jPENC+77Arr15JgulDx285XXG7d2Jq1qvs+SDSxGW3flq7477mmKqETwGZASTa8X1TGuDbuP3tqzLiu3XJxI+WPlkQOlWjg4Trj+mNFhwQoIBUqAksIrA1YKs4gW1+jRnVvNmyYzAssXI69avkq3/Pdd9+dtBCzgk4MaBdUFkeVMMRqAfKbb/5ZzRtLuq1SWXXbNTijKKZnTBKW8eX5YknyHPbJaGB+5XND0Dy+Xn6H5cq9Bc+LqsiQBLNHkSvQytj0fIyMkOzDKAHseO6IQME7hjnDnKUQghAMz5zWV2HzDKGgmCzEAyAMw+bkUFXR4B06/i+repeU8Tg2z5BNEV0HKJp4AYekr0uFEnM8u87Z5ky19qFiKUnm3N/3hQa/W7tHNpVfNeDGyxw7ftT7iut2pOb7iy8+U/nTISV3ynhhENddvXqN6sBPVGXaerUdmagFv1w8ytBt1S4abV6UtAJMg1WnuKWy4BC8iVWxEKP7zt+juwcox+4ALAwAh9ACL1xeJid6roFXKaCV7COLwiEGhRdYsMj3HaZa6TzECnmP3UAB7X5ZsoRHeGGJ0NmBgo/QhDK4iiyQ0H8sWDlYLY7/ipMaephRNcWGkW4ARS4RuhmLNVKDHI9OfZ5NJ8SVc8jVVKsY9cTCqrV4txYNYwGg8eL8vBfAwBswK0LjyYZTukzJ5K8ffGCvA/EaAOzWW2+VZfeJqr5uPMIU0TUDVGTAx44da1A98cRT5LqXEUugtH+/du0aXwPH8PgKHFC/4n6w1hhv+r7h5XAvJFS5j10KI5Ek5Z7ZHChfdfcEASzlwHnVuQMwcxsjARnPOoSlcgSvQhsN9wTdj2w9rdKp8KpVW5QtA12I6VMAgqVPLLp69ZoefxgD+7W5knTj3IgY0eOMWOz551/gGO960Rffe++vyZRJk71Z8Py4TzMKBK4kTdngeDY8y72qXONvcdyJJzs0pWQpv8sSjSs+O885iZ5Hri1W/jnnnK3CkEXJKnl8zGMsTyhqk76f4nNjlbJJk3A215owkX5fQDFzNjbmtzdlPWOXnWs+2BPQ/cbQWUlVizI+iLzj7XF+5uAxGutduxFr2pNUq14lOaHx8bJ2D+1v1eL0+9qc3nHgEdj57X73HwG4thTmz+0oi7SPFMUarVN8jdY41JFb81S7qVkAsmpJTFAmSR06tBusBqxVstVYjbsERIAnk5oJhKUDLYxJ57p/gTAAymQ0D1WiJQYZAUyIFeKWCaB1TAAcuAyJt+1OsEXBcSY1k7C43HzcUwDLIYqj+LqO92rBAQgsKBYdMn4NGzZSbPeYw0kqSxkKcLGyKWHmWrlGV0PJunfSR8AEAPAV6wwL31VxqQo57osXVkssesDCyTokYryoVIANYQauiaQdoQsWHptG7EgMwPKih11niQlRr/+ESnOhc5177rlWdeO+a6qwgLg78Vsq/+ixRcKpVavWCin0dudZKq+41jxyidl0CDMwjoXVoYBrYHMDONFBQKuAXnlsYowhDAgWvava5NpyP5G6x/eBtRHoZLxCyEgbLCEAezihywXPBcs9Uu8AJ8YakGPDgRNOmCaUKVfx7xj3beLk4nmsWaPQgMYaEFuvAo3q1dkgcruaDDbGccc11JzIk/QTBQxrGCBmnobwTuBI08kiv+Zo4MiG9knBgwkFC1xL4GaHawYAQzUfm6Fi8Hr+XB/FGPRrO/sPp4fml1tCOTVvQXD/u/GTD3tvZr+kRJRy6ARszGGDD4UefI734E1hFDDmIe4f+vcxxljfCK0TmmEjIgGd73DeQIL2B/bo2vZLPrN+qnFqjk3nX3Bhl6Z1zxjx24XbIyX0/zFjsGL14iunT5v0vPqmFTAJfP68pLToPbHKCeuBhcqipNvrgvmLraFQTjJ/O2TNkNWNxRFM3D1OegWrgskNfSwUR4QhySagNuAqNEDGGvfQdKhU1VEuJXAALl4OBWjixfgpX1mQXAv0MgCQY6HFWgBrQO5dXgmTO4YmgOOrecRaYEUlco7FC/AYKASKvNCCYHHwWX8uxTpgEcc2PwAWljnjsEmxbywdrFJzhXUeNgfGDrpU8aKlDlvRZMO5N6xFXvF6Ud8i6cL9kZjifSSIBjwyIHnpTy+bC03JLpYqLbxhjPA9WW76czVv1tyW5XPPPecYLhYh7i+gkq6kzULpExAHDXzfbQZA/jt2LEDiOCRNiduy+AEUJA15JmyEgENMSvLsArMjlD0zVvwtaAmHuL2ThHoRq92tDTWWeRt4NU5sOGzcUYSIjYUx4TxYdCQ5OQ/P9aDOD52NLhAUQEAJ41mc0fqMZKpYGnRjwKKvLiYFv8fq5rNs2tn0XEnclUiFhLgurpt7jDKXxFW5h2jBs3FyHKrAkGDEmAhhoix3dGhyQgNvkqvVxZf37ty11TzeWTN/DDRIhYw4f+jhp805pZzG3I9hpjhuHBfAjSwdLH/WEEUcjD0iTqXTSjpcQYUoWtWEONgUihQlpIeu9E6HAFuddpLvrVjRUkN6dr3/mv8YwPmFL/Q/xsI9+r437d5Ubv60mc+PHD3igmOVKJgu7qVlF2WNMBmp2gGEcZFnz5pnNsMWWSVMMvRzKT6wewYPVrMD9zLGP7FyOE6mLE0AGbDzV01sJiJWgMn9AmIvEGXpIyfSx1ToKsR+gwWNuhaLGC0GihewurAOwuKCPhbEZPisF6TAMJ+SfIETuVsxwqqpzgUI/KzxpOX6eFntKgUwfO/CCqqq9H1x8S0BDBgS3lhEK8Kyw2rBmuI9gHvBAkV8HsaP93IvsUAAYHSbbwEuiw4LB9CDsdBXQMr73npbcUudl5ABmggkk6BGIa2IFYscJ0DEWFOCG/QVSpmDCujQiAHKViwsIePNeABmeC+cl42kUaMGBrsodxkTlYUk0M418/z4HcAanlNQW4uUuzjekeoWq+t4LjzzyL2O8oyRNhctZApz4qbGeHIuNgRil2Tze/fuaV4wlWeI2n8kqx5dCLC9devTXICBQhcxYT4PJ3e3tA08T3StMa6PSx8TrDFhGhqGIpaEaHuGx5DvefYAPkC5J/OAYtg75F1UcfJr8aJVISGcsd16uTNnzLMnhUcXDIocpt6RrOTF5hy9M2L93L9zDk7QhjnP5sdnyFFs3SLlsbIldb7KyVT1YCtUsKgkQzPM8+Vv5nDTWUICQdu2q2nqwT0Sl28a+sVl7DlQr26t27t0vPW5XxjPfvWH+48E3DiqEyaMfm7qzMndiOdhxeG22Q3VQiVMwCIsW4bW2BuTOfPmWtoQVyoQ9AsZMAopORCsHfF8tchj2W5+JRUiL9edC1SCCUhxTBZlDsV3AU4sABZxpGDhnsfkWhQ94XMEzbCoggp/AGtzfRXTxVKNyazYhddWNNQ1xfnKysKiECDUye/3dUdRGq4xgnMIFeT3sRAbCVnpEKogqcK44NqT6OBYgeaVZSBn/KLSF9fHsQBaFh+Acs01V5meBciQbe/Q4SJrGXTqcqn7jr3y8ivJvffda40BdGOxnmjlfd999xmcuCaugwROcImzKf6+Jcmv58AGCOgD3BRccN1O8KTI+yFOGDYojz0x15T1msshlKDHG0Ar0Lh4GYhSQBznTKTC8XvGGpea5+iMu8accY1gy/dsbqE6K4A698D78BLIHTQ87liHcvCsEOLBK6FV+ty589SV+inNydclwDNb7Ira/hvJKc6HlVxAFiLXvDNVAcmYE+4K4jihrDuEF7Id3qwJq0TGCOPEPORz5BtIGtapW93XumD+cm+g6zes8nVN+n6aARdvjjEk5MKcjiEKnhEbMfODMWKuuPjHNLBAH4xlwZzf80+dN05o1jCZoerQvArX7dihjVstiABfPBbGK7/CFfSsYzPI3AMLJ7sU/5o4OZm+fef8Xt1vaFO8eIOQMPgNvP6jAZfnk5m1ttK0ybO/Wr1ydS2stNVKvjBJsW4dc1PSKpZnUv0ze+4cZ4oBKk9qmZgsIP4TmyOB5BCA3K/YAy1OtAiCTrLJ4nWxQKpggIXCIsynz8W6dSZsdsXYsDSChShzVv+JufLeSL8x/QfLiCSGwxeKLStBxMTmPXyWRcIiQIAcQOHYjgHqPbw/xCRVIJDqFkypcrTiAVKspEieJ0mzW21pApgGKzBaNAZeUb04JpsXnx006FG3t3/rrTccKiAswL289ec3kmpqXw4Hky6xvP+OXnfLKl5vWlMOWVF0kY3NMCPvOSbGHGNUiIR7NmiQ4NR5w8YSYt4AcRinwJsOlDTc2VDmnOH2R8Saj5RzR+pbzObzFavPHkcKxEIYR9ahARTecxCGj0UjbLJUqmGFM/6cwxuZriuKgA8c+EjSWG2R6GX2yiuvOBTBe5l7MBUo4y0qCxwls2+/HW8NhMpSPuMcaIFgFDimbKHzGNYKMdkYi+YZB85tfl8jz9A0ulQJOBau2SYKZZE0A3BhQcyds9ix2c1b1pklMmXyDFu1WYq5Mp5w1vH4EJEnvMTx2BBiso61wrznXBZrQl0zFYqJXw9l7VOVZwN5M+/qc9lsrDwkKx8xHhpaxo3QG65CJ4QZ1q1b5TAHBSent24pD29X0rxRs77tzu0x4DeAt/96tbB/xqBqQWUf//3X6Zs3bizgNtQbNzhphqVQr/5xIWaV4ipmyI1DShBrDUMot4jdMAOCmLf8WwEwk3yn+IksXF5H7/C4U7Z4xVtlAVBaGUsjea8g0+cL5HJRwlL0MXZ2W5SpRc31kMAipgcgkfGN1iqW3iaVOEcQigkyJi5VdfAdWbRuRqlrjBtCAKhU8YJMl2iNc/0RdCtUTPMCWq+NKfCQw3UCYABtBFnupVat0J2DeOvgwU/q2AdUmlzDHRT4X0pJtC8+/zypKV3jBg0amup1/XU3ysIb7eovLNOqVar5OtjEeDF2/N50I21ysAgIg/A9iz7GYyOvGFAMCcPQQj60os/msAbXni5mwNEx2FiSzfE5VmSNALgxFBDZB4AXRSwRSAHY2N6I3mqBDRCq+kgCsumxSUOH432tWp2iLgsUZyzxnIobPVYwIjl4A4Av1/DHPz7guPdk6dyycYY27AJweTDZzXQJbIHIOIhiS9Gdx2rlPuHLRgvewCfQ5LnDwsKKxM2nk8T3E6faGt+wcbWFdubMXuC5kVfAFzag2II+uxkijC3uvql2mjvcH+2E8H4Y88JiwcTnED045iwhg2effcZhhpNbtPQzPkuC8qtXrXcFGt4l83mdNiOq4ApJcnLnTjV4FTsoI3ObujA38saWdSD/ptNOPrPzaSdf8M0/AyN+Lcf8j7dw40Du2rV+1PKVK+pK8KQ0E5AmfsQUWQhYZ7lkZRJ/3LJtqycOsUm4hLSqiUUGZJABX5IRVOEAqFGNKVaPMbGo5Y/uLfXvVNhkKFQRxGcCFxQwN3C7Q68sNB0zFjsQjwMkHYownShQlgCLqIkLd5j306OL45jio/cREmExYnmUUZyaXnG8KAAJsb9gNa1cQTueUFDBwq8k2hbuMbHT6Ka6Wk3pLCwhNqqVq1Yc7uCApCBuMloIJGG4ByQIx4yekHz40TtJ+wsuEH80v9rTP5yUFz+1Y8fLBYI/JpXKV0nOPf9cq3259FWLG08DqxDwZnOJLjPPhvGLvN9Y1cfYINvIdRo09Kx4FgA/xwD4EJk3R1ghBTL+bF4AUgwHMAZ8lvGMMXa+oqcQLWeurW7tOvr83sMVbjghoaBir1vTWCtW52dcAQZ4qHhSzCVYDrnpAqzxYZwfeeQR6/pS6KEu1h6/d955z9VvQz8bltzU9Sb3IwPYdmuuER5iwycBal0O1Ok0JxgfYt8ugFH8P1rd0QvhurF4mcd+9mz6KgDZr9bxoatGw2T0qPECSqnJ7dhoWti8uUtSHOBw/wCuZTc3b3DByF4VtKSpszaccI7F827V6jSPHcZLVN+LGtB4UmyQ0lFIRn8zMrml+w0C1dXJmLHf6HoPJSVKC6Az90sW81jNiyVJpcrV/bxoCoAYDvQxQgwk1tIqlFCPtmb2QkoWS3u76zX9L/+1AOQvfR3/NYCbnr5+qBJC+6RcdMnS5dP7Dhv+zQPlK5SzlTJG/bN2aUGyWLFOKlau4HFkMsFDReQa65ZJlj9fIbdxAXDjZCY0yHFIGuTNG7iwxNJwybIJ6IiFRdeORcTCIIYZkhMhq7xHIjcsyliMQALNv7dubKjtB4iJfbHQEIumbp17IN4XY5SBTx7cO4CKjYVFsnnDxhTtJ1QOwWqImrimrymMgcsb46eAGbFcChfKqZQ1shBogUMMFnABBChzhYVAhRSlrQAQDQwp2wU8O19+WfLSiy9JcOgHLewz7BUAVPTmInnJpsa44q5incV4LmPDOaZPm+nx5l6IHyIEg9ziDz9M8+bAM7JnoHvifmLsObSQFxtDVhvhC54RAMLvQvlpiK0Ts4xWvKusZOHFqkA2oPy6NnsUAlGeASWvfJ550qJFC1vj/CcMBeEfsI/Pi2NrzzLg8ozY2AmtUNhxttXCZpgvjEdCqTbjz/3x+X2aJ658lChOdONjYo+NN1adkdTi83Cd0cngurCa6aIRPS/mA/Q+eOoALgLvY0Z/Z+rckqU/OuQzZ/YiX8NBAXiQcqT55mIVcTROPvr4fTMNLunYSYL9oXMKyWHisQB/NfVfY8OE9VNAXOFIE9uv9vAZaqg6bty37in45luvJJs2r02+/GqUZDcbqkXSm9roq8vLqZEUU6kz1ZrwqLHWc6kJKxYvz2vN2qWy8nepw8SJem/1RPoO+5o1PO2Otm07P/tLA96/+3j/NYC7e/emzxUXW1G9+rHd46D+MP3bSWo3fUIZtTCZJmX82UqckW2mTQ+Tn0W/fdsuT2IqgjZulNh1LpJO0G4kLA5fUdZW5ORCqmd3diWQqm8ouoALCTWpsMpIAQxI+ME1jK1NaA0fhD+iFYOFslPN/bDIcqcSNbGrbXC1cwRpRGKbsqit6gQVTIAC4MaMtmPIiicDfGnqHsx7+BsLljbblhkU7QwwjfoJxI8BGI7PdRYuFpox8jksMV4sbOKPWKgACCBUQjQ1ZAT79Lkr+eabb9zskdLVO+66M/lAxQ9Ypc8+o9bhumYWLPeMO8qGwX2bMyz/PQqT87sQU9QUVJybZ8Az4ZrZIIoVK+7rw5VfJWu9rLi4qIshKs7fOZ6LVUTVCzzUIDvJpkpibvuOrQb8WDyCpQtoBPpfkM0EYGk+CfBDNeN33pwM7tt9/3wfNo389jD4fBSnBzzyKg6LBQ8TAP0IxNehYW3ZQtPQEgYsPg8PmPnEOBGW2KVQCM9zt6xAQIcwA3/jdwAwYMRzY1PgOgFjFMaYCxgQ3lQ1f/FOOO7GDVutfEbbquOUyIMGRsQBC5dx27J5lzcNqvR4RqiwEZO/6IK2KrbISB577DGtjSIO/Tz++JOqNCuaEhIS+0Pzu02bNh7LSSrgiI1IqejM3LVPz25lcvU1lydDv/gwuezyS0Tzm5d0vLSzNuVG8iAzkz/e92DyzYgxShzWTwrI6ob6x+bA9TG/uX6MljVrl8kIOaRE7AWy1i2+NP+Wq/ucUaJErTX/bqD8pc7/XwS4W77UBF1cpUqdPpqcogWEV1bW3jrvvP/231QKXIlQAC1RVqxZocVUz64YVuqKFausLkYjS5IbVNzQ9dTJC1GhsDZ4AYbI55mdIMCFIsPCJGFB7JbJSsVXqMgJNetR0SuWTAaOqXiitOORhbNaQBMSQDkNUvBk+Rzfs9gAjpA0EYVLYADlJhRpBMuPjgXBmsvj97NweRE7Y2EhC8jfA8AEwAAQcXdxr2krX6dOLdGGfkw++fT9pN157ZKnVabbu/dd4s0+42N2uKiDkosB+GmIiFvdrWs3n+ea628wBQzeKiEMvmItMQacB5oX5yd8gSVo+l2qFxzN4LJlCwlLgJNxBbxigULx4iUcfwToXnz+RXF20500hJPLszCYaqHi2nIuAAoLnc/DdogaEGw2eBRsNIE6l+ENB+AlwUf8EnAFGLH6gqDRTgM3xw4qacHd5/M8n9BFY2eyaP4CWW9Fk5nTZx5ekxO+H+9iEDYLNjGeH7KOMf7r1j56Xrjl993/oEVh6O2GBR3vnfkVC05cIKMXYExsmGcyVFrC2wRcpaU5zHXVrXNcMnLUV47Z4oGgK4LwDLQth2QyKJYhCZvLm1tBGQjjx3+bfDv2K+kLD7V6HfMR8XTm1TXXXW+LFquUeDNrgsIWKJahXxrJRnVNORhK3WfOmibvQQlNzeu+fXslq9etTX6ctzDp/+CApKn6+Y34eqTCTpcmJ7ZsbuucUAlc9MBJPqC1hFUNT11C81uWStipkDsy58lxjMqv017qev39N/9SoPfvPM5/DeDu2L7hay2SBRUqVj9s4R49sBMmfDN0+cplbZGeWyeK1Fx1eWXxFlWssLAyyYtFvg9Z/WxO+rDIiGVFEe8iaskSRG2O0ILsEirhQwwR0A0JmkBJOsLjVCuTlHXH76O1wmJCmYpOwTF2BxAATAAFlJ4gZpMzcC5NY1JCQ9lfwCa2VQFwQzY+sBsAPPRkly5edtiKj1bz4RigrGKAA0GgYiWKymL9WhSvidarhUJE9wKswavUBJHrpU0MVhKgAOUJARmsrClTpiRPPf3s4XHhvbjWgH50xWnLwoZFaMKFBoxhSjCIsc0hKynwP1URmGIrAAjESFu0OCl5++23rZ27QRsIOg2AOi8+w/1Wr1XbYxQ7T7AZRZH5yK2O3gFSgrVr1zTYUtnGuG1UghVLnGfJuLEhUtiBhYrly71gefMfgOa5AZjcE7xaNk6ul9buLVqc6I4V0OGgyvF+wgyUJgNkgHDfu+/xeznnhRdepLbmLwjwvnSLdaxhwi6RW81YEasNjAWUvMKmz/xo1apVctNNNyUzFMqhqq1pkxP11wNJ8xaN7c3cdGP35M9vv6WJGJgdGUp4IsQze84sx+Vbamwnfj9BG2J+FatcaxBFf4EiIUAdz40Y+yi1aec6SAczN3jm5jKLTshrr0JinA+pTowGro2wyV/+8n5SSvmQ7YgIHVMkee/9v4qjfW3S6PgGelYb3ArJ+Q1kNxXDVsHy4bCdO2rLAj6UtTdp0KimNsQKSqolq67tdmurSkWOW/rvBMyfe+7/GsDN3Jn+0rpN63ZXqVLzcU2wIJT7P15r1iy9ZfrMyU/J+smJgtiPC+ar0GC3q7qYjFhX6J2y+GgKSKNHt5QpWcZ8WBZz5BcyCZmU8Fi95mldHgAAIABJREFUMGTtAhhk3Hlh1YUkEIsUKyEAZiDkUzkUhHAOWL6R2NbelNBOOf+8UN0RAH0AhuPggnIcknqLFy+1K8mx8Mi5l1jKCng7KSLLLxLZcac5H0pT0Z3m58aqdd8spawWLZoLGM622wioUpJLAgjlr3bt2hkwoDQBRtepBxeC4WwCUIeKqzsHm1BkF+DSo2DFImTDWLtudYoznNPWGPfDudesXe3NbI8sRyxnNrdI+6pYUWR6VWcBau+++37yxhtvJC+/9IpBCuua+wKIaQfes/ed3gwifYqvACrXF2PmAA4bAEAM6FsDQ+/jmgnHULXF/XE+LGUs6BkzZtri5TPEn7l3NhOOzXEjqKOTCwgC0tDlYDdccmlHH4vk2NjRY5Mrrroi+VxsDpgdV6h9eyFxj3kNfvoZaQff6/BVRSU1OQ4CPYwbc4NzAj6BhqX+Y7puLO7IFQfceva41c/qxRdfdlNNmj4OV2JOOTDpGagBqYoOqMqrf2xjeUewAw7YGp8kq7rdBeersvKQYs6dtJn19nkZ603SeOY58fy3CIABWqxZwiaEaQidMd9heWRpXVCOTYdtypvxlghdUFoMBzt7ii5JiAr9BdrGE5qDH+42RpqneJntLvyD5zOiRRMnfq91gY61kpf7t6kDTOHkbAniHNBaK160wts9u9//H5tU+68B3F27NjTYvDnzZCUY/tfqlS1bVtQbM3bkHEBvmzL8Bw9ld1wK6wYAWEdlVarTAW45C4l4qOlIChsQYihUKDAGbHEIKKhCY1EE118CJCkaGl9D+2mVXaaT5AiLh69BQEQUNC0sQBwLihfuLXFm/ob7hgpZ6CAcYocxfojFg1YwFliU+3NMM2X9Inh9RAAlVDehScCxAJi//Pnt5DS5bI8/+ZhBB7DAavrLX951jJZFDHjgjn7xxd+cxINXm6GwAADEeCH0oiFxbJYQCtcOGFCWyjFjTJnrC6pn0krQeKC6BZhwvTTpxMqkApAX10zlWaQgsShxyz/66BMLlBMnhdKHS87iP+W0Vodr/2PCMfCq8zhswvVwHjbL6JpzHlPKFG/l71w31wuAs8HyeTpzsDktX77MGx9AzHv4HtDlOdLoMYjfhI2UmG4UUOfvbgv19ZfJqaecKsvwB7V+/1SewbcOCQBixL4XavOkwSmhJPOpZco5hisPh3g233NNsWwb9gvWOeJLuOUbROnieG3anJW8/PKLmk9ZyfsfvptcefkNiqtelbzw/ODk4o4XS9RpkoyL9OTctmcnH334kTUo+t3bL3n8CQmkVywjMD3F8W9e55x9ruhuLZMdcv2vu+4GbRZDrdnbps0Zvh7OTzEM8eId6gAx78e5yecKcUyfPju5pVsPh9Uqqf08181zr6aOF2wgaAxjCVPByBw5RjKaJD05ZlNJcUbONclStE/YNFknViMT+FaoWFaC501Utrw645w/tL+3/bmXPvlzLc5/9ef/awD3/3XgBGTZdu1a8/6ChQs64Aoe1O4Kb5dJxCIsKvAL4iL7QummXjAZmASEDuDdwlOMcUfEY1jMAGQoF5UYS4pjyiJxWxLRhygBxkKNLc9j5dVGARrfR4uXRYtLxrHQMG0oHjHXI+0IL/ogcEP7lKIGWqQGOU/k7AJULPbSJUsZMLBGXCMvgjs/X3ZZF8dYb+3eLbm1Rw+VX26RnN4ZthIfe+xJWbhP2B0mngjAvfzyy/5aRhV7WGyEEmKXZRZPNllIp556skMCWKA/qjsAlC7Gg44cXIu1CCSjSJggEva9eUhis0A+WANh0fGfhcxXNrcQe90jV3ei7iGUHVN4gRhLsxOa2xKlUhBiPxsDYZJYBIKVxXjFzY/nwLjFSrKYwAwhnhBPR6yG93MfMS6M1CEgS381AJ3NgnuLDTRLSHs5ei/8fsGCHx06ePihhyVZ+UzSR00luebOnbqYvYAEYv+H+ntDY2PPV0A6F67ygp+qrtCyFgMtrHpKU2Grzxc7gFjAiNi89IHRSiCkwZwh/9CpM89JxSriU3fpdI1DHLvFdWU+tTr1zKRmjVrJqNEjHApp3qylLfhVq5crNtve94wFTxhl7OhxybeK7xIGwQv4+ONP9fN4Vxjy3HIoLuciH8WIsZCxZLHSO7S/xCX0EydOSh5SI8+GDY9Lrrn2SleXMc6Udg8b9qWup7KTkDQJyKkiDWRKCc3xvDgm44B8JMwhGgpA+aNl+8FDmidi+tF1mU1SdXbT+vd98kTNMdnz/xmv3xzg7s1c31kLd+DePXtnCgP+tGDB8ruWrljVglgjgLBixXIv+HIVynsRs8hwxSgLBniXK8FGkJ9kDVYUsn4s0lieSwyXBULPNCYZiyGS9WNJ72YVNWAlkqgB9Pn+vffeCwtL7ibAwbWwEMlMk7wZM3KMARZAtzKWkh6LFi8wyX2BEjL5ZRGZEiVr26EGUW+4ds7NQuL+KL3s1/dOLfgHZTF+mKQp3ntXn97qgDtF97bGIHLssQDvY+aLAq6Zu0NHgJNOOclAgCttYEASUdVFOzO3Ju3at3VMj3sh3MFCWbpkhRssco/3//FBfWaXgZdzcD3EovMoMVSndhUBSyh1DiyFcqnNI6hWwcrgb5DwsRhhY9ATDQuUKq79us8hQ4YkD2iBY+3HODvXDGAH+cod3tA8PnropuNR8isLMXoMuLgAKxQsngfxy2Ah53dslWtg86JEGsuTsUVzd+f2XaYAEuKxPjNUN22UnTtfqjDIyx67ZbKShw0b5s0LoJkqylsNASogv0O0Kq6HeeKNXhsj44zuAGMVy47NRLCsY6h2oxya64d/DSAxLxAC37t3t+Kl78hCbZ20VccJAHbgwIeT7rf0snh4TbWLP/bYmsmSxcsN+PkFcDNmTEsGPDrQoSIs0sqVqxqU+/fvb+7zyeqmTGaidNnS3nBIohGiefHF5+XuF3O4hPWAdf/11yNk7X4uut/kZOmyhX62MBEwKuof2yAZOWKsEmkD5RXmU/hEAFuQEnbU3iifDlWfGCwci42dFk6xvROeWXZ1nkCJrHLl8opbHy87PXfS5Pim9593bqcH/hMg9zcFuFi3oo+t0+QunZmx+2/FS5Trli9fkWUrVizsMXHy949J3i5X1WqVrREgw9ULixeTZYUWPJN97foN5o4G8JFilbLr+fIGyxWrKWSZiT2F2GxIpB1R6iJrz3uraIfG5WLiYnECAGTYt6skF8DFfSWUwWQDeEopYw+bAlDh3O61hb6uwhNsDCEJt8kbAK/IXeV7FglsB6w7SP4Q4R+8/4FkwvffJW1VpIB1g0ULyPbs2Vvgjzj4RcmNN99ooGAh8AJMWOy4sL4vub979kM1ymMLDMAEfCD1Y+XAZZ7ywxR3gJ05c5ZbyxQV9QiJyY0aR2hTRYvJglFJapRSREIzxLlpiST1LlGSguWL0lkS9BvEB37phZeSRcuXuLfd0KFDTV0DbAE70+30zIKUZoi9U6ody3kjC8S98uiowAaVYoewmfCZ+vUb6I4P+dmkKxzEZkFCkjg4QMAzPL5REwFeDrEMfjDVifFZtHCRvQa6+DLeeAV06AW00cglbEGeIJYxU5rNvHFzU3FuY3kxG1uFCmnaxChVP6IhgeYuzz9S2HY7VBVkQXPIktyjYgISfhUrVLU2cdeu1yvWukfgOcCx+Xff/UvS7vzzkhtv6uaCBnryYaF+NvRz5y0ire+pJwd7s+d62ID6/fE+ixFB9eLcjMGPCiUUUXiNfnRzJJ/5ksqbfxSz4ZlnBstaLSKrVBlq9RNk8+f5QY3Ll7eQwiFFZQEPTEaOHpWkKUwA5TBIUAbr3vkG/cz626hqNtYZGwzW/261h0cIh82F3bj1qa31bNKY95uvuv6y5hVL11/yawbe3xrg5tyxa/37Wl3t1RZ6tMpPuyjltFngtF+WRO05c6YN+HLElxfgqq5S1dUmZVPdTpuVTrMGfQUQAB0oPysFgEk2icDoj/yNhQpwuFRVllSI14bF4P5TihsDfGullA9hnleXyzpaYav/gw9LJ/YE6cqel5zU8mR3DIhtVsy51LFjmxgsnbKyNtbKoqKf2Co1ZYwJJ0sy6roRHYmlogAM2qy4kFhDLmNG9Mb6AvuUvHk8GaY4Lc0eSZ589tnwZKESioDCFVdfZYsWSwtrD1cOkIK7C2ChfsLGgbB6YEtkM6f1umtvsMsb2+Zwr1zPn98YkkybOSNpcGz9JJuqtIjPMWaAUwDGI/3fuE6APHJpQ1Iyw5sUXxGaR2H0zLPPsjzg1q3bbJnitrNwGS+eVczys/AZC87FOQHNIipNzUQ4XgAfuiuHBQ8nu1496eEqrg+bBI8DDjZiNUHoaKPGc7k3YWhxHK9Dhw5+Dp988knSXCEPGAskY9PKpzlmyViYjZHqJkIRRh71jiOZyKaJNc44x2ad5BTYzNmkib0H2c8gnYm1jkxiqBrL7WMzLjG8Aehyr3eJJ81GCjf40k4dk2rS9f3bl8Oc/ExTldgWccnx3LAoOcegQY+579w2hQyiED9sla++GuHNA/0Hwiu4/4QMzlJcd4Nis+QE1oli985f/pwMF6sErdzzBezE+ZkvzAsSa7Bpygggi+kZfT1ylJtscg9s4iTiTLl0eXHIOwDCljlVDoP5AWuDcEZRhZL4ysYMVbOjwiIrVq9ILjqvbZ+2bTs9+msF3d8a4ObatRu5rkMFN23cNLlc2QqX58lTcKUeDiZcHk2KdC3GKp8NfX9CvvwFyqxYucRuJEmdEuougeBGnNQsSspnFy5aKXX9tUepStG2W4r9AlwWIxOHkmGsNSymdeIAf/b5x66M2rBR1osm4kUXdRYt6FzVpD+vBMQCu+J39LrLNCiLnetc5bCuBDKAXxSWAVhLFS3u+HMECjLHWMFrrQoWJBqxzAgVQPsBMJm43AdFEPTzmr9gdlK5YlVZQlKSUjvsW9QE8qUXXxFIN3BoBT4mxRjcS5UqlZ3YQSAFEFEczZZsbv0dS5lFgIVOwo+igiZNmiRnnnVGctYZbZKaohttVTz7jDatbTUBThtklRdSkpAkGPd5NBiGeGGI5fLVlrbirXy1QI02ttVr11kIhv5cACvWEIAWmkZSlhc6bvA//BxEgVx1hgsvtxxQZpHbO1GYIIr58J6c2hmpnCPk8OOP8+TR7LH3Qek1QDd06HBZfcfZ8ub4WIkkxyJVr5ieD4AMmLodulwnF6y4n9mBpEz5Uvr5gJXHeK5NmzbzxogHw3XFTQaB+LBpYTES0y1kr4aW5ljWK9QCCBD87rsJnmvE+AnxkBgkNj1pkgT5ZZ23bHmiwgVL9L5RtmC7Xt9NjI93fEzGo4TEm6D+VZBXhLcA9xYrG4YC17dg8SJ386D6EMu7varYmFc8mquu7mJKIYmtNeLhduzYwcYESeDA3ZXXkZJvYf7VqV3XTJf77rvfIYzYBZl5xNiz4RBq4HlhHTMeVvjTRh8EeNSFQh5Q6OKRoXBJVXlMhZJadWqltzn1zBtOPOG0939twPubAlwGPz194yN79+27c8fOnZNLlyh/gyxPKGSIgmI64I8jc1To+8lj+n8/ecK1oTIptDjx93KHly5bbMAqUVzlqOsVZ9uxyxMmukF0bQBwcYNwsfl9oHftSJap39e340YnzZo2Te7u1zt5fNCzsiiulrv2qJssfqps78MPD3BX265qt/3nP//FSRe6WmAFRV4wiwyWQiEBDFYBEn+xaSCxRCxxgC9m6k88qaVJ/ZT8RncUcF6+dIGtpm++GeXEGcwM6EtoTFhYXVYdbnXM8jMWTPi08mW9sWBhELfGxeQ9WPHEnPns6tWBT0vzx+/GjEs+/PjDpGOHy7RxlTpMt6Ismc2HGDmWHosraCSEmGss8sCC5PsYi4UPF2J+CLsflCu/xIBBqTUgBXPAfGZl8xkfFjtWXCx4gH5FQ9Es3Q/n5Hr5fG49t9AhQv3FdB2ZKpjAaiRWXqNG9WSx6Hrj1T0hX77AQoDLfcklncwVpuCAVvWAFNYioZwcssx4DsRu8XygzDFeZOFpbEuPPnimgLVjlnpuXG/FCpV9XTxzJ2EV78bijJRCQkDFxA0nQcamekTispTHDZpg5DUzTzIydrvqj/h3CwnCbxc1684770zeeu1tsSX+6vgzIQPGFI8lhzwW9BVw99mkGR/m8SGNLx4Mmr9bJXiervuk3f2wvw3X+JaQQE+n5Hrxeomrv/baq65UxLp2MYaeAZ/l/jg2Xl8hMRrKlSuv2O/XVlwzDVPPKVIL2fyC7kjwGPkMz4d1FRX3gtW7zZ2HoUg2a36Cx1yDPP7h+wef/GsC3d8c4O7cufGU9PTdXXdnZmwsUazs47IC1xFSiA9FEw7AleGZba9AtcKwER/NkJRhMSb96tUrk80Sv2FCMOGJ1W7etE1Z1tDVgSo2rAHcwPxaYCwsduBAQdqlGOyy5DnFty67vJNaz7zseNpU8SHJCJNpJ/v+jKxcJv9tt/W0hQr4QjbvqQwx1Cl+R2IHIMMSqCfxleWiRxXR79kEWHxMZiYok44FxP9z2p7rSU34A/BnIbOIcwlwMkXNWrduvV1mrpmFU17JKRcTaIYEPmiw1qMyGZOf47OwuRb+DijGmDXWVuS74oKWEDjQc+1pFUpg8ZDx5vPFFMcFRAE7whRYzoAdXTFYWBwnusmBBZLf94N1iwfB9ZrlIaDkPCQ0OS4l1sTEX3/tDYujA0IACiCIDgYvNinTxgT6jJu5xEr+Rb0L0/esa1DQ9DCeezV1rsVqu/fee5zIGzp0WHLKSac4fLBSJa5oMhOaYSwIj2CFEkvmOhl7xot7qFixkq5VXOU98HqD6Li7JUsNjucK4FjrAVlNAf4qucvEgWGl8OzwaIjHO84tK52Qijsnq/w6FHqEjiChZRBdTDLdGonNsN0F5yVffvmlx+f6a65Pqkoyss/dfdT+/Ul3Lub+iyln4LhyquNIrIBbtHSZN+Semp94C2u0qVZSki2PtHF5wQVu3LiRq+ewyhGfny0dhxtvvMJWMbFwwj7E3HmO8HRh/+CVYQWzIbB5sZlz7Yx5mMOh0i7mCujawjMN4SbkPZUQVbeW3bt3uHs0LBYMlQ3rN+xu1br1w50vuupXIf/4mwPcv3e3y8raffy478a8MHP27Ga4nYAAySFAD2k9gImsO4uFv88TLcoqZAJYLOBNipExSbDAbu1xS/Lwgw9oMmVL+ogt8PTTg90X67HHHzVoUHiA+/nGG39JnpYcIgtn7NhxzhajW4Drtnpt0IDg/ezw9VX1xfnhWNJEE/ESc0FhvusF+LOYcdcARrLZ1vsVi2K/kil1VXlF8sNEeyW/AIiopua4mkCIiY+rHiZ3nsPNFF1sIIsZsLRCmlxjjsPvAX+YBAihr1WRQxCszpVcrDLhQYrbAVB169WVnm5QxSqursmU41L2bCEalc0CvublplSxEF/h+mjhE8WG+BpBhXGnBBWQ+uGHqbbC3IVc/0gAklyzFnCqYjAfXYq1ke6XtZkrRfXDMo0FB3gMxHARGEdICAW0fFK7okiCpNCoUWOsO4A3gBUHuR8weumll7whA7SAXrDClQSkEaauJfCT1bRSxyRLTzyY97AZMBaELNh0ATtis1wz3+NFUfjB7xibBak4e3VpEsNdDvTBmQYaAJ5wGIUENN8MFDlAd5M8oXTHm4e8NkSJzA8cs+X50B6ods3ayelqF8S84xwAtNkUml+e/6LwcT3R60FEvpLCTny+tooexmhMJk76zhZtz563KbxwgjQWPnPylc/37NlTYvbXeA6yZlaJOsiGEBu+1laYAZU/Eo14cwAv6231CrFD0kqFjhEaPzwE1gA8XpgdGAvEuvHWyEts2rDZ44F13rDh8XgYq6/s1L5VxYr/3qTa74D7Ewi8bdv6a7QWMg8dyDl9+IhPP1N8sCZB+u+/n+TJy4JGbYsFwkQElDYqCQHDADe5SOGQgcUaPuusNo5lTlOvKzK5TEjcusKFSyrR8n5yjnREiW0iXg2oktWHFkW/MCbfwEcGJs0UGoAlESUNCU0AADADkAaMlUCbxYcEiCibJPzAi4lLHNEVXrKOAOI6cpOpagvJqf2ypFY6NIElQgkvfbdYHNC6iIuyAFwqmmp4iNUKQHG9LBoobyxQrGj4n5vERuB7kowAKeNStWplWTJviMr1gDo+HOMNiuOklS9jaxLLCVkeFnzkD3NezonVGNgGQf6S0AHXC1BiAUGXmyaVLqzH51943pvDk8q4x7JnFjkb2+LFC33NqFjtlLudzz3ngtIbm0YsRNA69v2tXLnCybCpUyYpxn6PObWwJU456TSPbe87extoAQ90CWIcOOrphkamFF8Eizy0E8xKMvaFVuh8hmtl/gCOjCX3x7OK3G02QJ4vwMUYAfIzlYCkXXmF8pX82fUabzY6zsvzX6ISb+tOiJrFGDAXbZmmdG7r1q7l+4Jit0qhB5TaJk6Yknz8yV8dw8Vi53kSYwfstokVwWdjiTueBK9JE74ztZFY7+Cnn7KVz3xijKC4caxx48c60XmWYvrkJ5iXWzaLJigrGRDl/uBwn9D4hGTMuDFuTEoVGkU5XNfgwYNtkGANB7EfKY+50pJwDWp7MjK0ucBpRi41zFPN/3IVvFGRvDuxefPXb7i627V/r+H1S73/d8D9iZHcun3NoO070/NVrVDHGg0Llk6/Xh1kn8uRPUfuFSuXaZJq8skqAwCxznD3sKAgogO8y5evdgKkaNHgYs9X65XsSjbget144/VuwdKjR0/t9usUC+tlt3CAwgh97+3jqiomGUmvYkVLeOLhcvK1S5fLDTJlFUvFciUZA7ARdsC6JLTBgq1Vs47Pu0oiNvw9xnRZ9M6MC8AKFT7G4RLEWCrLZcbS6d//ASeCCkpekOQgdDUAF0sKawxLLWST4buGtkNcD9YXSZrSug82DIA8ZqGxsOBwktXGtQbQd+nazJctCNFdUoriC1eqlOYxglWA1ey4rUIzfBbA5dzE8ACQraI1cR+x3xlVWwAXiS50aQld/DBlqs8BcFEyXEZjdHPXm5OX//RqUlfJRFe86R4ArGPkRuPCAuJR7yIUkKz1/ZwlsKaQhSoxkolLlayCUcK5opUGuHK+QP0KAMvYuReZkj/83pl33WMOVYYBhowT7+P3gA+gHzeAWIKMxRp74sV4ea1aNS1CBAOAjbG8KrxqiWtLYQTH4zPcC/fGzxZg0vsj/WyZkmBUpPEsSJZRAYcWMu/F8kWWE7Bj7DzOqe4hPHsEbNZrjvPeAzoubI70bTul8Zvq9qBnl1tFEug4PPvcE040jlQVI1oSrIu7+tzhMAPXTWyXzQXrnnAHehSUFvOs6YJMleM+Wa48P0CcMeLZ7UOi04wUSs23BIqdlNagIrpjt8YR7wDwrV6jsrWC8xfMl35m69M7NmvY+qtfCkj/X4/zO+D+xEil7940XLXl26tVrtM5vhUmw/dTxvxJLv3paAWsFvUFGhlWIeWzFjqxyIzKclVTPmuWYrsrFZfTToxYDcBMzTkT7csvv/HiRVCkcuWKTjLQumXcuHGOzc2YPsuxNRIkZHQpt2XCvvXW2waVU8WpTdM50SIwTUuWEwsM4HErlu07PTnzi17D+dy8UIua/5b+k+WaKaCF83itqoJQAVuogorzRJoPXFsxGmSFoNzF/ZQrWzElYynQFWMAS5BsdaApZbd1hcV9nL5ijbFIARMWRRQIj7q8WPMHqadH30AZ9H2KrUIlg0vaSAsDC4lXJMPjoufLG5JOUR9h1vQZtrzYhLCwRo4c7Y2Fe+X4LEI+30C0OMCGrhR4JvBhSfbsVel0qdJlfS6HQvQ5Ng0SOwAkz2T8t+MFrEsEZLUVgqllfVk+CyCfelpra/cSDnCvMFlW8cWYQAPjeZBl57VXmwYv3rtXIJ8lWhz0MK4NcAiiQkEoh89xXDZcrhcQjzrAAG4opBFfXPKjUKoIUxDX5p43rN/kMYrFKnwu0NloMV/ycAeQHNkOika40T+T6Op4cUerxfXp08fhhKnarHhVUGIP67maPCI8F+aPBZ50j9YRYefVi+Ry0HPG7Vd7In3PxglrhTDExyorPrftOdZchn54bP3ayfPPP++5zHzDSyA0Q8EF4w7gTpJXgVXNdZ8syiTKdYTZBj42yN24q4r9Qnya+w1MlMRznzHCCsYjxZtZt36VvagGDeo5gbh2zboJTz3yRNsiRSqFTpr/gtfvgPu/DLIsndy7dm2ZuWX7lmXFChfvWahQCdquHn6tWLHgyklTJw4WP7UI9BssBNw7khFlSlOXjmUkjQRZn9MlGOIuE6pkC1nf3eZx9undR0UI/ZPnnn8uuUMWLtVdJK0o/aS77RNPPGVAgfpFDHL27LkGFuK2q8QD/qtcvx49urulzdo162VtlTvMFwZYAGIWdzZZGiw+MrosZixd6zxofmKZwGAYMLC/XbYtW9T+W4slt0Sii4tuhbDNaMXmsErv7feAE3k04eQlG9SWMUDOfZVEqlCLixBL0FsIOkKAHteTLkvZYKMF0PqM0x2y4HpgfhySpRcEwtWNWGDE9UVZSidtsHBTyUg2MGLYjbUwP5HOwg61bQHohw8fbmpS7IpBsYjlGhX/vVtltmxuJGaaNztRm2L2pJqukfNETV02EICExUooh2O1ksbE8M+/kLUdONmMPfoOWPRk7UlmscEyvlEcKJBeELlXYghamrV/SZ6FRA+/g4nh8IkeAoIusRQ50vlgjQCQbFzcT3h+bDjq7iCvibFio9i1C2u8kN+zVjF+Ng7ixSHZlC0VgkiJ6JtiRbksyTvJiirXhXVvoSE6g+gZEhaAMUDse9x331rxjN+TQxgscSM8L645rYI42RpbC/CngI4WUshw8my4jhVKso0c9Y2B8r777xOYDkz69bs7KabuvozBI6qC26wN/e6777SGx9Sp02RwDEh6dO8h/ZFQHgNDAAAgAElEQVTt1s3gfkMDTCme6frZgCrp3AuWLkpOPulUbQYV/bcgThRohCTloqdAO3d7XyUKS986XR7hUqmVlUouklrbJx8MTbrd1PWxm268485/Ad7+d/Q0+2cNlCZsnsw9O+bLnVysLHCfwoVLTNcDD/qLqVdW1qaC737w2TebN29SfqCJ3U4WAqpeTAJI5TskcELpK4tv4RIoZXQX2OmKo/Stu10Oi7UCCfyWW7ol0nlQ0mKsdvsXzN8cp+/hr2J1oJ51yy23OPEwZMhriQo1pFv7nGOATRXPRSaypHQUYgkoi8GVVWJXsAABO5fmplr2HJKFx8/dbrk5eejBB1Ut9GLy/aQJaqfznl3JIX8akmzVZ9PKVTRlqWGDJgLU2fp8kZQFLIUrWcoAqIn5qQq94OYVPJzlxq3j75wPNgYLaZOAHfJ8LnXRYMMimYO7a71UuY+AG9ZqLBgIbd63WxPYXTl0X08/+ZQWUjFnvrGuoqYsjAxik9C2WPxsMJD9UUMz51TjtEH86rJp5WVNH+9nFWObgBGVYrQUyi2L8e577k7Gj/3WFhYMBUI00L94fgiwWMgopakB8AA0AK6z8KKFmZObAuDIGgE4YtiEzbdylaC/HOPnriaU1cs9c+1cn9kbqQQijAe8ARgOlStXciUfABaFdEiWch/EWGMsM8Smg5Zy5CEDjiWl+BbkLoPCG9eP7jGfB+xPPvkkhxdy6l4IC7AxNFFZLWGrfXqeG5U4IxzA5kBCOHQcDtzmDeJJY6WTX/jbl8Mtbr9PnSJandrSmgiXXdHF8xf+MvPItLXmLZJFok+yWXPtMQGJ5W5LVb/HAq4hI+M+zdlnnnvWP7uCU9Y34b3Jk6ccDt2EoiPp7qoFETkCqtRmz1kkzYgvXBrc/4GHpDmRsfLD9z4+sWTJikFA5Z/0+t3C/d8t3Bzbtm2cIVdqVaXq1e7Nnyv/NE2AUOf6P14TJ468Z9qs6fdKPCQP1igxKSY3pZC4+VifBuDNmxz3hDYTMteFTGViMlFi6QosF0NcpKKEzUnP23s5xoYrzGeuvPJyJwDQrmWRPPLIQ5bJW7hgsUWuWWCUZZYsU9ZhApJmLCCOuXXbZltILFpugs9X07G4HjLgVJJh5TRperytn/bt2yedL+nsWOXQz4dbx6Bfv/vsNvO9ZSOV7GLBcq5ASQuVXVhb3B9xW4BgvRYesT5cR+JwULhOOuVkl8TWVHjFxQeiqVGZBMCyqQA0jAslqIRI6LARZBaDnCWCQk2PV/mprFKEyolDssjhwZYUf7TvPX09bkE1LaiFQdoH9JC7ZDyR5sQa59qxFPv27euwztmy6nhfj1tvs0Rl5UpVZYWmezHHjQAAJuHGcdnoQvFAaM1ECW6ksDEeh6Klm3K9SQrywlJkSvFcuG/0Mbg3WupYFU1jFlslMZ7oN/A7dxBR0QPPic2MTSUcL9th4XIn7gTMvJ/rAbB5hXBE4DGjSob151CFQljRLQdoCafg+h+nWOkNN10v9owodgrdMPewrKnkoys2+rmAMG5/jNljXHBe7gUDg+cW1e6Ihx9AuEb70saN600DI26LuE0hGRhzxZqB1hYbcOIxkXTj+QKonMsJNlHD3v/4A29+CC6RhBsw4FFpLDQ1LZJ7YJ5i3GRXVWN2xcsZbzSxERl6VdTMc+W90Txg4KOP2bu77PIrP3yk/1Md/kl4+7uF+1MDu2Pn1hcVh8pWsWK1m37qvVlZ24pMnPLDKNGgGhE+AHhjSSe8SyyM5UpwETNjESI6s1JVaiSECBsAMEtEH4MuxOLC4r21+63JCmXIm8p6Rgh8gIojjj2urhfL6NGj1Y/qA/NMO1x8iWPID/zxYcfget7R24mlShWrmJ/IiwXHcVeuXK7GjxUc20JVLFZ3zV8wzywC2AGUDJOcaNGsRWh6qHDCULnV8GgBL0IVAAosAhYA4YIo6hIFvzkOi5BFzHlIZixetFT9r1ZK/KaoXep2F7ZNZs2d5XsnLMG1EHs9/fQ2Hi8qqAgV4CVw3FB9lGmAQacXC/e77xTvFujBJyYkw6Ltd19fJ3xwLwnxAIRYb4A9IQMsThYvHNwmTRo76/3oo4NkcTdIpqizLiM2X+yNr1XSCvBNU9+7yJWNDS4BOkpzrWcselxwo0MLG8Yo9lL7/wFuqloOizokykJSyzxmhVW4Ls8PxTyjtgHXzPHI2vM+rEbeQ7UhoMX9sxFzfirMmB+W61TowQL2qV57gG1I4gW+MdcQ1fFCFwsV7Wjj43hsqPxcRYnUG264Iel2c1ePC23fYdjcIS+8jRg1WL+48DwbC+toIweMI/0uJK+yeePgnDwHxq6PmB1/FP2rXv06yVyFyngtUQdkLFhEjNgwuF7Alk2X+cjYxGsHUGfMnuWYd/8H+ju2y/PFC2FzvvjiDma2cDyaDpi3rKRsoUL5Ldg0+MkBSacOF6sYaalj0xgWgwY9zvtW93ug/1WnnHDmyJ9a83/v33+3cP/eEfuJ92/atKTLshWrHl+xamkZJvLq1WttQa1atdrc3QNQmojZuW3LbvEkd5hAz4LghaWExXtAPFosVnMVlZA76eSWLpTYpMX15JOPJwv1txelf3rrrb1FsblFpZiVtQju0M5f3BzGknKlcfEGDhwUsrUCV8cKdV4A3QpYKDlp0UZXk7+zKAAYwIU4XqcOnQROsob0v4ysZhYxVhSLHlDh+gLhPiRj4EEGoj2WzRat5yxlh6vaGp0yZbIs0Tb63H4lSl4QFzh38oG0W/+quOoKbURQrSZNmJlUrKLko5IhWDGMW+Ad5/V9cD6KAhx3lWVfUSGBz6RO1bBhfcfIzxT1joXI9ZGIvOuu3rZ8SisxBtAoUeJ7iNe8cNECFxOwaMmEw9dFNatOnXqm7J3ftp1oToNl+fbzhma1Nln49k6Q81THDFx7gJD7JrEZAQdgMT9ZzzyU+h5ZbuHnLAN9LDm2FocAHGuTzSTKRbKxsem4vFnnIbZLGIpwAAwTrp/QUyjXDnoRWMtUwlkhjQpJVwUGneFQRRdKhOkxBrDyt9gfjXkorRFR5kLYCFYJ90qicPgXQ30dJCnRzN2m8A9Ju9q16npzJYcQPYoYXmFOsUFwDoCWEAr3QIXbl8O/cL6CEBDXU0yVZzu1AbGB8/yxvuOmw995MQcA0cj1JrQwZeokjy+bK/MT44TqyZJipERvjI0NISKqDKdOnZ7ceUf3pN89d0kAaboiQNks93lAiWHm/ZvShri4fcc3/9jv8at+SYj4HXB/ydHUsfYe2N5xd/rm7LlzF/xx6szJg6ZMmXYmk5UMMhZvSSXCAANccSY6gBwsObRisShkdSgeWEDJIawyrBX+39H79uRRZW8vlBTi+PHjPOluvvlmTbDGjnN27hJ0R3v06OWJ94dzznV4oEeP2518o0hjq1SsAP1q1asYWHELmcS4pSF2l/uwC8tnSTh1vuRSJ0wg+U+YMEli2icbXAFuADfGDENiI9DEuDYSXLlVfYTAek65c2TAye6T1Grf/mLzaGmPfWqrk5Iqup77+92f7EOEWxO+adMTHfPOFAWNsaM8l3uKwt+xAovFuHzpYt8D9xIpactV0Uf89fhGxyfjlfQBeKtWpW1MLleoAUi8AMZbe3QzBQkKHJ+B21pC4QtisDfcdEMyRHxhLESoX9wrZdycB5eX8a5Ws5qy32tMy8LCJ6kXukIEVz9sUAEoohsffj5kgPYma4sTHQj1+BJTA9ebeyQ5B0AShiFExTzh/Gw2QQb0oC3iGjV0DdKT4LgkKnHBuUesQSiDLjrRRh7vmb/xee5rh8IkIRQSxiTqA5c0K0XMDXlH/J1QD+Pd8sTmLm6gvxwb5IhRIyw7eVmny8QaGKiGkQ+4ASjaHcwD7pn7CyL6QWjHND9ddw6FIxapeANvipwFliyxWOZz7BiC1WxRI80DNlLmKcflmkhm8po1a8bhseR8FPnQ1me8knx33d3XXmaU4QzKc3ucGD6rzWlSUBuQzJ0zPTC/dR6KRthYoLthtTdp3OyrB+8bfPYvBRO/A+4vNZKp42zbtu6q9IwdtSul1e7DrxatmNXh6y+/flNufD4eNqWyQYwlmy0v3GuSQCzmJbJaNm7c6rp4ABfeKc0PSRqMF01swvffJqe1OiN5+pmB4kp20UStkMybO0PlptWT6+TyEeOqXetYx2O3qvCBkASWBYsXsIdjS7KDxRP1YBGANo8SwHSprFxz+KKymLAy1orPiPWHGArVQyycmIGmz1gAntwGYDaS0CySLrq5XR1HG/izpeYFWHSX6Dnu3vC/fZHc0vXW5LmXntZ1bpBbnzN5bNBTtkLnzpyXXH/TzXLlR5pKhTAO8cDonrqRpq4hgIQEdBSXZiHzO0o8+TtJmLPOOlMUMrEz9A9KUyxKYePjvQAO7Iz1YpUU1/hQXk0nYqx7XPO2bc8X9ehhlfYGOhsbIQmw0LsuS/eI1a0CBOmzFlaFE8cLOrvwjDf4uiMb42jAhZgff7agjrwZrplEocVjSoYGn8wR/kcdg5iUJBnGCwsVvEbTIhTWBD1fAIrjM9cAD1zsKLrO8d0/LLUBsKEjlYn1y7OmFJfwEONTUPF884Uzdqbi/hmhrFtMDSxZgP3BB++XjGc7gdUhx3UHDHgieeKpJ6xnQSyVMY+sgWwaO77nGXEu5lk5Kd7NVUjg0o6XOHbOpsJ9sKGVL1/O9wKAAtBYtBgJeEo8H2L2MGuCol+W1wieIJaqGQvygpocf4JGKodKjxX3lcfHcQBsPDuMnepVK0jL9x0dc7JCdid4o0I8Ho/06muv8/szpAd9aZcrr25Up+UbvwRU/A64v8Qopo4BYyFzb/Z7165bVbha5QZdNVlMCtym2O6Ij4d9pglxkiZL9qkzpiZrVHePAhkWROTLYlHCBqC7w3JV5OxTmOEYVc046STQI8F0xhmtlX3/KBkgN+zBhwZKfWxVMvbbb9WnalaSqVLdZ59+ThMqlL4SCw3VTbI2BaqlJA4ThD5Cg0SkIvPpZxZALHmFmB+FaqhKo6MAm0Hk2dJkkEXgklj9h+4E5Q2rBKDFbePFgoQ7imzje++/a4YAViiTHQWxTz/9WPqmRZKHHn4geXXI63bFETW/6qrrZFW+KWtR1XGy9AO47fEGAACRhIsxSK4Dt5yFCJhQiMLv7rzzDse1h+i40MD4O2NBQYdSJ+4SMWfGHFWiPZv07HW7KprO8WYC0Z7FS7Jw5MjRqhIsmkr+KeklixzGB9eA9coYUeaaTx0r8is2DXixiIN0YFEn+Thv0PFN6QZAD9P/owGYtBYgEy1Bsvu8AGHeF4XHiZUbwBUrDhsiYYRjTCfDsuZZ8H7AkmfJf5gb/C7GQt3lQkm3GN91NwyBI/F0vt+V0iW2WI5K7AzciucCUsFLE3ylaHzMGcR8emgTpYiH+x80aJCSfSdJpOgjsRyutYvORk9snpLropRvy4DIrw0MNgP3sUNe13nS+aDkl7BJZDdAV4MHjDXP+9ATwes6TyGeypUqW9TdXZk1n2BOYMkjrISq3qaNW7xZE/6pUql60qLlSdKxDt2ZXbqdajZQtVqF5Mu/feCGlbAjHn/qMdPVLryo/WEefVnNw2XLVh7qftNtx1WqVC8Emn/G63fA/RmD9z8/qsVWNSv7zid3pO/IrJRW71otIuooD780gQuNHz+m75x5s3r+8MPEXGXEBURazuWgopFtEr0GN2b9uo1W7cLSQSyHHZ+4ITExLCtqw4dLFvDpZ58Vh/D65Imnn0xqVa9pkegF8xYIyIPaUrQOQheBdEsrlhLIE/sL1LAgf8hiY0GxiEqobQ7nBUDJrPNCFyJKJQLCxM74nBe8LGniodDhWBSXXtrZ1ogMIbvy0NcAIChmO3UNxAnv6XeXQhQjfa8jvh7tmBuLkvPhAQBu8JgJsThuqYVfWCAZrWiuPZ4/U/J9R+LQ6nirxYk2AZsMIOxW7QJ27sdAKq4neq0f/vWj5DyFOHDtx6qMFJ4xjAasdUCCRpZ8fr/GnOO7M3OKHRArt6KmAZsmC573ca/EehlDgAqwjQURFpqR9eVClFQrJu6V4/LZoy1fwguBEhYSYliGfB5QDAUSxW3FUtEYRX2iDgafixKHQUEtxJi5ligibyvW7eCDmHksLgmAGgozrOMsDmsQ1YGdccBhkhj/5j7IKfCcP/n4E3VDWZ5ccMEFYqAscUIX+ceLL2x/OBREWTAbOIp7NN8kYamnK3nQH03Du/baqwXS0vxYtdzqX4CvpSdliOSXt3L+ee20wexyQow5RvwbjwGv6s9vv+FN54orr9Y8yqbGryob1iZeWd4fwjxsrlSZbRbAu1pvh8R91BV46rSxyZMKK1DCTFFRMekjO2lJw0qVGbPJEtravGn71AH9n2nyc+Hid8D9uSN41Of37EmvqVqb5yX9uKlUicKycIsGrs7/eC1dOu+UESOHvyFyfxUkUlERmztngScQ2VlcMqwjJvdy6TEAALj0MAMyZKHs3UNLkkx3rm3X7lyntJqqXp3uB+ziWFdBNyHoAjAhsYSoSANwcfdZTIAfYMsrJE1EEZJiF6ARLa5NEuIO+qOhXTfvZ4OAX4ybf2yd2r5OmAxPPPGEQHeq3b57+t7nY2JpY6VgiaJ7+76sXcIaWv7J/RLyefwx1dyLAgt4sehpWw8AQGPiZwvk6JzE2ACPmM3ne4c6RPiPBQEAwj6BALFV7hHqFRoTAOQ2AQwhg4vaX6S47vjkZnU84PrPln7Fg+JyLly42AR/sutxg2NcAIcYe8TS4npiMojrQsAci4ljAez8HU8EAAbQuIegeJXNGxoLOSQpAz0LQj/jxAbF+Pv7lFXq0mB5BdwL90DMlgqp4Bqne9yJNUc3HBDi2IRAOAbnZ2wct9TcoWCAZwn7IYBtaIAZ3xtbQkVtYGtkqNwawOdzXD8vszB0wcVlDWbIo2F+Bs3g/c4rdBWbgS4TzM/uqlwkLhu9kiAmnj3EcQlfKWbNvW0WJ5pY9Ecfv6+5D6Cu8SbMPCQsUlYbcOvWp/t+zaBI3+3rpvvD+vXr/Dss4pym56nYI2deGy01atZS8cY4P9v69et5HkXNjfUbVaTUuI66kkxQzuMsGxLcB+OXLtEfa4JIayN7NtTocn3Q9cY7O/5cuPgdcH/uCB71eT3IMpn7tjy4J3PXlvLl6vaLIYX/2yk0WXIPfubBOdvSt9ZIQ/xmlRSRFDuiMwOgiaALExGLlq+jRHeCm4+YTTFJ8VErzg5et25tT2DejxvFZMG9w4LB1WISYbGQ0a+gxUqbElz7Pep9xaKzVUlSItV23XErgXHItBdkohkEWJxMZCxFrKJLLrkkuemGm6Rq9oQ5tSyO1157zQCyVLHovhJRp8iAuCzHAayOU7eED6VORaSFdNE2AUb9+o2sOVFWGgCxpQ4LGuCLQIolRRNOlxrLcg3aByFMklf1/DkE5oABMVleWOlYtrSoYYFSmQeHtPstt2uDauuebTWqVfd73//gQ+lSdLE1CTDyfsaDuCbXs1OlocGdRkh+lwE2CMCEJFjgoxY02NIUE9BzRw1ZZ2wK3Dcgw4YJ4HEvZkRIbyGEaUInA75aU8IUrrAJRuBlYwTMsMYrVEwLG4g2Rp4JBS/Riuc9WLZs1kHYRyGhVAwUrizzC+vbera6HzbWjVLVikyGI+cLMpsAbxx3rof7oFQ5xpdtddMEMhVewmAgrBA5tby/RtVqvj6DnEB7qZKcJF1hKTiPIOBmfJ8Z/JRyDxJ41/P9fOinFggiscVnSagRoqJ55QlNmnmMsDyZ03lVZMSzz6vYdtYhKbAVOMbzYrWE/rn/KlWqqSx7uRJspydVZe0idoPwf0amBJrSSgpQVXKt+cj85X9MZObJQSeOMj7m/gOHJt3WrW/zXwIqfgfcX2IUjzqGJm1pkWoysmUrGYKZ/8tL78326bAhc7/7bmKd8mkVneCCDYDlApsAKylSmLaqpTtMBiyx3buwrIra6mSnZ4KRrOEroMsij7X4wSrc68lZXDQfKppyqfljhqg5xFupxNoit7SgqEVM0NB2JmSGeR1M8UkB7tDLLJtjg5DNiXmWVkaabD48SdgUtAiCq3vlFVeZ2kS8M1qpqxS3vrsvnSxut7XWpw9c2XeT0hLkySetB16UpHIu3LkI/KaAiUPJAsfqiJQhrOZ9Kjxw7FixQcIaxOJGjPjKGw/XO3nyVJ3vNifAcmnz+EiMBCQUuU9oX1CHAAjAAoCJljzcaMYOrYUoSM71keEGmDh+0AYOFiugFUIMeZxoCg0fg7YEAMnmCOACdlwXsokADR4AYx0s5yPx1jj+Pp6eE+/l/vksgj78zDnwLJgnsTSZDZFjsQlyTcR3GT8YD/wMHZDEIAAWQw0AIBsFmw6vUHUXQh2FJF7Ez1HbmDBP9H54T35VCXI9/I7zcH9s9hgNfB7xGhdg6O+M47BhQ5M333zTzAbfm+LglBJ/oo0vU/H5adN+cEyYyjMrhClcxhgS46WH3BptGlihbFiVKlcwZc06EdnhQwvQxSOn/dSmzZS5l3bo5lh15MjMIMQkD+IASbliorwdk1StVkk0QTGHVLjDBkDsl3FHU7iExKJKlSwj5bmZy94a8mE1Xf//teDpp9b4//z774D7947YL/j+nTvX1c3Kcaho7uy5N78y5OVhlSpWTlu6dEVepAxpz83CQXeVBZEhF40JSpx3zuwfHVJAmKaItA6wevk5dEXQ93KjmYToERxOmuUR1UxZ6LLlSioOiJ4BXYepxQ/1/VhpWECARnT/oloViSCSaSzyBQuWeJETc7NVKXduyJC3Ha7gXGg6ADCoenEsLDey9ryX8+HOotkbxVryySLBsnD2WIsSy9Yye0qYsVA5p7sxqHsrIMnviD1jgQFsm2UtUiKK20o5KmWhByUIA1EfyxYuK+ds3LiplanOUxxw0qRJyemtz/D1Ml5QxoL1fCBp1LCxxwEr3sksUdoYSwAtjMeRCqpoDR1JTAVuK24/94KrXbRo4dDSW78HjMKmWMA6Gtwbwun8jfcDCGw2gD/n5n+k2zmxqlBFFAHiGdB0EouWa2ODZqNknAFiQImkkq10PQ/YLnwGUAy9wELbInq3cQ6uwTFrFUocHc+NgkM7FSuPZeFcK1amQ0yZYj3oK5Y/zwe2APOV91hHdxe82yCVyP0Q7331lVddVEKRCo0tGSdi/S+Imx1kzJPkBHVtmD17pu+Je0anpIRKuNnEOV4BbQ4AMZrTrBPAnM1yQ0rEBm+AWOzNKpV/Q330atas4ed3jLwQNiEkVZcvX6pcQXFRAZs7oUr/tJLyHlHEIyyXJ0/ucbfc1KeVrv3/U87/cyDgd8D9OaP3Mz+blbWrweJli2rWqNroAw61ePG0c6bNnjN429YtNaG8lC9P4D8Q0NcpxuUafQER1WC0bofDm5mx3zs7v8f6YNIRJvDioRZfpZuwEg5lEaPNrZhWNf1eCyD7IS88LMmYJGNRRFlBFiOWNhaVY2WyxAAhEguPPSrqj/4tknjIo488bMFogJXFjQA7i6RmjVoGKhYl18TiB2xYCLw4JguQ0tpY0ADo4yLzvtGjxgZL0NeoWn9ZQqEiKsgouiJKFuTF7dvZkgwE/Q1e7Ljsk9Q1uLeKHihiwJ0HyAAXLMCKognxXrvxWly21FINJLFqWNCET3jRGzkms8xbFejFdj8RpI9OeoW4eSivJV4etGzD9QJscEQZL/4O0BMWQI0tCK4c9FhAteNn3H/+zisoX2WYChc3IrcLEkIBLFwTYxz5q1wH9xrBE8AFbAmbMEaRqYCFHUXPXQIsj4nriHKXfM/Y7FaSK8Z6Y2Uiuhj5dD1uZaR5xnz5P+2dB3xVZbbFDxBC6J1AEpIQqiAdKQIWrCgICGIdy4htRNERu4469jr2jr03EEXFio6AiNKkd0glCQnpoeat//44PJ9vZjQZBILf9ccPSe49ZZ971tnf2muvzYPBNcW4LJlRPnyXwk5EwJXtALzontFl06TAcfJnzDl/Nr6VLsEnn3zasvqInXK/1157xWipb6TKqaFjJeHo3buf7bO6uHaKpVtVEOB706RRs+C6G64L7pb5UIcOrbUNeTw01BQNvde1IafbQypWhWuyf1YJhx02KCjOpwhbJp/jgY8OOe4Us2TdnS8PuLszmuXcVmHhhmOq1dheUrN6zDfhR1EyTJ78xqdrk9f3ofpdqikIfMG4eQEy1AzcJIXKLBbIRIalamqKxuWodxw6obSEziL130vsba5TAluE5dz0BYXQBfWD6OaAXE2ZjsgcXIAbWigCChjBcHMActYBJeBxXCpOVGk2ATZGBYz1mlRBZlpTsq+3xcsy7dfsFvVl5Qamg876/QVS8IchoIQSs7AwUyZZD8vZsJpPKyYZHtMVwsKKCfXV5x92UXEDc3MdKbexZ556zKRGjz/+uHkjTHr/U51bhFzJCtXee0Nwx933SbzeY6ekTDPKbHaZzl1ZIB7D1bUtlsDE1XWG1bQ48z6OiYm+jrJxsiw3UcAtsXkfxT1enE84Dpz3GNBp+cpnWMbDXYa8OOdjbbc7LRnDacxkWeZ4ZUMwRZfslJTxM+LKi5hynZwyo4oV7ABcaAKAmPeyb2cG5EyK+B4AhvzhWpiKZOcDD9AJqQQ603BVQ+cKtYNMi3iE8904fmLPvkONba4SAv4Nlw2QWwejwJ4XMe4hX4733nlPXPkbRgtAm5Hxk9miDGCWH1QLDz/OK00Ze1Ur9Faz7wFqBuLKwwVZ46OPPmyDMOfNn2Pf9caNmuuc2pmeG6vLdvp/jG8uuOBiWZx+q0ajJspomwRNmvGwaWwxcYqYaq4pRHQN1/OIQUfZbLXU1LTNw44fdmnfvoOeLuft/Jve7gH3N4Xp93lTbnHaiZnJmyLbt+/4xi/3sGrVsgHPvfjsJIFj4ziJ26nUcpOQ9fy0fQAAACAASURBVPD3qrXr7EZIlx0f0iBr9VS2VlcTD6hIO12oq/RTNDNeVyJ9qtvmodC8qXWguYo7I6lpCXXZCkUnbhq+5GhR+fLz+zBLxRS970Fauuu/71Txx7Ca9kkyqrABgC8x2YxbrpK5iQYQH+wGOkYZ52zaUQEuVfgwo+Z3gArnQCbiDHCcsQ0ACDgAHPhBxMsP4szTT7bBhcOGjbBMZctWJE7VjP9DnoTOFGBkVRBy22ybTMiAQVkagESW6YpMToZGdg6AlapKD2iacYxiCMiFSgWXzULLOB7WFajceG/O2RpK9KAAnFgO06sPOLquKfXv6wG1fPkKe0C102gbHnLQHfyeBgtixzHZhGIBYagQCc2IQrkYhdBwZeJ4aB50ruONP8QxXNLzcOHFZ4kLD0SOHXB0jRou3gd06GStwcSD8+E9NkFED6Ww0w/JWqp4e2gEvlfEgffwe1YZnP9aSbyY/nD66afZ94Rz5RwBeq4Xhul8hgetZd07KZZwFROpB1NGRpp97w/o2M7iSzH4rLP/JI41RslGphn9rJEHQ7v2rW2GGkb+YYG3kRpJ8MCNa9lc11MTNvTQYN/z5v1kPHoDqVxoomC1sWLliuXDhp10WpuEA5wJ8O/w8oD7OwT1t26yqChraFZWbvXExHbv/bvPvDPxldf0ND+1e/du1khAYcqmwaoYgRkHpBfUAmoClvPSC5o3Kl+4kNtl29xwABHFM25il+lVN19QNJ1IaMiEuWGZQcbNH2Zh3DgALr9jqcmN2KNHL7v5VslKkoyILI19QGuEsjLokBXyKnA8oCv4FGjJRiEDaRvbrVIdmQ7zsmrYjee4OAe4HCPAYK2e0hK7LLOGcbLcvE888XiQLOBqpz7+mvJlIJtDrkYGw6wt+NuWog+cXtQN2KSzimw9bA+tpio5gML5Ak50iHEeZFzG0e5UR4TZNplcyHE7kHVKACfxUlVfHK+tDAzUpKjQKsWBVS0DNJa+PLg4T4CYLM4ts500LizA0Y7KuXMNw/05YHejhVjFuPFGkbuKaHwvOAcyWLYPjwvQw/PyGeJJDDhOQNzxrFHGWdesKSqKjF7Ajh8B8WKlw/fIddphau8GeobbQmoYsXNKMvs0Pbk02VwHGlSGDBkSJLZOMievESOGW3EMhQgZbsgNI4EM4wgYkjQQ+5CuqSeOn9bpCROekRnNiVrBTBTf+p21bLdr20Erq6s1h+0A8fkl6mS8RFTEy0YfNG/R2IC5QRM3RQJumtjwXVq8ZKE9OCkc9ujSyzW1VI+cfdF5V/TdnXztv7qnPeD+VnT8Hd6n5c2B+hOlp/cP/2nzM2Z/fe4Ps2fcqy9OQyQy7mapqswiTo0CO0QV5JkLF9nh+nWp1lcPvwW3i3yGFxlECCyhaxMeCmXBVpsmYZIobcvG9qi6CyBhisJNxPuxfQzBwEmkiu0mbNFMogy94GmtZ39nF9Z3381Q4WpMMOa8P9uwzLdVhSZra9hQRjeadFyrpuN3I6LcRFl4Vj4ftrA2VDEQoHH0gYZeaunMDUnmyA2LsB5/VvS8EydNNCcpBgtG1cAPuKnJlwAthmA68HPZcY4E9fCnuJDVUxdfLQFWKIuyB4tuTPeggXuOkhtYTTsuM4DReSP3CrvuXMb3v62y7AeMDju7XDFMnXImX2Jy8yb7m+vGtQhB0dlPNt6VQQJARg9RqNPxODWEMxIHHNg+wMh1YptQF1YQYryMwJFryUORnwEwGNoTw3AWGc0ErBJYXrPacYVFZyfK8pzPMQstfPCExUKOneuxQeOgePCy7VxV9ClYYj6D+gNABehRDwDQS7VdXlmadQfgMafMlvTaF/uPECVlng16gFj8JMcDcJ31p/w9AGSpIFiNffrpJ6KBRI9pZfXEk4+pDXe8Wor/Zu9/4P6HbPVETOrKDaxZdH2pEOKNEqKQO+fHBVaHYDgpdYCu3TqZ0VPLFgmoZCaMHqkWxz3w8oC7B4K8O3ahmzfi3YkvLtNIkyRuHjrPaM3dUdUZgAMK3JzmEaDi0KpVGm+TwchsJt3Wt6UaRS/XTOBManBtwpSZTAxwaNOmtYESN5SbFMtoHcd7hRVwfs9nQ1BRfrezj19TinUDoqJAI8pMtJEnjtDNsS34ZOonNjLoq6++ln5YhtQtW4t3xQdW/LBG60RKS8kNaK3CunkAjq1yS3MmMJF2TCzNOUa2zSTYSe9NMju+GsrsGU9OBb4Bch9Vl/ELYAmKcoOblm1w7tAE4X4oIhGzLZouEXakcZ3I6Kx4qAzbAEAZqQHvTk1tyDU79cf/6mjZB8t6pzagocRV5smkcBMDCHPkb0z83bLWDX0EGAFAjje0Y+T6HnBARzteriPnD+XhGiOcETnX2U2YoBFBXO7OLjZAnG1xbqgl+DfLex4YZJ6sYvid43mdvy+V/86du9rDlv2ED07LqOX1YMVaPYzdiPI0u/ZsN1qc6loZyvBCKpjUKsmaWfDwgCvmfO594H6TXAHINp9PNJDTWbsHShjHCPHWXH/i7lYMblVGUmCFxRxaidsGT2tV00fXn6nPWJOefPIZeo97ENH4QNzjE+Q2FxMtAxq1/uKDq+NlRYX5TQfNe2vbro3FPCszK+fi8y44ITa2w/TdcY/+lm14wP0tUdpH3pO/NWfAwnk/PvPjD3M6mBG1TF+yc2VoLlrBjJ+VHZCZUo1voY41pgYvWrTEKs9QEBHVkAg58TpfdL74AE+Uhv5xc5G98eXs1Mn57WIMQrZIVhlW6sl23ZRUdL2Ng40qvFnbp5a+8Jn4QFBN7iv/XikwZOx8m6K3w6rz7HfmjB+Cj6Z8rvHjkvMoGwYsynQzh3KnsDiEqQsAw/GEQwA5T8CMKQdMt2ApzPF9+OFHBs707nPDmkeAgBPACpfQ3JCcQ5itAUJkOn8++wwrnrDM52HBC20y7yMjh8MNuVSOBaDiBVg4WZhbEodja9iHtfJieg0HrPdB3diyWRwi8ilu9tWrVxlAkwWS8QF6fBbgRLZE5scynUwbIGFGGecI920AiG22dZXVdFSJ/j/kj7mWXB9ig3SO33Gt2A9SKK4XDwg6AnlIwmkyd8+2oQez0wC74mAzuYYZACrLhGoK9cUcw0mjRwXPP/t88Pobr0nWda4ZeMeqAAZ1QCaLiRIjpcI2ZePFBYBhU4Z5NiieRlMIcEO9rpsH6HjjXQoKfde5TgVaofBdJyvPFmVFTKDKoHrQ5WKiD5VAIZi40RrP94SkAQezhrJ/xPktLrblrJEnnILkq3RP3t4ecPdktP/LfWVmrj+5doN6DWV9uOirzz+foGVa27oqmMybP9e+rNb6qS88Ny7SI7hKbBLhNSmsMdASgXgDfekAF7JWsodQ68vNS68+N25sbIwt4y0LVSZFZkTmxY0LuACCVuhSxmkG5OL8HP2QJ/rgzWD5iiXBc88/Lf1rN8uODKRKdINF1JZXxEZ5KHwTZOjBkKSR6ZESzwOS3BQs86wCr6Wka2cFwNzvcbPiRuSGY9psbfX5A9D4RoScH9QE2RfHBOiEGRTgwbkANIAhNyE9+81VuUaGhA8ENyM8KLFxblwCWBUf2Sef509Ic4T/z3mFgMt+Q6/gsMAG+AK4bAOlCeDAvjmfUAsLl4h1JscLAHLOIb2Sk+MkY0zi5cXkkJBrNTtH81F2/PHPW47ZZ6ivJZtkOgQg5GgEJiMnuKnNZj3ZwgpY7BOnOh44pdLd8v0IuwyxgeT5Qvt0y3h1zIkzXS4t7YQJzwennDw6GDL0BOsIu+jiv1jhCqcyU6aIm2a7fG/gqltICUCcwlZyvhv8v3uI6KEof42w+47rxQOIY0UxEa4giGWhDOn5vpbooVmrdmTQrXsnk31xzgB7vbq4nsmkXsZKjKPH9Mll9YXBoEOPmTLkePmc7oWXB9y9EPSK7jKvaMPNOZnZGa1adXqSbaxYPX9UembWHQLCtiylvvzqC1tSwalR1afAxogVvnh02jBdNk9yqTq1G9iXGt4VMOVGBRigGLh5KVBxwyIh48vORF1ACqDjvc61a7NxvKS2fJFzZWLDUv4smYfgBBbXskXQt18P0RM4OiEvw+AlRYbeJwXDh54kH9eIYKTMzb///rugruaCccPZxAPdoWRRtOxaa7F+Dl9IZmgevKIWAIw6KvaUstxVRrZNx0BGzIuCHFlPKGUKmxOc4D/HHhRkfVTWEdY/qxluWPLhAcHvjtHIFQNHdb/xwCoU9w0oAYKhvy3bJg5sm7/5HccUZtah50PYuOIyuWqWuTIvjgJaOMGBLCwc7+PsLV2jRTiltmHDRpZ985AEuNauWb+ro5DPwZk7HfBWA2xXuHM6YFqdbSoH/gziPVFIAEicB8dKBsy+wgyQWIbeDrXEhfMeA375HbD6wbxbNLmaR44RpTPRvjvEkQm6xADj+7vuuddautkmWWgDcdPuQeTGCBWYnWeEk83RSKKsn1cYP8yIiCv/DldiIe0SctnW6q0Dgb9uIfVBS33XGjWpa5r1aBk3NVZWvim30KZ0xMo0n+MgEUlOTiu5aOwFJyW26Dilovfgf/s5D7j/bQT34OfzCje8mrVxwzdtEro8Fe5WGUuzBYvnvqyWxaPnzPnellkYegCY+OOSlSIZ27FdGaMUAiuWr1E2s17FpTomHatW1RmjmJxImSS8LUUWKsNuibrFmiX4f+sg29n5hV8pgB7dVJypbrwCuTidcfqZNm31nDFniS9bKZF5HQ1o7KzGjXrmsH/B+RcFfXseqkNnWV4jOG7ocJtC3EjND+G2rVkDLaoyXMAhdDKDeiCzKxOwOA1qNSto4QUQra48+EduRDJkq+KLf3D0h8uKuVl5kCADQjnBIEumaMA3SoJnGkycrr79dobMVy4Opk79zIArVQVIVzBzRuLs1z1wttoDxwGvo1P4fUi98H7eywPMTdmIsqo4FXKOhcwe4IbaQLtap05tM+AOtbRcNycvK9N1PNCm8RILx9Oj3HC0Bw/TEMC4hmb0oyzUmYw7z1z+Dg3GmXZAHHkfxwH4mqG6HpaAb9jwUazryeeImXHI+l4hvzv6qCPtb9qir77GTdPgdd6YC2Re9KDRNLw6qgvM+GTJvtwxOdprgx6m1BygRnCtg98Ou+lc7JxzGQ9QJp+E8QhnxFEM5roU6zsXGxsdNG3RwGRfADzg37FTB/suvC81A3KxTpK3oTzZtrls+diLr+qpzxbuwVv2/+3KA+7ejH459q0vY1RR0caP09JSJ7Vr1/WhX3501pxZTyoTPSwnJ6M9WeWSpYssKySLQTbGUjQhoZU4zu0mH1u/LkU3hLgz8bpIm9xN60CKm5Sbj+KZ0QwarthYo2S4MQEZ3kM2RqaWk41xSJQyigLTWyIpAkRuuvkGcWqxKpR9HuDfgO9Cz24HqRGDeVaFGs54ZTBfnrRbldE2Fmi7CrwbQ06xq0E91+LruGW66ZyhCktbK0yJ48wvwlvVeUdwPI5XdUC3WYJ5QA5QgYoIOdftqlqTPTKKh8wZp7Yvv/zcpiFjvEKRKlrdbnWUIbLfpLbtnOeBgA7gpOAICKD6IE6heoB9hst6p4l1gzvJPIkr/0/HIEBKxd1xvsVWNCP2FLgoCuGBwAPMeHJdn7DZoFhLeKYEI9UiRthXukYQ1w4cNmbYnDUr2jnLTf7mYck15lhCDW9oJgM3az4ManQIO+g4/mIBcDhUkiYTzu/oo48M3tckZLh9Vj73P3CvDYCk7RYzJYpjZ51zdnDzzX+3cUVxAkDsNqFpOCaKaOw/TQNF23Vo56gNzdxDZcE5sTIBpJkQ4pwLXAGT6xCuGkJv3ugmTfX9ihNgSzpXVSqGJjG2r0hl6XPUFNFMcjg4fbL2pk1bfDP6xLMO/70lX7/ldvaA+1uitA+8R4Abvykv+2XZDL6SlNT+mX91SBidf/GenFiqbu+TuiHFVZSVZHEDUcwgg6Cgxo3KzfjZp19qokOW9ZC75bHTkJJF8AUnewHguCFZvu3Q0h1gAGj5mbWCalIB7cEACZQBs67GXjRWnT6a7KC2zQRNW7CikzIZutTelg8tvrPT/zk7uPGma+1h8IpsE+sJYFkGI4fCuzUU8rMf6+gSuLI/AMhUGVbsgwbB76C6iBM3UwxaxAT4muwbNiiwJMZEhax/karpLC9XqOFgzHnnBtNnfmu+C4ygR9J0ycWXBP2V+TICHAOVCc+/YA8SOF1uflp/DWS15CYLN2MbOVU5j1unZSXOqBucbtZ52XIdAK4DDuhgjm1rNRgUwOY4sQ2kaEYMO3ToaEUtWruJjSkklKE5H9pmxk27NuEdxsFyXYkLUkAePI7H1UNB8QjpDuenQBOMM/8htnniho0i0n8/z5A1MNXoA74nFCc5n7vuuiM45+yz9TDtbscGV8sDgyx95KgRFh+aCKrpJHv3oQlhrT7PSmubrSQonrHf3rIQBbDfmviOjecBxA899Ch7UHFMALnLhl2TBZrczbvsNmuYxWi0vA/qU3iMi9Y8O7fKIt7Rui6Ma29Yv5FJARtJVqjv0bY+vQfc3KdPv9v3gVvYDsED7r5yJX7lOPSlqlFcXHSTpte+92u63RXrFw377JOpLxVvLqqH5Ivs9BvJsrp0PdBuTr6kKheLB1M32cZ8m24A2KLZxRQc7gxZD1pYsllufrIdtlWgGVgUWbAJdDpTee0KjMOpuBTPuJFWydXM5Fw7Hap4H364jKfmc2MvvsgsHltL98konrlqU0aPulYddGyLSjXA4vwL5PsqN39rnBCt4WRRjkeuJjAyfbBkZAZ0AjEz3VaGRMYUFtrqin6wabCq1M+bO8/AgOr8kcrahgw5ztzPqLI/88wz1kpNNiv7nKC2zQ+TqY3mo5HBTZv2jU0vqKlqeJQtVcnC3VQKVhNhRo65NhklLwCMohV+r2ieARZ4Z+ibhuKvaVmdMmWKgWmMKuhkdG3lRUG7Lpk0Dwiok7Doxz7QYXNcq9T4AWDSGcb501FntIcmQ4TysVD9QLxCDr6+HrIAcLE0wu592yw+kTuHgPKQI8Ys1aE85ovuWCVlRZs2B6gl94nglltusYYZ2pG7de8S9OxxkI3ViZYuu64Ar7NsRnng1ldh82xlvQsX/WSGR4D4rfrs1zP+aW3p4y67IqhbZ6fHg7S6rtvNaZ1tJaOWdaNqJC/kQZ/YKtaKY3n5Ofb7Phqjs1bnzHeWFQDm4zwsmzeLW3jWWWMO0Xnk7ku3uAfcfelq7MZjKSvb1HDS5A8X/jD/hxh4LbIhWkubCXD4AmN0TkaVsj5VmQmFKTcvCi6ygbKEwkInH2OpCeCRPZKlsqQjkyJrQmSODAc1A8babBdrO+NTtRw231fd/IAgvztA3r14ngJup556sgHFwRrJ8ujjjwb/kKUjNzlLZwfUbsgi2wVAQ6vGmqIHuNFMtaD3VRUHbVzjTver0EWvujJa3sMUXD7/4/ezbH/QCRxTB/GpAHqebC85HzqyPvvss+A4jXtBKYBqgSUpIA+ofCxOd7Rmb8FFwhUCjqs1BonsNlR7hA0RHB8dauyHBxxLeiRL4dRkPTjtQQbwnnnmaRZ3joHRQ+GkDx4WFNQw8yH7DR88XA/OA4AHiDcLnAFK4gQNtE3UB6BKNd41bLhiXkgXwCkbp6tVAefPmHcKakX5BbtamN1k3WJlqRssC+7br0+QmbHBjpOHBgZGgCdzzArF9W4Rz3/wwQNMtpUsjw1el4y91AzImciLKflp4n2hpFC7oMnFFAjviyHi8efOmW8FRTdGyLU087JCmqghfg7d0qxZI3OaqxFVzaSLJfIZ2SjFC9k9PtLQGlUlL5Nj3MQhQ046cTfeTrttUx5wd1so970NFW3LHTZ/zpyX16Wsqev4ynUGfC1i4+ymNRNv3XiAEK+fpMXky4uMjOwWLah5C+wcz+IsCrfvMhRHuYARDp1TbJ/CGcBI9xU3NDeOc8tyc8z++c3XwfKVyywz4ue0ay5cuNiOK0rqAoCCbSxftkLVa+clS9btut7qGXAWSTHBcYezrqrJKNot3XfYDUo2aZIjLfnDhwR2lwNkwffN184jKEZL0U3av1W99e/OXTor243XrLiJylzrqAp/vIHoK6+8Kr57kYZ0tg6qaXvQAehNaeJAdsd5NpB3hWmSZevHK7SZrKkimGsgcFNqoV6oyFvbsgpLznOggTL8BKN+GOmD9AlFwqBBg2w77AePBTq3uEbEyfTWig2dYGwjyh46EAhu0sNGjZ/hIQHNgx0kDwjnsgavjGbYTVcWVxTU1iy2jKwMB256QAHAPGwulL8x9A+ZPkNA39UMvdNOOTUYP368eO77JPt6REWy84I/nfknaa7fFu+81HharvGiJYvVWfhQcNEFF4njfcBGji9bukxc/RZTMfDw+Oyzz4O/jr/CCm8jRo60icesmHj4Qf+EnDeZPly+A2raz9OUMDQOeskQJzV1vbvhtIig4EnDRtMmTbOGHH/SmKSktpP3vbvRHZEH3H31yuyG49q4KWW01tYdG9WLe2T6rM9eztyYNRg6gYwWTSSZTP0GdXYVnMhoueFTKbKpKg6g1K9HtqsCigy5+T2Ai4MYf9epq+XfFtcqCeiF7ajc/IANr40q8pDhHXvsscG777wtXab4XGWADzz4QPC3v/3NbvDQzQoHqcEyMJ88ebJlyoy+oWoOlwx4hwUTc8ESIPK5fCkvyChZ/toXWv9vACRKAVqAGxgqYMr7H8hRKsf4UoCJbL+6HgoU1sgU4RnhIAEhRrrzB4rj2ecmBJdeeqmdX7os/Qqswyrajqdvn36WQVLoAtgA/ZBjhX8kA98q6oCf8X6aTMxtS7w4IIyPL33/UA8sg0MfCWaBIVkLh1CyHSRddJBx3Ygt4n0AeJO8KxITWwW1pUUGVGmQ4LpyPICUG6PjlBWmId5ZiELqBxDbg2DnIM7wIUx2j6LiIDWvsI8nn3wyOH/MuTaiiIfuX/7yF1sxYdF58dhLbNLH4qVLDHTJWg899FCjIbi2oW4aO0Zok3kCXAAfvw+yeE1TMMqLlRK0VVXZhvKZrSpuErdOHQ/cpYFmoCrXD/102CSRFNdahcfVQZ+D+s0cPvy446tU2bcohF/exh5wdwOw7aubKCnZeJ70sXViYlr/g2NkyOWE5x/7NrcgrwWDKGfOnC69LhmfzMOFo3CQZCBwqIxAZxov2W6NSCYBqAkgwrWWIiXjpq+rG4BBfLQHA8Zhwc352Eozy9JQmVTrNs4+sK9MpVlWl0orPGPGDGu4AEyQqTWRNIws+eRTTzdu9RRlVAAbS0WAhhudV+j41VY3tKkWxJ8i0UJiZEt5vUy+JY7TTYLQKBV9vqZ0vd9++20wbtwlxj/yXoBtgwzU01I1rkiNB7QMs+T9ftb3wa233aol8+2aQPu6jeDhDyoG6AR8G55+6mkNJ7xO3sD/EDdd20YJhQ0SoS8AUiuaMzgvik1hxZ0HEPE87PABAv4F1hgCOBIvHMQ4bjJolv/QAcj7AFFAk2sEgNJKSyGsZ6/eWpVkaNz7BuPWKbAB3Cg9+JuVAX8745zqtvLA24E44neA3I7jZmrxJx9/otFI1wWPPfaYVC6LbeLx+PFXysj99eCkkadKX/1mMOyEYZracW3wiAaYvvjiy3JpG27xvFuxufqaq8zb9gQN50R6R5zO1xgmzv3KK6+0rFn9drZ6CM2RIvVdI/PPL8g1jpZxN3xHmki/iymSo0Nq2990K/Ki+Mi1T2yZGKyVkfvB/fu/O3zoaaP21fvw58flAbcyXKUKHqO0k1fk5qYXtmnzv7pdNvXOu6/NTk5N7QUft2LlYmluky3bCTMcOMEG8iTA+Yt5YytXrjWdZiMtmwvynUHNVgEvxtCMCacCj4drKPwH8MiKHbAENvWgrrLKlSuXi+eTnV98CwMVeLszzzzDilVI1VyzRSPLODGnJrNtpdljHNvK5auClglxtj2OE1AG1MmQwmkMAMq2Lc5eMORuQy0rnUkcFw5WSNeuu+6aYKSWs8/Jk5XMFyAFzNaqwm770JPo/fffDToc0E5UQmf5t94bvKfxPF9+OVNa4OJgkwqFzMjq0q27AfWM6TN3un7RBBG1K+M3hQYdeTutMsMCFrKx4mKZi1fZZtV/ABDqA5oAzj30wiVrJMukrRYAQiEAOAJixIwJzzExsbum9/LgDPXCADzTGELLxrDJJexII+NGosYDEJ+BqVOnymu2v60cyIbhXtEpM5gTWoGHDqZB/ZTZX3/j9WpweDC4/74HbGgkMYyVNnuzZIdt2sTb8X37zbfBFq1oqpojWGCZ8csvv2JNJTZxVy8oImRgmCjxgNkuiRgKBDJ6YkCtAWUINQbOI0UPZ64f2fPUqZ8G5551/rj+/Qc9XMFbZI9/zAPuHg/5ntthcXHO3Rs3FuS0bJlw9y/3qpsy7h+P3v9tRLWtCXgpsKR2ZiZNLCNUB5tbRitzihBPuky8KtaPVMfR7tLCC0i1a59kRTKq6M4oxmk/6Vhie8i0WMIH4g5ZcmMnCEfHMvzIo44wmdB2ZTSjRo0yfvKgg/pYZoVu93ONNB98/JDgmGOOseILes8QXNmWydjMWk+yMPMSkIxJ/rYADp12IdhaNi75FcAdUik9e3YPvpVBNZ4GXcThsgSeO2euZmKtNs60t5bTcKhr1622zApAQuLEA+Pzzz8zrwCKR598/FkwU/6uhx12mB1Hd60cWO7SbMJxkJ057tlV3qFIQvWGtSxvKdK/a8h/4BBte50V6DgXCnYU2shkUYkg4oe6YVgoVAMPK2KFvlqm2ca1E3/0wsjrWPKbd4EuPNeT5TuZdqjkcFMftotnvS8477zzbBbcFVdcYRag1157rc15I/5obz/44IPg8EMPN9BFzsU0BppEPvhgSjBq5Em2CiGeL730kjh9Jkowpn67HqZ/0uyyZzQocpuZLbFioXMOOsTqAsxC08N6+w7Gv8O6DAAAIABJREFU/bipzh3kadty54giYt5ND7S8TUUWT/xBoKiOP26oRDZVV3ft2POcpKR2u8z799ydVfE9ecCteOz2+U9uysl6SuY2m9q07nj1vzvYNSmLLvx+1szHtWStslrdYWQZAEZodD7vp4VWEMKLIUU8I198srPateoKSJTJyU8W4OXGR5XQVDOm3EQC1zEE2Lmx3W6US1Mt2QEOQISb/bjjjjWgHDNmjGU1VLbhh8mwrBFCR8TPDjvscONdr7zy6l1tsZY9KrOG0w2XzqFJNlysaWQZeW2dXrUMbEqkvjAvBt3MaIRXCvgBm1NOPiVYJm/frho4SPa8VMUfB74dBUBXq5HjRsu8+0hLetRRRwmcrhLAPK+bf5hxjcxLu+vOu4IB4i8BTfyJyZhpn0Zx4cx9qmloojMSD014yHAp9AGYhx12iD1QoA+IxVS5rPHvpNaJdsx8njiS8RJLtt20SXNJ1npa5st7KTKGVX7OOULX0rjsne5lPISgEdBLc724BuiPL7zwQlvqs18eJPC1JaIlZs6abooEeOw777gzeH/y++Zvi2n3xInvi7qRvlleGDwA4Mo/EP9O9vvOO285+aHUGvyc6RrUB9Bbk3lDVUEhUCiL1Lw9zMOZVcfqR809Owt8OwTOavDYViWI1kQOPHvhxlWDWHXJxeM7azuuUFCJXh5wK9HFKu+hysrwiuLigqqxsYn3/qfP5uavH/75F19OTElZb40NZLsYk9joEwn4AQgyVzS2tGTSHbVS0xRY/kc3t7EkllVBO0QKZHHZgo4AcEPbQjJd605TkWr+/Plaot9vVe1tKhhRIKKD6vbb77Tsd9y4cXYzM7CymcajkJkB7gAK5jQsV42PxDlM+4IP5EX2F3Z+IZJ3QO9mp4W9+lTjQ62s8cEqGF133XUGmoD++J3Vc5QRZL0nnDDEhlFi9YdXbKrGbwNGV199rTS5XyrrHUQ3qjr4SoOvpcI49rjjLTvFEOdDZYCoCwBTMn66nqJUHCLL5ZzonoN2QZaF+xtm5fT989DjGoSda4wSgm5ITlln247VAESOj1isEt3Dchsg5UVxkwcVtACfLxB4w2+7NmCaGdy4IEB23KXjgkmTJ1rWCoUDH4tF5xI5zFWXjvjtt99SJj/YeH2UE6w67rjtDrPFBIRp14annf39D3b9APZ77r3b9NUzZnxr8Tvrz+dYdh3drIXRJUjHcK5zEjqZCckFDFqjsYzCMaHh4VOmhzh+IAB28+ax9hCJj00Ipn87k2aXFef86cKholeWlfd+2Bfe7wF3X7gK+8AxZG1a98z6NWvHUFiiil5P3VBkodzc3KBt2rcz60WWrWYILnnTxx99JmMbFXKaOD4OA3AaFgA4mZo5j15lqw70MBlXdqMCCWDyruagDRl8nPYlmZIy5kefeMxkQmSKt2ukOa9Rsv+DV4THrKWlOdvZJNkYmSM2jGS2tMsCuBxTCKR8liwxBNxQTB/aK4ZcJlkxdn+AF+d4//33qyFjbDD7x++NPkBZMem9d60x46TRp6ob7a8qpN1ovq7XXnuLssx07btFcMLQIWbgwgOEbVx4wYXBjTf/TY0A96jRwi392Qdtw8SAbBfAsW496U4BWKgHHkpk+w0a1rPYWdOKzg05Ghkt8jMeNpmScpmRjgB8w4ZMJ93b2YSyWTpmsk1WJK5NusDe63yFo8T5ZqjLbU3QSX67F1xwgRnNRAjQBg8+2uLHfqd9NS1YoxFGgD8Pjvf18Jv2zTQb/Mg2AWAkYwAw+ljiCYXBQytT14EVAp/Fsxga4s4777SRTgAv58ArQsbnXL/+kuuZdlrFsuYtmpmSgwm7PKgypP3t3rmnyb6+m2nKiS/P+/MlR+wDt0uFD8EDboVDt/98UDdrraLS7An6sjesV7vufROen/C6zHCaQBUgwSFzxCjGZU71rSfeLeFLVLhZaXwuygYq5FVVQcMDgC8WoEhmzE1Gh5HZPEoCZEt7gQu8bRRVc03kfeSxR/W5LXLyfyQ4/7zzZcKTbWPPEcnD/W2REgHwKdP2AQ/aj02eJSkR2w+9VU2KpWwO4HJDIRkt78buhF1qABBFF7ZTRegXdmDBSyJJ44Hw6WdTg4H9B0otMEMc8lGW0U2a+F4wUaYoo0adrp9/aSqH2rXrB/944B/2YPjww0/UmbXWlvxHH3uMScu6du1uPCdcLBQAhS+6xzg+slGW3MQjlISZKY+Kh2SDZNUoFA48sKPFfKNiEs4KC9UacKXI8VhhcB6YbwFsKDfcA8YNfSSLnDtvjp3HR/IPfvjhh+R5cLNWFbfbcMdHH300GHPuGHVyJVpRboJoFigVgBOgBTx5DR021ApnbBMKAi6+jjTUx0u7jBLldI0+4nc33HCD0RS0R/M+CqvO+Mg9VJrLIBw/BkxqMqSW6NK1oz1gQmUF1xDvj2pl6MTTtvTr3e+RoUNOHl/Z7zoPuJX9Cu6m48/Nz5isFt3ShLgOo9nktJkfPbdg7oJzWPaRvWxW9RjwaqKhfADV4sULzZkrJXWDKRlWS54DoDVuFC0AVYFIYAL45W6k/z3altAsc2kDBTTg8yiubBAdgRoBcKSTabOWlIkJicYVslxl8CQZKpVt9Jb4PpBBYXqDrCwvXx1bAlSyWfYHALAfWpOhF8LlNccGEIWuZPyOG54uOACY/cPrknVi13insuzrb6AS/0Bwx523B5eL5pg0+b3gxBGnSfh/n5zPLrDRPmeccaYVhKjuA6o/LZxv3rWDBh0mYPskmK5RQ4MGHWm8aD1N3iBTXbcu2Y4VnhsTdlYBTj+sApLACuDh35y3gbGkbYApnKdZHO7krPkdEjR+1kTFKNQlxNYZiAf2/7yH+EIRFSl7jBUnesUVl1v2fvjhR5ivxZdffmWATqEsQsv92mraiOEzGo9TIOMiQJqmDKge2nUBck2VVvzig9deeSlo36598PjTT2qMzTzLfn/8Ya4NIoVigJaqW1eDKlUgMxWC/k5QkwldimYnqf2xguH36emppl7g+kWJKsLSU9n37L+cP773bvqa7/XNeMDd65dg7x9AWVlB05KSrZNXafRp5049zwiPaGPxxpZTp7w/LSMtI6maqv5puiHg2NDVciPDsaESoB2VrIWe9vT0LOPccNoDiBpoCZ0vdzDnsFVsHLF5IOB/oGV1LS0tUTmwhHzzzTfN28BGYst+8NDDVYCSTy0ZUnpapj4ba9wpwwLbqZgVNjvQcmzeB9oHlAjyJUAJWRGZkjPFcWY2ACsATYbumjMcoFu/vv6QRQNYqVIj8FB49913RRmcEDz0yIMmJbv6yquCm/52Y3DTLTcZGL/80qumO0Xsz+vOu27X8nywqSoA9FNPO8NACopipDJdQI1JyDQW0OywI6DDq8SOx7XsuvlnAC50QFgM5Nh42LkHhnMs41zg0Xk/sjfiRizDAY1k4H/+85/1kBgZDDryEFst/OXCC+SF8KK6vq4xXfFnn30hyqO3HQ/8MEoD4tHSBpVWM6VGKzVWHNz/YHsgck7Elcz8vvvutSIonhBrFC/iwXUyPbBWPHDI7qEga89COPWaQc/e3QXCMaYBJ3uOZpaeXtQP+DfXC/4/unF00K1nr8sG9j76/znj7f07puJH4AG34rHbrz6Zl5c5d9mypfm9ex/ikONnr1mzZ0xITk85S8vlalTJf1q4wLIQ+F1GpnBTLZdZzSZRC4AHSgaKWVukia2iLIVlYtiSataJAlzAAYCprQzPRtIoi1u8eLm0mufbtIAV4o8Bu1DihMifsTpffjHNRrJnqVGhpQDYlAyWHaWbsmK19n2Iqv0AD/sFQMkayfbItNmejXUR94x0rKrAGv63tirg4ZhwM+zWOQHiW+QpAIAsXrJIjSA/WmPCo48+HFx//fXG21526eW2NL/vvvtci7Q1McRoFPg0ZbWHyX8ikB9AsVERp5xyuqr3b4uKOMikZ1WrqOOqfuNdTSOuY86NlQ+lY5wfFAP/5kFBHGlcIHasNPjD8cPdmg55pwkNWS8rgfnz5tqV5HeoLeBL4Zmhiq65+jpzBXt/kuuEbal5Y/awSeFBUGaTGy5VYQ3ZHIVS/JST2mmZr2sIQE+ULnnd2hW2KujQ4UApNAbIhW21Zaxk7TwUnB1jStBan+vQoY0oIB62VWxaNA+PpMQky4rhprl+HE+TRo0KRw4ddWTLlp1m7Vc3mU7GA+7+dkUreD45OWnTxcVuaN36gH9p+iGAbDh12sdzqlcpS9wuKdO8H+eYtR83KAbg3IRkbJGqxkNBYCwOj1hSKK/VKDd6nOwFlQNgELqB1RRNQcaWLd1vQxXAMvXZDP3hZgUwwnE+8KIYpLAM//HHH+0GTROIUiBK1fIWDwQcuaASoAb4PTc0+wrNdtyUWDdZAkUFmXEkPgOYbMuEhowxtAoka+R9xXJHA2xozjh59OhgjCYRv6JlNEvxEcNGCHT/Lh70DmlTXxFXO0qWk9dbUQ3qgIdSZ0miADiW5WPHjg3uvvPe4Cp1ZOFKNmL4KOlQa9gkjpAW4bxDWReX0lkvyuVMHGz4c44LAMa8xVpsFdt8TdwIqQRWCmTUR0nnTLEuRSuRgw7qZRwrVosUJ0tkoCOvt+CQQw4zjh7lSBP5L3RXEwbve+PNt808h+Nmf8wpGyb+dtxfL9+pNKhq59VDI5QoYl56yWVWSENW5ugRSeD0wMPSs2u3ztaVGN8qTq5jc4JOXTpoYeGmZADMePsynXeL9Lit4+OKDz1m8ICGkbHuSbGfvTzg7mcXtKKns3FTxoTCvMLq8fGtz/53Rs3K+up9O/OLe6d+OuX8Lp0PCNI3ZAQL5i+05WXoLxCaX3McOFZ9N3OW6xKSrAsbvs2lcHkUiqrYVAY3Z0rjzNHJquJDrz/eAqY5VZ4FSLK0Z3k8TVN/Z6tXHx1scZHcwsRp0mpsUidlrBRmyEDDETgAVIR+Z+O2BbQ22Xbn9F/McYxD1M95IcsiG4bPBShRAlB1D6f1AoTGOQvgUuWI1Vj89bny033z9Vd36VjJeFlW4ydgU4Tl2wrvSYZ8xV+vFE+62OiFSy4ZLxBfLPPtpKBrz17Gn8KHc+wUHMnywuO1MTQCsHCaA8cRzngzpYIVxiiyuYIcZuoAJe3JxA8+9thjj7aHDjzsOtE+55x7jlEvUAzxmk9Gp9ySJcv02WlBL2XfH330idEfMS3irLjIZwH3OXN+kKlRfUWrLLj2+qtFszwmwNSA0AO7mlctpkRksNBOSNBscKUeFK1bu64xsuqD5ZdbILBHnpeYkKRtb3ETGbZuL+nercNDfXp3m6RneE5UVMsVFf0u78uf84C7L1+dPXhsycmrRu7YUaV2QkLSS7+221Wr5p4+f+GPrwAKMyTXQcQeI8cwbjjjZgVqABWZId6xOJDlyKA6eX26CfUBXIzDycjwPOBmJAOyceySRNmgQ4G4G19TVaqB5TaPrK4KZm+99aapF8i6ML2OVPaMGoKMj4wqNq7FrpHh3PDYFwK8ofF2OENr8073LMYEuALWzrHtAmcAmykEZMcUnDg+zoVzgmukAMa+kM2RsTWS69fNt9xsfrCff/5pcMiAQ4ILLrpApi4vqtW4OHhMkrerlVValqyx3oMGDbTurdtuvUMzwO4J3njrbYHZXJNP7VAGr2uwC2BReXDuFMfgQlE6hPPLeJDUF0XizGpkjqN5YGh6hw0bFkz56GMBt1y4RLsAxLfddpsojVP0YNH4dv039tKx6gJ7VuewzBpXHn/8cWsqOfKIo6wTbMqUj013DdgjvXMWnYE1i1x2+bjgPHkmNNPqon2HLkHb9pKt5SCtK1Zn3irFu9TafFu1SjBtMcXNtOQU8/hl5ZEsS1D2WaBVRlF+Ke3RX4wcfvJQGhnKyrJjc3OzGzdq1EEmE/vfywPu/ndN98gZ5RSuufuneQuu2piTbyNTUlKSbWhhQ5nQAMThrCp6/dGJMsQSymG1hiA2UTda6HeL90E49RZelwIZnCCf5+fInCjO0dePbGu0lvVkvFAJdFgBCBSi+BtwpKjDK+Rht0pTzAsQZftGZwg5dnXACXABZDJJMmW4W+gAeNJwmKGbbOGMz8mS4WrTdQxXXX1lcNdtt++SStEK27d332DAIQNEE3xvmWtCy4TghOEnmHsZzQYUpljSswxHOvXhR1OC/gf3lyHM9cGzz0ywNluGHyJN4yHAw4nMGqDNF+jV1MOBQh9ZOMdNHCiMvfDCCwaKqzTNuEgZZAM9BN6Thviyyy61tuMJ2vaN0hDfcce92vYio2tGjBgRfK6iGceDty2mNZjMsE3OGakb3DcNITQsHHLIIUbrnKsM+aSTTrIZbK2lUOA46BKrpodkcYmb39bhAMC1iY1poomBCRM2zl2dgZwLP/vhhx/VCt371ZNOVGVx56u0bHX7HSVVG9eqlThjj3yR9/BOPODu4YDvD7srLEk5YuPGnAsaN2qcrv6oN9csW375tK+/GhWlFk/sCCkucUOTGXGDsURGRwu1sGjJUvM/jZR7F2badKYhGauvRgkAjv8n4+QPlERtZbBkctz44cgYsjhAwcawCJz5eciBkjlR7HJz0OThQK++jZ1xCoVwugE/I2M1Ry+9LwTo0LjFjcRxzRRk7WERy41yb2hZJhI0Jj4kKpOjE6yG+Gv0qOhUaUMmuxygbHehioybBDgAExkedoZklP/853eWDf5NTRKAMY0RMfILaKHikRvu2NQeJABVkbLXGur+Co1oyLB5/dxwZ8DAg+3h9NRTTwWjTz5Jbl4vmvwK3wd470R57j4pf1o8E/Cl6Nu7n9qZV8gMppcKVs2tOYXjmyOXuF69ukk18rplonSU0ZDCGHloh4MPPjiYLrMes5dUp5jzZxAVpIdbjIph8cqC1eVoD09WLLxS1qaYkoOxQc00FUL8UcYJxw8emZjY+f8A68bCpcdGVq3SoG6t9m/sD/fKL8/BA+7+eFV/53MqKMg5MCV9+S0xcbFp9Wu1vITdrVi97E9ffvnJ0/KfjSLTYTgjANpEY6vJlqAd0KHi8EURCM4wW2bZjKqxtl1xeRTE3NJfo7xVBELyFPq4htN8AVOWrvCvAFENCfsBwMLCfOMMGzRu5PxUd2asAFZo28jxsCy2wZLmrVDFGihQLgBgoUk3v6MAR4YNSIZ0A//+eVGNTDNbnV5/ktifLjOycI4PcEObOlBV+/nqzpulUfAdpc0dddIo81nAkWzgIQNtEi7AO1h+Evfcc7e63C41q0OoCTfuXCN+9DAA5OGwyVRx7wrPyY5PurxISevI+il20YL7N2Wy8MlQFDh0PStHNLLYu+66S00lFxgg46VwqAxpPpryiWRsxwfzF8w1zpnRNfC6tF7DYTMFg4LaJ598ag/OZk1bOEMe8a6oPLJzN9hqBMAGgKuJ9gg5eEx/NqoYCiDTLbZZDydMjg48sNMbp47+87k6D9d2tvNFA86WHSk3Jqeui2gTP+DK3/lrvFc27wF3r4S9cu80vyTjPHF2F9St2yhD5uZDfn42b096dUFK8trOvXr11M06NUiWEQlZGEU12k0BEvS6ZJepMvROER3BUr9e3YY2tQD6AcBFEG9twdL5AojWPSXTG/4fwAUE8XOlaFQoQIqRRI3iVLZsAgFWlv78jQQtzGrDTicAF30rgAWXjGICYA0zZrJmuF4kWOyPrNtV1F3WDDBDSQDw1ZXZAXRsK1f0ypatGmujY49u7oT9mHl3EMdJtpuamqnzcE0aSKegD1h2X3f9NUaLoIF9Trwv2eLWrU6/Wl02kQAs4EUxDO6XTD0c56Nf2vGgzgBkGWWDzIqMn+YGCmP9+vWzQY+4gD2qQhc65Sg95GpJ2aFynHkyoILYvmOzjXEfN25scJ+45a+//cqOkyaWY489zhQm0c1izBeCIuOWrSo61qwqXW1zW3HAmwDWxAvDGmK0cP4C6Ws7mVJl9vc/BkOHnPDwqBNPH/ev7oC80sw2O7blvFe2o6ywUb0DDq7cd8m/PnoPuPvjVf2dz0mZSNTmHRuXFxcUbW/UQP2Xv3glJy87b9JHkx4t274jEl437LPnpqymbAxeEjAiG/xO1XSW7uqut5sYPwY6jCJleu4cttySFUMTQBrgxevWfUZuUvIqYFAkQA7I8AqlVQATtoEAJyDgpi6osKTtAZAAGfpegJb/N0G/XgAzx8bn+R3gTgYcFtcAcbZpI8nVmmzUhN6LNpWsmyx26NChJh2rofPtP6C/urB+tMweagOVBTaIW7Sd9zTBduTI07QiWC4app324QB2q1pew+aQLVvE2UodEBqch566HFOMioRkoj8t/Emm4A9bmy72iSNUOHtLjl3nnHOu/ezWW24NZqjr7VDJwOC6KZCR6TZs0NRigzSuXr06RgVEyzDo9ttvtS4xzh2uF301WWq+mhJ4KDrlRLWgRctmKpAJrHeOOaIJhI47XNmQpGHM3r//AJkdrVbGP+jsXl37vPjvvp5lZRv75RXlTNHnFrZL6n/I7/w13iub94C7V8JeuXe6pWxTjxXLl09oFd+6Ya2ajRP/1dmUlRVGz5g1477vZ39/Bst4wCMtXaPbtSwlMwSY+LuK6Ae43XVr1xvtsCm3UKCj6RGy5DNrQ2VXACADF8lKyT7pMAO4kELRqUTGCPgwYZafA8rImShudelyoIEjOt6wG81NpNi0041LUjQdm2WoOiZANRwNAwAD0iElEb6P9wK6HFfZTv9dPsMxcHw8DChA8QC47ba/2/bmSYXA7FmKegDvVhULt+uJcsQRg2zMzWuvvWGNHdAGyLIYpmh2i0YtyEh85+j48N/OwjJCjRPyMRBHG6nmCCRpPNxoqrjnnrts5Pt0TY7AG4EHwDtvv2MdgNATUDqcD8oBR5OUWjZLYwRyMgqAXDf2TZbPw9Jxtc6ciJ8ffHDfYEfVrdaowYqA65mjVm5zKhMJjtoBWqR5i5iVcdFxt/frd/gL/+mbv7Ew7Vipdz9WqTS9Ye2kWO1DR7t/vTzg7l/Xc4+dTWrq8g8KC0u3t2/fZfh/2uma9fNOlsvYY+uT1zemAPPhlMmWDWGoXagOLPSwABStoN999704VQZRltq4awcyLtPjJufGB1DD0TMhEIZNFQDHDm0bYCDrdAMs3UwxwJjsi+wOMAF83fbcuCCAln2YibkANdTjhjPBAFOOw7S81g2GAY9alzWbi8/S2cbPzWiH2WKm1021LNC2IeBheCX/T6MBD4nQVpJBjfQg1WKuF9phzlFZPsfh2n1pHpEXrP4OB0KyrAcQy9TZhu61qrq3UBUgSVuxaoVl9jRa3HHbXWbwTqHLbBblnwDgH3PMYOvsuuraq4xbradRQAC1e6i4YZgWz53G8dAcdPTh5sXn0AyDh1VlHM7POW+uw0HdD7JYs4rJFH8bE9Ny0eCjho/8LXaKmzaljy6rVvBmRJXqD9et0+pf0g577Av+O+3IA+7vFNj9fbNFRRv+osX3bLllzf61cxU4Rb757nMlmZkZVQHdlNT1wby5C8yyL04GKKUCOqdC0GieAsa9rDN+l/ZgqvPc+GSJACQgxNKa5aoVuqTBpbIOaMOz1hUFQPYa6nLdMjnXgAvlhGXLyjzD0eE5OeKPlTmHLlwAaQge0A8AHBQFhStXdHNjg3hxHPXEg3IsUA/oXQFasmnAkT/sn0Jgno4J/S6DFNHBwvFynLyH42PZjldBuM+iQrhnDem06RkAn5vcQJWfY3Iz3iiaSZKlQaCMyQEsKeAxjJN22gNkwYgiACBmmc/U3dpy9uJh0kgjlN57752gjcYsZeVkma/C4489qQdSnFEGDeozPJQJHmocKaIg2cBWGbTnNhXvDL/M/po2a2wPMWRjeGg0b9rMHpJMXz6wS9cHTxp2xuW/9v0If5+1MeWKiMjS+4TjVzeo1+ae3/q5yvQ+D7iV6WpVwmMVgFXflJ98TUT1Gt3JrD6Z+vEIpEqAqrxyglLJogBTQA6TG0AUikHNoZJWUYxybl516zUw4IEeADy5wfk5xTY0vYCTcao/m80WFrpMEibABCDIykKulv2imuAF6IZdXWFRLTQtD8eQk5m7MefyYdCxMBGY4ZToTvkM+wds4XIpllHgQiVgQK07jQIWcrEzzzzTMkQUDNAKTNQIZV5s/+eqiNDekozRdMCS0lmHmc4J3rWGxiMBbpFSDPCwqC6aAQNwdLe8Lrr4IjNMD2ek0VhBcZF9FEjZ0b1XV2sDvvXm28WxHqp4MMVXmjhl2A7onVdFVVEGNmssSc5eynprRFVXEa9D8P3M781cnOwWvjYCTjuyRlFiYvsxRx5+TLmkXbmbstdWrZ6fsKNsxzkN67R5oRJ+3X/1kD3g/mqI/Bv+mwgUFm7ourVsx8PqgkqLiU46nbbh2fO/fnf71q3HrFmztjaaXaYgmNetAAPQI/OjO42bmJHtLMHraDQLYIqUi6W86WOl8S2SV0OdOvVMQ8pyHRAl+wNgwiyX7LNI2Zpz3irY5QwGoOAlS3Ybyq+cxMwVy9gGAGjqBI0U4udk2ezH/BiU+eGnGzZVkKmiCIC64AFy4kgVmzRMs/+AgyVfQxq3wbJrlu7z5s6TBCtPHHNXtTs7RzOyWUcfRO3ySCAG1TSuh/Otp4cOQMuDifdi2J2ZnW4exSgYnFdFqbS1DOSsYW3EKChQJwD6AC+Ai+0lx3qgRo43kgPZww8/GHz88dTgqiuv0YOgjdEs7NepOCiWNZe2NlagLppD9ARqBjJ3aJQ6UfW07wNNTcG8uIS4hKVDjh88PCmpa7knMghwU7aX5cTImnFwnTrxU/+b792++lkPuPvqldlPjis/P3eYZlY9rA6oWR079hyjG9lSyjVrFp46f+HCZ6XhrLV48SIDWXORUvbFjY6ulFdGVraBxTK192JKQxaFKY7NK5M3A1MPCtSuCpgC2NtxKDOQqrbLyhDwKdb7nZ2hzLAL6WuFAAAgAElEQVS1PcDCScMcR0ymi1EL1AT0Qdj0EHopsJ+fF7FsdJAyzDoqbqWkJhvAUvRiQoIb/b7O+GNoEopbt9x0864uuuTkDRrb85IsEm+SBwETDtrZsXFM7MM5hDnjdDJ6lBQ8CDh3lAO03LJ9+N7Cok2WLfNzOtIAbh4gG+VlgPqAOWl0hJGBo6dtk9QuWKWVBebvTDCeIJP0Xgf1MD0uXXCcV6hJBsDZbqukBBvyiMYWGgNOHHqB6bnymzElCS3cHTt3fmLk0FNENVXslZeXfWZBceqw2OYtL69SpdH6im1l3/6UB9x9+/pU6qMTANbMyks7LaIs4qGCosJp8bFJIwSGrtdWr7KylMZf/nP+R1u3bO7NTf7DD7MNRPBLxTeXohNG42SUAOJ6GXdTXaeoRnswPglBmZbUamW1LFbboDoeamf5GQAB2DRRBh3KqgA1uGS2j4cDfzdtGm3NC/CkNC7Ay4Z8qrX+ahouQOo6wOTRoAwTK0Zp/gU+mQaAIg6CKR9PkVXlcuM4oRDo6OLvJYsW2yBGbBzZN94Gc+f+FLRum6QuuwaWcaI06K/W2ZflRob+uIEyV/7mOMhsAVyOhawcCV3YPk3TB1m2je/RA4SstI7OyzwhVFDjfDDRQfcLReM43jQrHrZRgwYPIUzC6VID7AsK4XgbmHaYhxLgDU+LZhi+nAcBDy064RJiE/WwKCloFR8/duDAo37Vh+PXvtAFxSmj6taKe+fX3ldZf+8Bt7JeuUpw3BiRlJRUO7mouPT+osKirxISWh+PQckvD33NmuXn/DDn+8eqVt1RM9NGbG+x8eRkbmZ0LrOTHaryR0nJwLSEtZKQ0aVWypK/hjS04g3Dtt3NAl8yVpb8YXMAf+PZAGjRsst78dwFXJYuXbxL4sW/KfgAMuEYHjeBQaoEKSbYJkAMQJEF02JcTaCbLHvI66+/zibZIrliTA9FKCgEusnwf/hKo2bwDzjwwAOtsNVecqybb/l78Oxzz0tF4FQVf73isuC8MRcEkTrOIaIlvpr2hTWDhJIslAw0KZjXhOgUzqPKzokOKkga7UBTCE0QtcRp86CCJ0etAK0AqKMggEcmm77iiiuDo445bpd5EOeBK1ijRvWU1Sbawyp300Y77lDuxoOnudqPkbc1lUl8dvrGlSOGn3KCHlRLKsFXcq8fogfcvX4J9t8DcM5P209Q5nZf5oaNX7Rq1eZUAa4zAfjFS8DaaPIHb3yzavXKTgMPHSj7wG9sXA1dai3jEowmWCdjbDI+ONvZmgSxetXaoIROMrUMW3eaOFlGUPA3y2lHH0QY6GEwTpaGk5nLmJ2RDebebPt/mxvq7NLeAva8zOhGHK4DtFIDXjI8ADczPU20QK5Grb9g1ogs0wFb3MV4D+2wXbp0DPpJBsc+eYiQIcJLw/V2FfCPOnm0Tc4FBAF9jL+rC1Dfe3+S+NbTVGT7U7B40VIrSDE/zlQT+UXGVzvJmZtWgZaWDq/VAlnjV6VThg/mIYFRDkMjeaHJZax6a4F+FXXZcf4AdU01XdSoUc2MZxjfThNEQ5ngWNykN4ZLjmkWZ3wtTmmJia0/G3vhFUfvv9/g3X9mHnB3f0z9Fn8WAQFBnZycrBfXrFm/Q0v2k34tOOvWLTtr1qzpT9SsU6MmoIR2NE5LcJbLZFVkaGSOjG9fvz4lWK4OpqwsjRwXIDJhgh5/quy0ocJHUm2Ha3VL8Zo2pYLlP3SAzQITNRHOW8PdK6pm5C7+N5ywS/EMQAfAaTgIVQwA0nZl43dprM4pmur7/geTLJskk4yWVaWbL1YmGmShTTaYNHlSsOCneUYxzFfRDDOX6264zjLicKT8eo2qIQO96pprZPp9qApsHQ3wAFgaQqoK9DgGjofzMT8FdLgCYdpqFy34SaZBDYNeMhL/ZOpHdi5k9inJGZKtJQZFJaUWv87ia3l48LssDaeMVWGsaVONoI9uKkvFIEiX+1sPbYPsGvohWh19TKpIE//8+edfBCcMOeGaIUNOvvvXrqf//f+NgAdc/43Y5yKAbveNt57d3Eb8JqBLRrhAblzwpoAP+t0t0p+SaX4360cVbDaZ0xbysJpRGrIocKqv0TVhc0OoKoDPZGosy3f0o9ZQIYVAOIoHfTDdVgBm6EwGgLu5XM7InIIdlEPY6JAQHxPMkJk3r3xxqY888ogMaG4OVC/TZygoVbWBktddd50pCToc0M4A+/BDD7PM9ZXXXjbQxCsBYKcBBB755VdfM/pgwYKFVpCKiYm1B8Q2M/ipbXO/yGCZJ9awkR5Geih9/MmU4Dbt+69y9qJbDKPwv/+diRT3S6qWJCDWqPJceQ3LY7dQPDgt0oUlm8xasZFah/GjoMCH3C1OUzwoBFJwo3DWrUvPIC01A7OhOccdfcTw2NjOyfvcF6cSHJAH3Epwkf5oh5idve7amnWjTl+3Jrmtps1GsqSvITUA2lbUA50lZ2LKBIqGzOyNJh2jUQLdLhMT6qr7C/cxslwyP4AVUHWFtQIDUwDXNKY7/wDmVN/5k5GRbuAKsKJxJQuEu3SWji6rpADHq65A78MPP7RlOYUm5rD95S8XBVHKrunKGjlypM08e/zxR81ARhYJmrDQNZjxzXT7PI20773/niiJ50zlsF2UCFaPSzUjjtdNN90ive5Pslp8yZQKUCQAczU9AOjBaCCw3C6pQPLaNcFRRw8KnpMzWE5eppn/5Mq4PFb+B3PmLAj+fO75wdIla+U/2yPYsk3yLnXyYbRTv2GExgB1sEIlqwfiwkMnQ9OUTQ8sDpmHXMr6NEnDWn180fmXH/dH+z7uzvP1gLs7o+m3tVsikJeX9lr2puxo+SRMqB0V/eG8ed9OXrZqxaGAms3o0nK3jE4CvfhZRqaMz2XlSPfUjBnfGbdLDz+qApzAwt7/cDKvcZYyGAfAaMYAWPl/MmlmcFGJ58+sWbOsUwuABcjdKJs6RmFAN7DdSLXuQknYtAqmC9v2BOz5BTYZ4cILL7T2Xnxub7rlRlMpnHzKScH5Y85zAKohnK3VobZGGlbsE9HNYhmZk7fJNMcp69IMlONFp7hBnCr8CWlpiTYDHRW1KASiB65Vu0bw+Ref6GFQGjz80D8smycbPuLIo4O+vQZq/7cF997/cBDfMknn0UAccIMgPpGpGIVWJIQ+YDVAx9zWkq02nww99No1ycFpJ5924+DBI27bLRf4D7wRD7h/4Iu/r556QUHmuynpqZvjWrS5TBKvTI4TB7LVyeuvrF2zZlvkSzNmzJAcTMtqyZ8ABkT31QRGgCKWi7NmzTauls4sgBf3LagEMlOyV8CZrLemnMbCUepwmriSISvjM3CXYfMEAB7645L1kfWSeVeXPhcgB8Sp8LtJtVVtzPrzLzxnGS7qVfwM1q5dbUUtdLcH9ephAHfM4GNN/zrtq29MtkVTBF1lUCkA8BFHHWOZL34HPAR4OLAPp7BYarPBkG01rF9P/LMycXXuvfHGKxpplCXwXqSiYqlxxb169tXcuIZBN0nfqorjTkxqK8CuLUCmYFays/tMHXsapknnG85gP2pQ6MacvKXXjr/pcMU4Y1/9vlSm4/KAW5mu1h/kWHNz01/U2PTIenWbXyKAwYfRLb9VgFu+cvGV6ZnpZ23MykpgqCGDJ+ntB2jRxwKSG+W7a2NwlG2SjUIt8MLu0fnZbjUtL2Cam5ezq7DE7wCyxMSEXd1qZLEs4UtL3ZBJMmyKcciyKMRFyj8APpdsc5fBjQpvcS1izK/3zxpHQxGMTjj+PuWU0faAmDF9uhujo/116tTJDL5Di8OVK1fpIcBAzJbBOo0lgkutX7+B7Y+HwbZtW7XtTNEUjwXDhxynB09ecN011wZPP/OCqIGGNpRziCZP3HffPUHjBk2CLWXy7xX3/MEHH+pnDxhwJ7Vu6yY8qNMMI/HYmJYafjk7aKE23UMPOUKFvc8Uq3pf3nbzvUf8Qb52e+Q0PeDukTD7nZQnAoWFGaeKPvyrErHP69Vpfu0vP6tlb5Plq5e8lZ+Xe/jSZQuVDa6yLivMaVxGWqKW1SamEkiWkoHlMvwuxaJaNetY0QpNq3ndqrYEiCKxQrkQysVCcAVIQzcyABn7QUA4NLKJMD1ssQEhS3i23bZda2vAANCmz3BcLV4HcM5k5kjR0OXSkPDBhx854Jfci+U8n7emCr3IZuGU+Tc8NEBJlo52mMGaW0QFRETI5lGTcgHrtLQMZckXmM9EHfHYZPrnn3++FeR+1NgcWnu7aGR5OIm338F9gnQczdTht2b1OlEJbYOuXbprZZCi/2930/Aho/9enuvm3/vrEfCA++sx8u/YwxHIy8t4XQYm7Qryi6fEx7f527/avbLdiJnff/3atq2lA35atEBY5irq0AN0cgG4gNRcAQ3AS2ENFQODLJGQAaLFagmm+ASIUYwDXKEH8Eig0aFL1wPFX6rDVEDcWmBERso2Q+tH9MBiU41rhaZwUyYCA9AoVfsBQQxeli5botHol0hm1c0KbOMuGSfgnW7H8NwLL2o+2HTjTZGLsX1kXxSxwowXgORhggyNbJqHQrIoi+LSXGmVp4u3/VjHUE3jyrsFhx92hJQSTwS3/P0hgWdbFeBWCOw1bTeple2/umaQsQro0bObrQCaN26ic98oWqO7qRBEkaw/6rgTxg7sfdgHe/iy/yF25wH3D3GZK9dJ5uRseConPze/eZO4+5WF/kfukGz306/e+TY9Nb09ALZNgwwXL15sWRyAhWUg7axbJNwnK0TyRZswPCzWj3XUNGF0g94TGowzk4ssmeIXoIragN//fKYZ7zX1g1QMAGzoxuXG+JQEyZrpxkyxSzWOfMbM6UH/fv2Dc0QvvPLKq2oh7q5/H2zzyxgxROYc3ay5eTkwLYKsFo6YzJYmBBtVo0GUPAygI6yRQ5956ZVnREckBI88fL+AXiOApM29dNwVOpuI4LHHnwiefOLZIL5VklEWTZo0ssLeqjUrbT/FJYUmq4usUj1IatXGhkLWiKw17dab7z28cn1bKtfResCtXNfrD3G0mzfndI6MbLhKAPp/hgz+p5Of+d3UjeuS1zVqKUnTjJnfmlKBbJeCVFxcfLB67ToDsR9+UCFIqgKW8GhwtwqUkXzBAaO1DUe181kritnPnSk5AEthDTohnAS8WY0EgC3LfedRK+CWwcIGASmTFl577RXzwZ0rr9uaNWuYxpYlf6TUCcwgGzpsuKkbxqvN9s033zSwDZ3OkGOtlJk4HO6tt95ijQ6oHD7/YpqaQFooy02XvvdCgfpf7MGgFmozKi8WlcCQyFkaXzRE2weooVV4GNBEwnmgwDjskMODZmr8mPz+lODgfgNePe/ci3eNK/9DfNH2wkl6wN0LQfe73L0R2Lwt75Sigk1ji4qL+0mtUJVuMWZoIbGiSg9g0jhgs8y0a+RfeDJQUFurv9Htkk0yzgegJfPDoYvMlckKIbiGkyF4j/nhiqNtqiU56gSW+oAlfDBcbGzzFlrOL9SonYdthhmjyTmOyR9M1rSFo4Mpkz80fveIo44UwG7XMWhSMJaQKm6hgyWThWoYNvyE4InHntADIjtopDZb9ZWJlnA+u25wZYGKefWCx598TGqEgeoSqxJcLk+Gd96ZGPz1ynGW1WJszhBI/CdSpa+N17h0in6cf7NG0WVHHHbUKQMGDHpr914Vv7V/FQEPuP57UekjkF+4fvyW0m2jI6Kqf1W/dtwzS1fMuUd2jCfIz6AabatwlmGjQg2Baei7CwBmyOpw0cIlRjXU1vQGa4SQmsHoCIGt0+5WcSPZsXlUUQtgdU0Q1WXg0sh8COj8QpXAZ666anzw1utvmJ8C2XQ4KoelPQ5gw4cPD06XRwIgPW/BfDOzgT9m+40lV4MOISNd8NN8mxBx2CGHmMzr66+/Ei2yRCA81Nqczzj9zODTT74ImqstF5qhTt2aamSorX3UUWY7RNzxYqNUyJQZRFlV9AFTehtKuUABMbJK1Pwe3Xte3afPwful9+y++MX2gLsvXhV/TOWKQEnJ2lbVqzd4du3adalt2nQ9kw+XlGxqJdnYq2kb0vvhHZCekepG8DSoZ/pXCkYUyqSgNfexjIxMA2ay3BoaIW6DFTW+B+CjxRZADF3EKJCRORrnK4VA9+7dgrvvvkfbywr69u6nvZcFxx13bIA3QwN9FtDlvWS/mPHgVHaGRpXHxLQIOh7YydpzBw8+3op9ZN8cVwi68XEtNV33CWtnPlcc8IF6/7z5c8QFvyRdbZ3gkUefCB586AGbOtFM03bbtE0MGjdpqMaJHNMh9+jeS1ntBsm+EpWNy+UrrrXGlc+RZ0LLd/86buyocgXav/m/joAH3P86hH4DezsCmzdvHJWamnKWdKPbo6Nb/Z+hlitWLxr9/vsTn5ItYoMcLcvnzJ9rxbAwS01Nd9MecjTWZ/HipabPLSwodg5hynhthpkMcMgSoQpqCeRWrlzuJgrLuCZX88AoQr0gt7Drb7zeMt9HH31UdpCO18XnAckYL0AcAL/jjjs0UXesfGedH8K0b6bJOWy47fugg3raiB44VgCzaWPRFFmZwYMPPiAz8YHKdLPN8/YAFdNoM8bgnGx34KEDdE7KkjX6hmy3jyRf8LpQJ9lZuUGXzr30aIkINqRmb+3Zve+tI0eOuHVvX7c/4v494P4Rr/p+ds4lJasTtm2r+YqW9Xlxce2G/KvTe/2tF2e0a5/Ue+mKZdU++OD9oHWbVga62wSQ+fmFJsWyLFSj2tGz4kQG0AK4kZpbRnZsXWwy/qYtmL+Ri6nzLViydFHw2Wef2e8BUzLZ+XPm2/YmPPtccPLokzVmp795FQDUAOndd95lLbnpG1KtsNZNHgdMi/jLhWPt8Gnnvf6G6wXkE+x9AHWPHl2Dl15+IUhsGR9k52ywwuDtdzjf3S7dugp8Ne1CHC7UxXw9WDh2vGuhSFqqsaFqWbWFxw47cUhSTJLs0vxrb0TAA+7eiLrf526NgGRkp2vqwdFbSrfktWnX6dJ/t/G1yQuOS83IuqxK1R1HTZ70nlk8wuO2U0aZre40gJJmASbb0hoMkAHG0AlMEOa9eXlu6CTUQ0R1DVpUa22efA8yMjZoqsKlwYQJE4KLL744mK0MdfDgwcHFF11sY8sxpyHzjW+ZYCqEzIwsteFu1phzPHd3BK+++qp8ao+34t2GzHQzsEHlsEQ+uCgOkIs1UAa7Sc5hRx51qDVRkAWTPXc4oJPRIWThjZs1NX0vlAkjcJprSgRdd1HVIqdedOEVx+7WwPuNlTsCHnDLHTL/gX0xAlg6CmhcD+9/eOl9tX5c8M9/btqY02Pp8iXG7aZtyNCSu5sB1jxN0gX0mC4BMKJ0YBbYDi3IW7SI1VDIElua47lLAc1lwJGm05WzmQpTWDmSWUYLGAcpCS4LzjnnHONkacw479wx8lNQA0JElBXibMqEXLuyNyqrTl4lmiAiuPV2NXgpe6b5oplabS88f2xwp3wVHnviqSC6SVM7ZuRlLRPjZc1YV3xynoxwGrvZaKJD8ImoqaIYWTgFv7Yd2t99wrEnXvNrsfG///0j4AH394+x38M+FoGsrLTT0jLWvrhs2dKIaspSGU7JXDRMvclmyRpZ/qN/JculiDVHhuFQDY0aNjMvhohqUTYBARWDzVITnWD63K1bbCYYXWG33XZrMExZK25h0Bf1xKnW0/RhZpLl5OQq+4wxYN2Ot2+takFySkYgH+BgwMC+8jX43uwojxh0rFpzuwZ1ajcKDh54sE0BxozGxqpXkZJCAF1HkjKKayglUpLTrGss2CZntQ1ZqUNGDP9Lvx4DJu9jl+APezgecP+wl/6Pe+KlW7LH5ubktNNMtPoL5s8btS45uRYFrqiomvIcmOsaHna25lKgQkKFccyihYvVQJFsUqttW50pedUqmuYrThezcdQLO7aVmaoBznXrthKZk3+h4ZDyUWgWE1x7/Y3BvXf/I+jWtVtw3fXXSB421GaGXXvt1cHLL78uJUKDIDUN45nDgmeeeSpo0kAm6nJE4/X5V1+amTgFMvTBWDuSYcP9Lly40Joa6mqKMftGGbG9dOvUS8Ze7SmEfexr7gF3H7sg/nB+/whsyt9wT0FRQVnLFm2uZm/rMxaf8s6bk143VUF+njLLWdZ4UE/m3kxAYNmPXIvleWraBsm9VmiqRLF1qGGliH4WHhZQjoqsbVQBzRMbVdjapD+MrCkqKlN2XCsYOeJkm1lWVFSojrTtzBTWPqoGEyd+EFw5/ioZqjNhuK5tc8SJw4K+fXuLz10QPPv8c8bJQk2QHTfRAEcy8MwN2SZzY+owf6O20Bih24cfd9oNv38k/R7KGwEPuOWNmH9/pY6AKIAaBUWZz2qqQ1q7Nt0McHmVleU3+W72/JdTUtYfW0U87Jq1q1QwywuaRDexkTPwtBnpmWb1WKgutPWagGDOYaIQmFtWPaK25puViTfVJF19vk5dlxXXUDaMF0MTzQtjsm6RxvAgP6tdq37w7nuvBT8tm6YMOS8YOmSUNLN9pF54SCNxHg06HpAoF7S1+l2gLDZJwNvXGZ3LcCe6Wax+39n+jTKB0ThpmngRFRmVM+TY487u7Y1n9tnvqAfcffbS+AP7PSIgwK1XXJz7pvjY1LZtO4755T5yynLiF3+34KmFC+cdW1Scr4JamrXusnxnXPimXCwUS+W5u8m8E+gUg1YQ7to0hlpR8seVVrbmzmGUG9IylZFmK5sNgti4aBtrzudefOE1TRuuGkz++EX9rSx6e0RwzlkXBi0aJwa33XV38NCDj5i8q1HjBqIP6u8cgllbD4Dm2leZwD7PstoYdZnBHW/ZtnXm6NNOPyGmXswu/+DfI35+m/9dBDzg/nfx85+uZBEQz9p8+/bCyXl5hatl/XjKvzv8pSvmnvTVtC/lL7DdADcjI02dYAnBNk2EaNE8Vsv8RebORYeaFd2U9UIxMFkdlQMSMlp7+xzUIxg//q8GnDfeeIPGv/8oM53Glp2efMqI4IEHb5PidqtAu4bMdHA3qxVcftmVmkM2R7PPeit7bSaJV1rQvEUzozVSU9JldtPYRsdvU0aNVrhXn953jR5+xv/zDa5kl+YPcbgecP8Ql9mf5P9SB2WNcnMzXtFwyI0JCW3/9J8isyZt6bGTJ773QlBlWzT+tCgWvpv9g5sKkdDGKRlkq4gnQpFogxR57a5dm6KiVSPjWY888ojgvntvk0pBI3HKtpmi4e23JgZ/+9sN5iiWnV2kaRU11EX2oPnY5msO2h133GWeuSeeeKIohZWSojV3sjN9nrlqAwcOtHFBKCbiWraa161n73H9exz6jb/ClSMCHnArx3XyR7kbI5CennqlJjBsaty4+TO/ZbPfTP9g6vyf5h5NswFjy+kUw6Vr0KBBwYbsDVaswpELLS5UA94MK1asUBY8X6259WQSPjf4SioDON3LLsM1rKoMyccGb731YZAQ3zJYsTxZdAOGOFvF9Wqwo34WEyvqQK5kcbHS2kqRsGjRYlEaPa2JgUy3R/euL1903piLqlRpLn2Yf1WWCHjArSxXyh/nXotAUVn28B9mznhR3Vv1GIuTEN/KrA3xtW3SvJGZzlBAw2O3RPwuoDh/wTxJtOoGzzz1mCiE2ODcMedYdgpVcP/990ux0ERj0x8LHn14glEVNSQda98hSZnvDjU2JJsiwUb5iB/OzpZpem6hpj60MvlX9149Lhs19E8P7bWA+B1XOAIecCscOv/BP0oEiopSLlJaenytyHrPf/fDjOs1zbY7TmIMX5z70/eWiUY3a2ndaaqKifMtkOwrP/jnP/8ZZEg9MH78+ODg/n2MB24R09RG/XTv2if4etqMYNzl1wTt2nYIWiY0k3xsh2XEkTU09VegXbZDc9FKd6ituI7G5/QQjdE6aNyw2bABA3wjQ2X97nnAraxXzh/3HotA+oYVd8ncvEXrxC5j1D68lbE+L7z69LfVqlRpv6Nsc5CRnSErRzcRopkmCFepqoGO6cnmQpYpN7KpU6fKVrGjJviebVlujciawUdTPg0euP8R+deioW0qP4TWweIlC2S5KGPzLeJ2m0Sbt25cbCtJvrKCs/90fubtt9++5vnnXu67x07c72i3R8AD7m4Pqd/g/haB/PzU5zV6Z3N8fKcLf35uX3w19eZFi38aV7Xa9gYoDcQN27w0Jv5iHtOgQd2gWo2ygAkUkyZNCtLTsoKDevUTJ9somDZtmnkzHNixp/S52QLdxhrs2FWFuPVSLWwP4mNjTAkB8HaWz8MTjz5VePkVV5wzfOjod/a3+P6RzscD7h/pavtzLXcEMMXJyU//IG9T/vqkhA7n/asN/Ljw28sL8zaNUJvuQBy8AFuy1vbt2wSrk2VoU1UjKyXEXblibbBg/hJremjfoa11syHzwtgcpQO6WgZgyrs3iGsRY9vIzMyyYZRXX3fjFeMuvOKBcp+A/8A+FQEPuPvU5fAHs69FQIBbp7Aoa2ZhQeGSFi2SRv+741uTvODQefN+enfdutWNMzakmH/Cli2l1qmGrAsQxjB89ar18lwoke9BQyuOdevRVi5jmr1WvE30QVLQs0ffoEP7TkGO5o999NEn8lh4pejB+x+86uKLL3t8X4uNP57yR8ADbvlj5j/xB4oAfG3V6mXT169Z/33Hjp3/o2536cql/T//dNL7VSJ2NI4W0DIKB2OZpLZtgqSkxCA5WcY34mU/+/QLTWzoaBrbzOz1ymQbKaONC5qoZTe6UXyw8KcVwQMPPKgCWaO5P8ye3+MPFO79/lQ94O73l9if4H8TAWW4LbKyMt/dsWP7R5qecNtv2db3s7/4x3ezZl0WG9/c1AaLFi0IGspLgRbddu3amJ8t5jUY4GwrpdBGF9k6dZPFBqnrcoM3Xp8YjLt0/A2XX3757b9lf/49lScCHnArz7XyR7oXIqCs9MWDevQAAAa+SURBVFDNKTsoMTHxvvLs/rsfvvpu1swZfWLiWtgAyKmfT7UR5jKqDQolGYvS7LHMDbnBkKNONpOayKgtsoUsEr2QsfzUk8489/DDj/q2PPvz760cEfCAWzmukz/KShSB0tLsI0tLN/dUVlzwzYzpd2vYZJ3o6KYyMf8+yJYxeWpasuiEpuocOyiYN2uZdY516BgXXDb2ryOqVGkyqRKdqj/UckbAA245A+bf7iPwaxHIzV1/Tk5+Xu+k+AOv0ns3F5am9/3k489ezd6YFVckI5ylyxYbtZCjib4tGrXKOfusM45fumL21SWlJTMOGzD63l/bvv995Y2AB9zKe+38ke+jESgoyTosOXnd6Mb1Wz4lk/D54WHOmPXlPQsW/HSm+NvoAk1yOPzwQRMP6XvUKP2+rLh4zdD0rNzCNok9v9xHT8sf1m6IgAfc3RBEvwkfgZ9HIGdTxvXVIiI61oysdl9kZMO5v4zOD/O/G1+rZr35Hdt1/Cz8XV7eysE16tVYGVWl5Qofzf03Ah5w999r689sL0WgqCjnorKyqieVlBRf1bRpzA+/5TAKt6w7c9vWKosb1I7/Te//Ldv079n3IuABd9+7Jv6IKnkE8vKyXlMhrGrr1gdcLu+F9N9yOnn5q+/PK8x6PT6mjwfc3xKwSvoeD7iV9ML5w953I5BbmNutQe0G6QLbDb/lKKX1rZlfuu45DYS8t21irzm/5TP+PZUzAh5wK+d180e9H0VAY9kTtmzPeLqgYONdcS16fbUfnZo/lV9EwAOu/0r4COzlCGRtSusZEVHyQv7GTY8kJPR8ei8fjt/97xgBD7i/Y3D9pn0EfksEcnIyB1aP2vzaxqyM1xMTDkK761/7aQQ84O6nF9afVuWJQN6W7D4R20rf2ZCdMTUpvtf/G91eec7EH+mvRcAD7q9FyP/eR2APRCC/JGXpxqys71rFdz97D+zO72IvRcAD7l4KvN+tj8DPI5CZs3JGaWHesvj4nuf4yOy/EfCAu/9eW39mlSgCa9MW3bdly+aSdok9bqxEh+0PtZwR8IBbzoD5t/sI+Aj4CFQ0Ah5wKxo5/zkfAR8BH4FyRsADbjkD5t/uI+Aj4CNQ0Qh4wK1o5PznfAR8BHwEyhkBD7jlDJh/u4+Aj4CPQEUj4AG3opHzn/MR8BHwEShnBDzgljNg/u0+Aj4CPgIVjYAH3IpGzn/OR8BHwEegnBHwgFvOgPm3+wj4CPgIVDQCHnArGjn/OR8BHwEfgXJGwANuOQPm3+4j4CPgI1DRCHjArWjk/Od8BHwEfATKGQEPuOUMmH+7j4CPgI9ARSPgAbeikfOf8xHwEfARKGcEPOCWM2D+7T4CPgI+AhWNgAfcikbOf85HwEfAR6CcEfCAW86A+bf7CPgI+AhUNAIecCsaOf85HwEfAR+BckbAA245A+bf7iPgI+AjUNEIeMCtaOT853wEfAR8BMoZAQ+45QyYf7uPgI+Aj0BFI+ABt6KR85/zEfAR8BEoZwQ84JYzYP7tPgI+Aj4CFY2AB9yKRs5/zkfAR8BHoJwR8IBbzoD5t/sI+Aj4CFQ0Ah5wKxo5/zkfAR8BH4FyRsADbjkD5t/uI+Aj4CNQ0Qh4wK1o5PznfAR8BHwEyhkBD7jlDJh/u4+Aj4CPQEUj4AG3opHzn/MR8BHwEShnBDzgljNg/u0+Aj4CPgIVjYAH3IpGzn/OR8BHwEegnBHwgFvOgPm3+wj4CPgIVDQCHnArGjn/OR8BHwEfgXJGwANuOQPm3+4j4CPgI1DRCHjArWjk/Od8BHwEfATKGQEPuOUMmH+7j4CPgI9ARSPgAbeikfOf8xHwEfARKGcEPOCWM2D+7T4CPgI+AhWNgAfcikbOf85HwEfAR6CcEfCAW86A+bf7CPgI+AhUNAIecCsaOf85HwEfAR+BckbAA245A+bf7iPgI+AjUNEIeMCtaOT853wEfAR8BMoZAQ+45QyYf7uPgI+Aj0BFI+ABt6KR85/zEfAR8BEoZwQ84JYzYP7tPgI+Aj4CFY2AB9yKRs5/zkfAR8BHoJwR8IBbzoD5t/sI+Aj4CFQ0Ah5wKxo5/zkfAR8BH4FyRsADbjkD5t/uI+Aj4CNQ0Qh4wK1o5PznfAR8BHwEyhkBD7jlDJh/u4+Aj4CPQEUj4AG3opHzn/MR8BHwEShnBDzgljNg/u0+Aj4CPgIVjYAH3IpGzn/OR8BHwEegnBHwgFvOgPm3+wj4CPgIVDQCHnArGjn/OR8BHwEfgXJGwANuOQPm3+4j4CPgI1DRCHjArWjk/Od8BHwEfATKGYH/AfEvq7tMbDPiAAAAAElFTkSuQmCC;" parent="4" vertex="1">
          <mxGeometry x="80.92" y="224.25" width="100.5" height="100.5" as="geometry" />
        </mxCell>
        <mxCell id="r-kqNFqlSCn_OBZ2Qqly-42" style="edgeStyle=orthogonalEdgeStyle;rounded=0;orthogonalLoop=1;jettySize=auto;html=1;entryX=0;entryY=0.5;entryDx=0;entryDy=0;strokeColor=#FFFF00;" edge="1" parent="K6xSPXkN4X1ELBGIaNk9-41" source="r-kqNFqlSCn_OBZ2Qqly-40" target="r-kqNFqlSCn_OBZ2Qqly-39">
          <mxGeometry relative="1" as="geometry">
            <Array as="points">
              <mxPoint x="260" y="430" />
              <mxPoint x="260" y="235" />
            </Array>
          </mxGeometry>
        </mxCell>
        <mxCell id="K6xSPXkN4X1ELBGIaNk9-42" value="User" style="shape=umlActor;verticalLabelPosition=bottom;verticalAlign=top;html=1;strokeColor=#FF0000;" parent="1" vertex="1">
          <mxGeometry x="10" y="340" width="30" height="60" as="geometry" />
        </mxCell>
        <mxCell id="K6xSPXkN4X1ELBGIaNk9-71" value="" style="html=1;verticalAlign=bottom;endArrow=open;endSize=8;curved=0;rounded=0;fillColor=#0050ef;strokeColor=#001DBC;entryX=0.25;entryY=1;entryDx=0;entryDy=0;" parent="1" target="7" edge="1">
          <mxGeometry relative="1" as="geometry">
            <mxPoint x="160" y="410" as="sourcePoint" />
            <mxPoint x="390" y="268" as="targetPoint" />
            <Array as="points">
              <mxPoint x="160" y="540" />
              <mxPoint x="300" y="540" />
            </Array>
          </mxGeometry>
        </mxCell>
        <mxCell id="K6xSPXkN4X1ELBGIaNk9-74" value="&lt;font style=&quot;font-size: 11px;&quot; color=&quot;#007cfa&quot;&gt;Open/ Close&lt;/font&gt;&lt;div&gt;&lt;font style=&quot;font-size: 11px;&quot; color=&quot;#007cfa&quot;&gt;irrigation system&lt;/font&gt;&lt;/div&gt;" style="edgeLabel;html=1;align=center;verticalAlign=middle;resizable=0;points=[];" parent="K6xSPXkN4X1ELBGIaNk9-71" vertex="1" connectable="0">
          <mxGeometry x="-0.4504" y="-2" relative="1" as="geometry">
            <mxPoint x="62" y="44" as="offset" />
          </mxGeometry>
        </mxCell>
        <mxCell id="K6xSPXkN4X1ELBGIaNk9-80" value="" style="shape=image;verticalLabelPosition=bottom;labelBackgroundColor=default;verticalAlign=top;aspect=fixed;imageAspect=0;image=https://cdn-icons-png.flaticon.com/512/40/40486.png;" parent="1" vertex="1">
          <mxGeometry x="1010" y="306.25" width="100" height="100" as="geometry" />
        </mxCell>
        <mxCell id="pl2eVLVRURTBmRYClIb3-50" value="" style="endArrow=open;html=1;endSize=12;startArrow=diamondThin;startSize=14;startFill=0;edgeStyle=orthogonalEdgeStyle;rounded=0;exitX=1;exitY=0.3333333333333333;exitDx=0;exitDy=0;exitPerimeter=0;fillColor=#a20025;strokeColor=#FF0000;" parent="1" source="K6xSPXkN4X1ELBGIaNk9-42" edge="1">
          <mxGeometry relative="1" as="geometry">
            <mxPoint x="40" y="450" as="sourcePoint" />
            <mxPoint x="120" y="360" as="targetPoint" />
            <Array as="points">
              <mxPoint x="40" y="360" />
              <mxPoint x="80" y="360" />
              <mxPoint x="120" y="361" />
            </Array>
          </mxGeometry>
        </mxCell>
        <mxCell id="pl2eVLVRURTBmRYClIb3-53" value="&lt;font style=&quot;font-size: 11px; text-wrap: nowrap;&quot; color=&quot;#ffff00&quot;&gt;Get&lt;/font&gt;&lt;div style=&quot;font-size: 11px; text-wrap: nowrap;&quot;&gt;or&lt;/div&gt;&lt;div style=&quot;font-size: 11px; text-wrap: nowrap;&quot;&gt;&lt;font color=&quot;#007fff&quot;&gt;Send&lt;/font&gt;&lt;/div&gt;" style="text;html=1;align=center;verticalAlign=middle;whiteSpace=wrap;rounded=0;" parent="1" vertex="1">
          <mxGeometry x="136" y="331.5" width="60" height="49.5" as="geometry" />
        </mxCell>
      </root>
    </mxGraphModel>
  </diagram>
</mxfile>
